<svg width="43" height="51" viewBox="0 0 43 51" fill="none" xmlns="http://www.w3.org/2000/svg">
<path d="M42.1366 12.2519V12.0052H42.116C41.9927 8.96318 39.9373 5.94168 35.9189 3.62931C27.6766 -1.12904 14.3162 -1.12904 6.12525 3.62931C2.02465 6.01362 -0.0102385 9.13789 3.87329e-05 12.2622V18.706V18.819V25.1498V25.2628V31.5936V31.7066V38.1504C0.0205931 41.2747 2.09659 44.399 6.21775 46.773C10.3492 49.1573 15.7447 50.3495 21.13 50.3495C26.5255 50.3495 31.9005 49.1573 36.0114 46.773C40.112 44.3887 42.1469 41.2644 42.1366 38.1504V31.7066V31.3469V25.2628V24.8826V18.7985V18.4388V12.2519C42.1366 12.2622 42.1366 12.2519 42.1366 12.2519ZM10.4109 8.38765L11.5516 7.72991C11.8394 7.56548 12.2916 7.56548 12.5896 7.72991L13.9976 8.54181C14.3059 8.35682 14.6245 8.18211 14.9328 7.99712L13.5248 7.18522C13.2371 7.02078 13.2371 6.75358 13.5248 6.58914L14.6656 5.9314C14.9534 5.76697 15.4159 5.76697 15.7036 5.9314L17.5021 6.9694L17.7385 6.89746C19.7528 6.28083 21.8905 6.00334 24.172 6.16778C25.9603 6.30138 27.5635 6.72275 29.0331 7.33938C29.6087 7.57575 30.1431 7.84296 30.6261 8.12045C31.9005 8.8604 32.8768 9.72369 33.6373 10.7L33.7915 10.9672C33.9662 11.3269 33.7607 11.5736 33.1543 11.7175C32.5171 11.8819 31.8697 12.0258 31.2222 12.1697C30.77 12.2622 30.4514 12.2416 30.1739 12.0772C30.102 12.0361 30.0403 11.9847 29.9684 11.9333C29.5367 11.5325 29.1462 11.1008 28.6837 10.7103C28.2726 10.3506 27.8204 10.0115 27.3066 9.71341C26.6283 9.32288 25.8472 8.99401 24.912 8.76791C23.5143 8.41848 22.1474 8.5007 20.7703 8.8193L20.7189 8.82957L24.2029 10.8439C24.4906 11.0083 24.4906 11.2755 24.2029 11.44L23.0621 12.0977C22.7743 12.2622 22.3119 12.2622 22.0241 12.0977L18.0263 9.79563C17.7282 9.97034 17.4096 10.1553 17.091 10.3403L21.0889 12.6424C21.3766 12.8069 21.3766 13.0741 21.0889 13.2385L19.9481 13.8962C19.6603 14.0607 19.2081 14.0607 18.9101 13.8962L15.2617 11.7894C14.4498 12.776 14.1929 13.7524 15.1075 14.7698C15.4981 15.2014 16.0016 15.5817 16.5875 15.9208C17.1013 16.2189 17.6666 16.4758 18.2729 16.7122C18.9512 16.9588 19.6706 17.1849 20.3695 17.4419C20.4825 17.483 20.575 17.5241 20.6572 17.5755C20.9347 17.7399 20.9758 17.9249 20.8114 18.1818C20.575 18.5724 20.3078 18.9526 20.02 19.3226C19.7837 19.6617 19.3417 19.7851 18.7046 19.6617C18.0674 19.5179 17.4405 19.3432 16.8238 19.1479C15.6933 18.7779 14.6759 18.3463 13.7921 17.8324C12.8671 17.298 12.086 16.6814 11.4591 15.9825C9.98948 14.3176 10.0203 12.6219 11.2227 10.9158C11.4591 10.5767 11.788 10.2787 12.0758 9.96007L10.3697 8.97345C10.1231 8.8193 10.1231 8.55209 10.4109 8.38765ZM6.21775 20.8847C14.4703 25.6534 27.8102 25.6534 36.0114 20.8847C37.2857 20.1448 38.3443 19.3226 39.2179 18.4593V18.819C39.2281 20.9567 37.5221 23.1868 34.5417 24.9134C31.0064 26.9688 26.248 28.0993 21.13 28.0993C16.0119 28.0993 11.2227 26.9688 7.66684 24.9134C4.65561 23.1766 2.91877 20.9361 2.89821 18.8087V18.3874C3.81288 19.2712 4.90227 20.1242 6.21775 20.8847ZM34.552 37.7907C31.0166 39.8462 26.2583 40.9767 21.1403 40.9767C16.0222 40.9767 11.233 39.8462 7.67711 37.7907C4.66589 36.0539 2.92904 33.8135 2.90849 31.6861V31.3778C3.81288 32.2719 4.89199 33.1146 6.21775 33.8751C10.3492 36.2594 15.7447 37.4516 21.13 37.4516C26.5255 37.4516 31.9005 36.2594 36.0114 33.8751C37.2857 33.1352 38.3443 32.313 39.2179 31.4497V31.7066C39.2384 33.8443 37.5324 36.0642 34.552 37.7907ZM34.552 31.3572C31.0166 33.4127 26.2583 34.5431 21.1403 34.5431C16.0222 34.5431 11.233 33.4127 7.67711 31.3572C4.66589 29.6204 2.92904 27.3799 2.90849 25.2526V24.9442C3.81288 25.8384 4.89199 26.6811 6.21775 27.4416C10.3492 29.8259 15.7447 31.0181 21.13 31.0181C26.5255 31.0181 31.9005 29.8259 36.0114 27.4416C37.2857 26.7016 38.3443 25.8795 39.2179 25.0162V25.2731C39.2384 27.4005 37.5324 29.6204 34.552 31.3572ZM34.552 44.2346C31.0166 46.29 26.2583 47.4205 21.1403 47.4205C16.0222 47.4205 11.233 46.29 7.67711 44.2346C4.66589 42.4977 2.92904 40.2573 2.90849 38.1299V37.8216C3.81288 38.7157 4.89199 39.5584 6.21775 40.3189C10.3492 42.7032 15.7447 43.8954 21.13 43.8954C26.5255 43.8954 31.9005 42.7032 36.0114 40.3189C37.2857 39.579 38.3443 38.7568 39.2179 37.8935V38.1504C39.2384 40.2778 37.5324 42.508 34.552 44.2346Z" fill="#2F80ED"/>
</svg>
