<svg width="67" height="67" viewBox="0 0 67 67" fill="none" xmlns="http://www.w3.org/2000/svg">
<rect y="0.677734" width="66.1916" height="66.1916" rx="33.0958" fill="#2F80ED"/>
<path d="M44.4258 32.0908V37.6574C44.4258 43.2241 42.2065 45.4557 36.6275 45.4557H29.9451C29.2261 45.4557 28.5689 45.4186 27.9614 45.3318" stroke="white" stroke-width="1.5" stroke-linecap="round" stroke-linejoin="round"/>
<path d="M22.147 37.422V32.0908" stroke="white" stroke-width="1.5" stroke-linecap="round" stroke-linejoin="round"/>
<path d="M33.2921 33.0578C35.5609 33.0578 37.2346 31.2105 37.0115 28.9417L36.1808 20.6599H30.391L29.5604 28.9417C29.3372 31.2105 31.0233 33.0578 33.2921 33.0578Z" stroke="white" stroke-width="1.5" stroke-linecap="round" stroke-linejoin="round"/>
<path d="M41.1034 33.0578C43.6077 33.0578 45.4426 31.0245 45.1947 28.5325L44.8475 25.1231C44.4012 21.8997 43.1614 20.6599 39.9132 20.6599H36.1318L36.9997 29.3508C37.2229 31.3965 39.0577 33.0578 41.1034 33.0578Z" stroke="white" stroke-width="1.5" stroke-linecap="round" stroke-linejoin="round"/>
<path d="M25.4072 33.0578C27.4529 33.0578 29.3002 31.3965 29.4985 29.3508L29.7713 26.6109L30.3664 20.6599H26.5851C23.3368 20.6599 22.0971 21.8997 21.6507 25.1231L21.3036 28.5325C21.0556 31.0245 22.9029 33.0578 25.4072 33.0578Z" stroke="white" stroke-width="1.5" stroke-linecap="round" stroke-linejoin="round"/>
<path d="M29.5359 41.7365C29.5359 42.6663 29.2756 43.5466 28.8169 44.2905C28.5813 44.6872 28.2961 45.0467 27.9614 45.3319C27.9242 45.3815 27.887 45.4186 27.8375 45.4558C26.9696 46.2369 25.829 46.6956 24.5768 46.6956C23.0643 46.6956 21.7129 46.0137 20.8202 44.9475C20.7954 44.9103 20.7583 44.8855 20.7335 44.8484C20.5847 44.6748 20.4484 44.4889 20.3368 44.2905C19.8781 43.5466 19.6177 42.6663 19.6177 41.7365C19.6177 40.1744 20.3368 38.7734 21.4774 37.8684C21.6881 37.6948 21.9112 37.546 22.1468 37.4221C22.8659 37.0129 23.6966 36.7773 24.5768 36.7773C25.8166 36.7773 26.9324 37.2236 27.8002 37.9799C27.949 38.0915 28.0854 38.2279 28.2094 38.3643C29.0276 39.2569 29.5359 40.4347 29.5359 41.7365Z" stroke="white" stroke-width="1.5" stroke-miterlimit="10" stroke-linecap="round" stroke-linejoin="round"/>
<path d="M26.4235 41.7114H22.729" stroke="white" stroke-width="1.5" stroke-miterlimit="10" stroke-linecap="round" stroke-linejoin="round"/>
<path d="M24.5767 39.9016V43.6086" stroke="white" stroke-width="1.5" stroke-miterlimit="10" stroke-linecap="round" stroke-linejoin="round"/>
</svg>
