<svg width="797" height="578" viewBox="0 0 797 578" fill="none" xmlns="http://www.w3.org/2000/svg">
<g filter="url(#filter0_d_0_9)">
<rect x="30.646" y="30" width="736.354" height="518" rx="10" fill="#F3F5F9"/>
<path d="M30.646 40C30.646 34.4771 35.1231 30 40.646 30H757C762.523 30 767 34.4772 767 40V70.646H30.646V40Z" fill="white"/>
<rect x="686.135" y="44.1787" width="11.4163" height="11.3431" rx="2" fill="#333333" fill-opacity="0.2"/>
<rect x="712.772" y="39.4526" width="20.93" height="20.7956" rx="10.3978" fill="#333333" fill-opacity="0.2"/>
<path d="M738.935 49.3777L741.789 52.2135L744.643 49.3777" stroke="#333333" stroke-opacity="0.2" stroke-linecap="round"/>
<rect x="325.568" y="38.5073" width="146.51" height="22.6861" rx="4" fill="#F3F5F9"/>
<path d="M30.646 40C30.646 34.4771 35.1231 30 40.646 30H81.6898V538C81.6898 543.523 77.2126 548 71.6898 548H40.646C35.1231 548 30.646 543.523 30.646 538V40Z" fill="white"/>
<rect x="43.8794" y="138.704" width="24.5766" height="24.5766" rx="5" fill="#2F80ED" fill-opacity="0.5"/>
<rect x="43.8794" y="42.2883" width="24.5766" height="24.5766" rx="5" fill="#2F80ED" fill-opacity="0.5"/>
<rect x="50.4966" y="178.405" width="11.3431" height="11.3431" rx="2" fill="#333333" fill-opacity="0.2"/>
<rect x="50.4966" y="213.38" width="11.3431" height="11.3431" rx="2" fill="#333333" fill-opacity="0.2"/>
<rect x="50.4966" y="248.354" width="11.3431" height="11.3431" rx="2" fill="#333333" fill-opacity="0.2"/>
<rect x="50.4966" y="283.328" width="11.3431" height="11.3431" rx="2" fill="#333333" fill-opacity="0.2"/>
<rect x="50.4966" y="318.303" width="11.3431" height="11.3431" rx="2" fill="#333333" fill-opacity="0.2"/>
<path d="M562.825 65.9197H767V538C767 543.523 762.523 548 757 548H562.825V65.9197Z" fill="white"/>
<rect x="580.785" y="85.77" width="83.1825" height="7.56204" rx="3.78102" fill="#939393" fill-opacity="0.1"/>
<rect x="580.785" y="112.237" width="97.3613" height="7.56204" rx="3.78102" fill="#2F80ED" fill-opacity="0.5"/>
<rect x="580.785" y="129.252" width="97.3613" height="7.56204" rx="3.78102" fill="#333333" fill-opacity="0.2"/>
<rect x="703.668" y="112.237" width="42.5365" height="7.56204" rx="3.78102" fill="#2F80ED" fill-opacity="0.5"/>
<rect x="701.777" y="82.9343" width="37.8102" height="13.2336" rx="6.61679" fill="#939393" fill-opacity="0.1"/>
<rect x="580.785" y="152.883" width="161.639" height="34.9745" rx="5" fill="#544EF3" fill-opacity="0.5"/>
<circle cx="599.217" cy="171.316" r="8.03467" fill="white"/>
<circle cx="599.217" cy="171.316" r="7.53467" stroke="#544EF3" stroke-opacity="0.5"/>
<circle cx="609.615" cy="171.316" r="8.03467" fill="white"/>
<circle cx="609.615" cy="171.316" r="7.53467" stroke="#544EF3" stroke-opacity="0.5"/>
<circle cx="620.012" cy="171.316" r="8.03467" fill="white"/>
<circle cx="620.012" cy="171.316" r="7.53467" stroke="#544EF3" stroke-opacity="0.5"/>
<circle cx="630.41" cy="171.316" r="8.03467" fill="white"/>
<circle cx="630.41" cy="171.316" r="7.53467" stroke="#544EF3" stroke-opacity="0.5"/>
<rect x="655.46" y="168.007" width="22.6861" height="7.56204" rx="3.78102" fill="white" fill-opacity="0.4"/>
<rect x="706.503" y="165.172" width="12.2883" height="12.2883" rx="3" fill="white" fill-opacity="0.4"/>
<circle cx="727.772" cy="167.535" r="1.41788" fill="white" fill-opacity="0.4"/>
<circle cx="727.772" cy="171.316" r="1.41788" fill="white" fill-opacity="0.4"/>
<circle cx="727.772" cy="175.097" r="1.41788" fill="white" fill-opacity="0.4"/>
<rect x="580.785" y="215.27" width="69.9489" height="9.45255" rx="4.72628" fill="#333333" fill-opacity="0.2"/>
<rect x="580.785" y="393.923" width="69.9489" height="9.45255" rx="4.72628" fill="#333333" fill-opacity="0.2"/>
<circle cx="596.381" cy="249.772" r="14.6515" fill="#939393" fill-opacity="0.1"/>
<circle cx="596.381" cy="287.582" r="14.6515" fill="#939393" fill-opacity="0.1"/>
<circle cx="596.381" cy="325.392" r="14.6515" fill="#939393" fill-opacity="0.1"/>
<circle cx="596.381" cy="363.202" r="14.6515" fill="#939393" fill-opacity="0.1"/>
<rect x="617.65" y="240.792" width="103.033" height="6.61679" rx="3.30839" fill="#333333" fill-opacity="0.2"/>
<rect x="617.65" y="253.08" width="115.321" height="6.61679" rx="3.30839" fill="#939393" fill-opacity="0.1"/>
<rect x="617.65" y="278.602" width="69.0036" height="6.61679" rx="3.30839" fill="#333333" fill-opacity="0.2"/>
<rect x="617.65" y="290.891" width="120.047" height="6.61679" rx="3.30839" fill="#939393" fill-opacity="0.1"/>
<rect x="617.65" y="316.412" width="69.0036" height="6.61679" rx="3.30839" fill="#333333" fill-opacity="0.2"/>
<rect x="617.65" y="328.701" width="108.704" height="6.61679" rx="3.30839" fill="#939393" fill-opacity="0.1"/>
<rect x="617.65" y="354.223" width="37.8102" height="6.61679" rx="3.30839" fill="#333333" fill-opacity="0.2"/>
<rect x="617.65" y="366.511" width="84.1277" height="6.61679" rx="3.30839" fill="#939393" fill-opacity="0.1"/>
<rect x="581.73" y="416.609" width="47.2628" height="6.61679" rx="3.30839" fill="#939393" fill-opacity="0.1"/>
<rect x="581.73" y="495.066" width="47.2628" height="6.61679" rx="3.30839" fill="#939393" fill-opacity="0.1"/>
<path opacity="0.4" d="M581.257 484.195H744.787" stroke="#333333" stroke-opacity="0.2" stroke-linecap="round"/>
<circle cx="732.971" cy="398.65" r="0.945255" fill="#939393" fill-opacity="0.1"/>
<circle cx="736.752" cy="398.65" r="0.945255" fill="#939393" fill-opacity="0.1"/>
<circle cx="740.533" cy="398.65" r="0.945255" fill="#939393" fill-opacity="0.1"/>
<rect x="580.785" y="432.679" width="160.693" height="20.7956" rx="3" fill="#939393" fill-opacity="0.1"/>
<rect x="589.292" y="440.241" width="47.2628" height="6.61679" rx="3.30839" fill="#333333" fill-opacity="0.2"/>
<circle cx="600.162" cy="467.181" r="5.1989" fill="#939393" fill-opacity="0.1"/>
<circle cx="617.177" cy="467.181" r="5.1989" fill="#939393" fill-opacity="0.1"/>
<circle cx="634.192" cy="467.181" r="5.1989" fill="#939393" fill-opacity="0.1"/>
<circle cx="651.206" cy="467.181" r="5.1989" fill="#939393" fill-opacity="0.1"/>
<circle cx="668.221" cy="467.181" r="5.1989" fill="#939393" fill-opacity="0.1"/>
<circle cx="685.236" cy="467.181" r="5.1989" fill="#939393" fill-opacity="0.1"/>
<circle cx="702.25" cy="467.181" r="5.1989" fill="#939393" fill-opacity="0.1"/>
<circle cx="719.265" cy="467.181" r="5.1989" fill="#939393" fill-opacity="0.1"/>
<path d="M586.456 463.872L583.62 466.708L586.456 469.544" stroke="#333333" stroke-opacity="0.2" stroke-linecap="round"/>
<path d="M739.588 469.544L742.423 466.708L739.588 463.872" stroke="#333333" stroke-opacity="0.2" stroke-linecap="round"/>
<rect x="584.566" y="508.299" width="47.2628" height="17.0146" rx="8.5073" fill="#EEEEFF"/>
<path d="M620.486 514.916L623.794 518.224" stroke="#333333" stroke-opacity="0.2" stroke-linecap="round"/>
<path d="M620.486 518.225L623.794 514.916" stroke="#333333" stroke-opacity="0.2" stroke-linecap="round"/>
<rect x="586.457" y="510.19" width="13.2336" height="13.2336" rx="6.61679" fill="#544EF3" fill-opacity="0.5"/>
<rect x="639.391" y="508.299" width="47.2628" height="17.0146" rx="8.5073" fill="#EEF9FF"/>
<path d="M675.31 514.916L678.619 518.224" stroke="#333333" stroke-opacity="0.2" stroke-linecap="round"/>
<path d="M675.31 518.224L678.619 514.916" stroke="#333333" stroke-opacity="0.2" stroke-linecap="round"/>
<rect x="641.281" y="510.19" width="13.2336" height="13.2336" rx="6.61679" fill="#2F80ED" fill-opacity="0.5"/>
<rect x="725.409" y="508.299" width="17.0146" height="17.0146" rx="8.5073" fill="#544EF3" fill-opacity="0.5"/>
<rect x="697.051" y="508.299" width="17.0146" height="17.0146" rx="8.5073" fill="#939393" fill-opacity="0.1"/>
<path d="M732.971 519.642L735.806 516.807L732.971 513.971" stroke="white" stroke-linecap="round"/>
<path d="M703.668 517.255H708.347" stroke="#333333" stroke-opacity="0.2" stroke-linecap="round"/>
<path d="M706.008 519.595L706.008 514.916" stroke="#333333" stroke-opacity="0.2" stroke-linecap="round"/>
<rect x="102.485" y="81.0437" width="137.062" height="106.814" rx="10" fill="white"/>
<circle cx="120.918" cy="101.367" r="8.03467" fill="#939393" fill-opacity="0.1"/>
<rect x="133.679" y="99.0037" width="75.6204" height="7.56204" rx="3.78102" fill="#939393" fill-opacity="0.1"/>
<rect x="192.285" y="145.321" width="38.7555" height="7.56204" rx="3.78102" fill="#939393" fill-opacity="0.1"/>
<rect x="165.817" y="159.5" width="65.2226" height="7.56204" rx="3.78102" fill="#939393" fill-opacity="0.1"/>
<path d="M217.356 103.098C217.356 101.836 217.598 100.843 218.082 100.117C218.574 99.3907 219.362 99.0277 220.447 99.0277C221.533 99.0277 222.317 99.3907 222.801 100.117C223.293 100.843 223.538 101.836 223.538 103.098C223.538 104.374 223.293 105.375 222.801 106.101C222.317 106.827 221.533 107.19 220.447 107.19C219.362 107.19 218.574 106.827 218.082 106.101C217.598 105.375 217.356 104.374 217.356 103.098ZM221.69 103.098C221.69 102.357 221.61 101.789 221.448 101.393C221.287 100.989 220.953 100.788 220.447 100.788C219.941 100.788 219.608 100.989 219.446 101.393C219.285 101.789 219.204 102.357 219.204 103.098C219.204 103.596 219.234 104.011 219.292 104.341C219.351 104.663 219.468 104.927 219.644 105.133C219.828 105.331 220.095 105.43 220.447 105.43C220.799 105.43 221.063 105.331 221.239 105.133C221.423 104.927 221.544 104.663 221.602 104.341C221.661 104.011 221.69 103.596 221.69 103.098ZM218.676 119.911C217.987 119.544 217.642 118.968 217.642 118.184C217.642 117.788 217.745 117.428 217.95 117.106C218.156 116.776 218.467 116.515 218.885 116.325C219.303 116.127 219.817 116.028 220.425 116.028C221.034 116.028 221.544 116.127 221.954 116.325C222.372 116.515 222.684 116.776 222.889 117.106C223.095 117.428 223.197 117.788 223.197 118.184C223.197 118.58 223.102 118.924 222.911 119.218C222.728 119.511 222.479 119.742 222.163 119.911C222.559 120.101 222.864 120.365 223.076 120.703C223.289 121.033 223.395 121.421 223.395 121.869C223.395 122.389 223.263 122.84 222.999 123.222C222.735 123.596 222.376 123.882 221.921 124.08C221.474 124.278 220.975 124.377 220.425 124.377C219.875 124.377 219.373 124.278 218.918 124.08C218.471 123.882 218.115 123.596 217.851 123.222C217.587 122.84 217.455 122.389 217.455 121.869C217.455 121.414 217.562 121.022 217.774 120.692C217.987 120.354 218.288 120.094 218.676 119.911ZM221.371 118.47C221.371 118.169 221.283 117.938 221.107 117.777C220.939 117.608 220.711 117.524 220.425 117.524C220.139 117.524 219.908 117.608 219.732 117.777C219.564 117.945 219.479 118.18 219.479 118.481C219.479 118.767 219.567 118.994 219.743 119.163C219.919 119.324 220.147 119.405 220.425 119.405C220.704 119.405 220.931 119.32 221.107 119.152C221.283 118.983 221.371 118.756 221.371 118.47ZM220.425 120.725C220.081 120.725 219.802 120.82 219.589 121.011C219.377 121.194 219.27 121.451 219.27 121.781C219.27 122.089 219.373 122.342 219.578 122.54C219.791 122.738 220.073 122.837 220.425 122.837C220.777 122.837 221.052 122.738 221.25 122.54C221.456 122.342 221.558 122.089 221.558 121.781C221.558 121.458 221.452 121.201 221.239 121.011C221.034 120.82 220.763 120.725 220.425 120.725Z" fill="#333333" fill-opacity="0.2"/>
<path d="M113.829 124.053H228.677" stroke="#333333" stroke-opacity="0.2" stroke-linecap="round"/>
<path d="M112.883 162.336C114.774 160.288 119.217 156.192 121.863 156.192C125.172 156.192 128.48 164.699 132.261 164.699C136.042 164.699 139.35 147.684 145.022 147.684C150.694 147.684 147.385 152.883 152.584 152.883C157.783 152.883 160.619 139.177 165.345 139.177C169.126 139.177 170.071 142.013 170.071 143.431" stroke="#544EF3" stroke-opacity="0.5" stroke-linecap="round"/>
<rect x="102.485" y="81.0437" width="137.062" height="106.814" rx="10" fill="white"/>
<circle cx="120.918" cy="101.367" r="8.03467" fill="#939393" fill-opacity="0.1"/>
<rect x="133.679" y="99.0037" width="75.6204" height="7.56204" rx="3.78102" fill="#939393" fill-opacity="0.1"/>
<rect x="192.285" y="145.321" width="38.7555" height="7.56204" rx="3.78102" fill="#939393" fill-opacity="0.1"/>
<rect x="165.817" y="159.5" width="65.2226" height="7.56204" rx="3.78102" fill="#939393" fill-opacity="0.1"/>
<path d="M217.221 103.223C217.221 102.305 217.397 101.583 217.749 101.055C218.107 100.527 218.68 100.263 219.469 100.263C220.259 100.263 220.829 100.527 221.181 101.055C221.539 101.583 221.717 102.305 221.717 103.223C221.717 104.151 221.539 104.879 221.181 105.407C220.829 105.935 220.259 106.199 219.469 106.199C218.68 106.199 218.107 105.935 217.749 105.407C217.397 104.879 217.221 104.151 217.221 103.223ZM220.373 103.223C220.373 102.684 220.315 102.271 220.197 101.983C220.08 101.689 219.837 101.543 219.469 101.543C219.101 101.543 218.859 101.689 218.741 101.983C218.624 102.271 218.565 102.684 218.565 103.223C218.565 103.585 218.587 103.887 218.629 104.127C218.672 104.361 218.757 104.553 218.885 104.703C219.019 104.847 219.213 104.919 219.469 104.919C219.725 104.919 219.917 104.847 220.045 104.703C220.179 104.553 220.267 104.361 220.309 104.127C220.352 103.887 220.373 103.585 220.373 103.223ZM223.4 103.087C222.899 102.82 222.648 102.401 222.648 101.831C222.648 101.543 222.723 101.281 222.872 101.047C223.021 100.807 223.248 100.617 223.552 100.479C223.856 100.335 224.229 100.263 224.672 100.263C225.115 100.263 225.485 100.335 225.784 100.479C226.088 100.617 226.315 100.807 226.464 101.047C226.613 101.281 226.688 101.543 226.688 101.831C226.688 102.119 226.619 102.369 226.48 102.583C226.347 102.796 226.165 102.964 225.936 103.087C226.224 103.225 226.445 103.417 226.6 103.663C226.755 103.903 226.832 104.185 226.832 104.511C226.832 104.889 226.736 105.217 226.544 105.495C226.352 105.767 226.091 105.975 225.76 106.119C225.435 106.263 225.072 106.335 224.672 106.335C224.272 106.335 223.907 106.263 223.576 106.119C223.251 105.975 222.992 105.767 222.8 105.495C222.608 105.217 222.512 104.889 222.512 104.511C222.512 104.18 222.589 103.895 222.744 103.655C222.899 103.409 223.117 103.22 223.4 103.087ZM225.36 102.039C225.36 101.82 225.296 101.652 225.168 101.535C225.045 101.412 224.88 101.351 224.672 101.351C224.464 101.351 224.296 101.412 224.168 101.535C224.045 101.657 223.984 101.828 223.984 102.047C223.984 102.255 224.048 102.42 224.176 102.543C224.304 102.66 224.469 102.719 224.672 102.719C224.875 102.719 225.04 102.657 225.168 102.535C225.296 102.412 225.36 102.247 225.36 102.039ZM224.672 103.679C224.421 103.679 224.219 103.748 224.064 103.887C223.909 104.02 223.832 104.207 223.832 104.447C223.832 104.671 223.907 104.855 224.056 104.999C224.211 105.143 224.416 105.215 224.672 105.215C224.928 105.215 225.128 105.143 225.272 104.999C225.421 104.855 225.496 104.671 225.496 104.447C225.496 104.212 225.419 104.025 225.264 103.887C225.115 103.748 224.917 103.679 224.672 103.679Z" fill="#333333" fill-opacity="0.2"/>
<path d="M113.829 124.053H228.677" stroke="#333333" stroke-opacity="0.2" stroke-linecap="round"/>
<path d="M112.883 162.336C114.774 160.288 119.217 156.192 121.863 156.192C125.172 156.192 128.48 164.699 132.261 164.699C136.042 164.699 139.35 147.684 145.022 147.684C150.694 147.684 147.385 152.883 152.584 152.883C157.783 152.883 160.619 139.177 165.345 139.177C169.126 139.177 170.071 142.013 170.071 143.431" stroke="#544EF3" stroke-opacity="0.5" stroke-linecap="round"/>
<rect x="250.891" y="81.0437" width="137.062" height="106.814" rx="10" fill="white"/>
<circle cx="273.104" cy="101.367" r="8.03467" fill="#939393" fill-opacity="0.1"/>
<rect x="342.58" y="145.321" width="38.7555" height="7.56204" rx="3.78102" fill="#939393" fill-opacity="0.1"/>
<rect x="316.113" y="159.5" width="65.2226" height="7.56204" rx="3.78102" fill="#939393" fill-opacity="0.1"/>
<rect x="287.755" y="99.0037" width="75.6204" height="7.56204" rx="3.78102" fill="#939393" fill-opacity="0.1"/>
<path d="M370.29 100.942V99.1927H373.337V107.223H371.379V100.942H370.29ZM374.623 103.098C374.623 101.836 374.865 100.843 375.349 100.117C375.841 99.3907 376.629 99.0277 377.714 99.0277C378.8 99.0277 379.584 99.3907 380.068 100.117C380.56 100.843 380.805 101.836 380.805 103.098C380.805 104.374 380.56 105.375 380.068 106.101C379.584 106.827 378.8 107.19 377.714 107.19C376.629 107.19 375.841 106.827 375.349 106.101C374.865 105.375 374.623 104.374 374.623 103.098ZM378.957 103.098C378.957 102.357 378.877 101.789 378.715 101.393C378.554 100.989 378.22 100.788 377.714 100.788C377.208 100.788 376.875 100.989 376.713 101.393C376.552 101.789 376.471 102.357 376.471 103.098C376.471 103.596 376.501 104.011 376.559 104.341C376.618 104.663 376.735 104.927 376.911 105.133C377.095 105.331 377.362 105.43 377.714 105.43C378.066 105.43 378.33 105.331 378.506 105.133C378.69 104.927 378.811 104.663 378.869 104.341C378.928 104.011 378.957 103.596 378.957 103.098Z" fill="#333333" fill-opacity="0.2"/>
<path d="M266.015 124.053H380.863" stroke="#333333" stroke-opacity="0.2" stroke-linecap="round"/>
<path d="M263.179 162.336C265.069 160.288 269.512 156.192 272.159 156.192C275.467 156.192 278.775 164.699 282.556 164.699C286.337 164.699 289.646 147.684 295.317 147.684C300.989 147.684 297.681 152.883 302.879 152.883C308.078 152.883 310.914 139.177 315.64 139.177C319.421 139.177 320.367 142.013 320.367 143.431" stroke="#2F80ED" stroke-opacity="0.5" stroke-linecap="round"/>
<rect x="250.891" y="81.0437" width="137.062" height="106.814" rx="10" fill="white"/>
<circle cx="273.104" cy="101.367" r="8.03467" fill="#939393" fill-opacity="0.1"/>
<rect x="342.58" y="145.321" width="38.7555" height="7.56204" rx="3.78102" fill="#939393" fill-opacity="0.1"/>
<rect x="316.113" y="159.5" width="65.2226" height="7.56204" rx="3.78102" fill="#939393" fill-opacity="0.1"/>
<rect x="287.755" y="99.0037" width="75.6204" height="7.56204" rx="3.78102" fill="#939393" fill-opacity="0.1"/>
<path d="M370.209 101.655V100.383H372.425V106.223H371.001V101.655H370.209ZM373.36 103.223C373.36 102.305 373.536 101.583 373.888 101.055C374.246 100.527 374.819 100.263 375.608 100.263C376.398 100.263 376.968 100.527 377.32 101.055C377.678 101.583 377.856 102.305 377.856 103.223C377.856 104.151 377.678 104.879 377.32 105.407C376.968 105.935 376.398 106.199 375.608 106.199C374.819 106.199 374.246 105.935 373.888 105.407C373.536 104.879 373.36 104.151 373.36 103.223ZM376.512 103.223C376.512 102.684 376.454 102.271 376.336 101.983C376.219 101.689 375.976 101.543 375.608 101.543C375.24 101.543 374.998 101.689 374.88 101.983C374.763 102.271 374.704 102.684 374.704 103.223C374.704 103.585 374.726 103.887 374.768 104.127C374.811 104.361 374.896 104.553 375.024 104.703C375.158 104.847 375.352 104.919 375.608 104.919C375.864 104.919 376.056 104.847 376.184 104.703C376.318 104.553 376.406 104.361 376.448 104.127C376.491 103.887 376.512 103.585 376.512 103.223Z" fill="#333333" fill-opacity="0.2"/>
<path d="M266.015 124.053H380.863" stroke="#333333" stroke-opacity="0.2" stroke-linecap="round"/>
<path d="M263.179 162.336C265.069 160.288 269.512 156.192 272.159 156.192C275.467 156.192 278.775 164.699 282.556 164.699C286.337 164.699 289.646 147.684 295.317 147.684C300.989 147.684 297.681 152.883 302.879 152.883C308.078 152.883 310.914 139.177 315.64 139.177C319.421 139.177 320.367 142.013 320.367 143.431" stroke="#4ECBF3" stroke-opacity="0.7" stroke-linecap="round"/>
<rect x="399.296" y="81.0437" width="137.062" height="106.814" rx="10" fill="white"/>
<circle cx="422.455" cy="101.367" r="8.03467" fill="#939393" fill-opacity="0.1"/>
<rect x="492.876" y="145.321" width="38.7555" height="7.56204" rx="3.78102" fill="#939393" fill-opacity="0.1"/>
<rect x="466.409" y="159.5" width="65.2226" height="7.56204" rx="3.78102" fill="#939393" fill-opacity="0.1"/>
<rect x="437.106" y="99.0037" width="75.6204" height="7.56204" rx="3.78102" fill="#939393" fill-opacity="0.1"/>
<path d="M519.64 100.942V99.1927H522.687V107.223H520.729V100.942H519.64ZM519.904 118.459C519.934 117.674 520.19 117.069 520.674 116.644C521.158 116.218 521.815 116.006 522.643 116.006C523.193 116.006 523.663 116.101 524.051 116.292C524.447 116.482 524.744 116.743 524.942 117.073C525.148 117.403 525.25 117.773 525.25 118.184C525.25 118.668 525.129 119.064 524.887 119.372C524.645 119.672 524.363 119.878 524.04 119.988V120.032C524.458 120.171 524.788 120.402 525.03 120.725C525.272 121.047 525.393 121.462 525.393 121.968C525.393 122.422 525.287 122.826 525.074 123.178C524.869 123.522 524.565 123.794 524.161 123.992C523.765 124.19 523.292 124.289 522.742 124.289C521.862 124.289 521.158 124.072 520.63 123.64C520.11 123.207 519.835 122.554 519.805 121.682H521.631C521.639 122.004 521.73 122.261 521.906 122.452C522.082 122.635 522.339 122.727 522.676 122.727C522.962 122.727 523.182 122.646 523.336 122.485C523.498 122.316 523.578 122.096 523.578 121.825C523.578 121.473 523.465 121.22 523.237 121.066C523.017 120.904 522.662 120.824 522.17 120.824H521.818V119.295H522.17C522.544 119.295 522.845 119.232 523.072 119.108C523.307 118.976 523.424 118.745 523.424 118.415C523.424 118.151 523.351 117.945 523.204 117.799C523.058 117.652 522.856 117.579 522.599 117.579C522.321 117.579 522.112 117.663 521.972 117.832C521.84 118 521.763 118.209 521.741 118.459H519.904Z" fill="#333333" fill-opacity="0.2"/>
<path d="M418.201 124.053H533.049" stroke="#333333" stroke-opacity="0.2" stroke-linecap="round"/>
<path d="M413.475 162.336C415.365 160.288 419.808 156.192 422.455 156.192C425.763 156.192 429.071 164.699 432.852 164.699C436.633 164.699 439.942 147.684 445.613 147.684C451.285 147.684 447.976 152.883 453.175 152.883C458.374 152.883 461.21 139.177 465.936 139.177C469.717 139.177 470.663 142.013 470.663 143.431" stroke="#F34E4E" stroke-linecap="round"/>
<rect x="399.296" y="81.0437" width="137.062" height="106.814" rx="10" fill="white"/>
<circle cx="422.455" cy="101.367" r="8.03467" fill="#939393" fill-opacity="0.1"/>
<rect x="492.876" y="145.321" width="38.7555" height="7.56204" rx="3.78102" fill="#939393" fill-opacity="0.1"/>
<rect x="466.409" y="159.5" width="65.2226" height="7.56204" rx="3.78102" fill="#939393" fill-opacity="0.1"/>
<rect x="437.106" y="99.0037" width="75.6204" height="7.56204" rx="3.78102" fill="#939393" fill-opacity="0.1"/>
<path d="M519.56 101.655V100.383H521.776V106.223H520.352V101.655H519.56ZM522.759 102.031C522.781 101.46 522.967 101.02 523.319 100.711C523.671 100.401 524.149 100.247 524.751 100.247C525.151 100.247 525.493 100.316 525.775 100.455C526.063 100.593 526.279 100.783 526.423 101.023C526.573 101.263 526.647 101.532 526.647 101.831C526.647 102.183 526.559 102.471 526.383 102.695C526.207 102.913 526.002 103.063 525.767 103.143V103.175C526.071 103.276 526.311 103.444 526.487 103.679C526.663 103.913 526.751 104.215 526.751 104.583C526.751 104.913 526.674 105.207 526.519 105.463C526.37 105.713 526.149 105.911 525.855 106.055C525.567 106.199 525.223 106.271 524.823 106.271C524.183 106.271 523.671 106.113 523.287 105.799C522.909 105.484 522.709 105.009 522.687 104.375H524.015C524.021 104.609 524.087 104.796 524.215 104.935C524.343 105.068 524.53 105.135 524.775 105.135C524.983 105.135 525.143 105.076 525.255 104.959C525.373 104.836 525.431 104.676 525.431 104.479C525.431 104.223 525.349 104.039 525.183 103.927C525.023 103.809 524.765 103.751 524.407 103.751H524.151V102.639H524.407C524.679 102.639 524.898 102.593 525.063 102.503C525.234 102.407 525.319 102.239 525.319 101.999C525.319 101.807 525.266 101.657 525.159 101.551C525.053 101.444 524.906 101.391 524.719 101.391C524.517 101.391 524.365 101.452 524.263 101.575C524.167 101.697 524.111 101.849 524.095 102.031H522.759Z" fill="#333333" fill-opacity="0.2"/>
<path d="M418.201 124.053H533.049" stroke="#333333" stroke-opacity="0.2" stroke-linecap="round"/>
<path d="M413.475 162.336C415.365 160.288 419.808 156.192 422.455 156.192C425.763 156.192 429.071 164.699 432.852 164.699C436.633 164.699 439.942 147.684 445.613 147.684C451.285 147.684 447.976 152.883 453.175 152.883C458.374 152.883 461.21 139.177 465.936 139.177C469.717 139.177 470.663 142.013 470.663 143.431" stroke="#F34E4E" stroke-linecap="round"/>
<rect x="102.485" y="200.146" width="433.872" height="189.996" rx="10" fill="white"/>
<rect x="114.774" y="218.106" width="112.485" height="11.3431" rx="5.67153" fill="#333333" fill-opacity="0.2"/>
<rect x="102.485" y="405.266" width="58.6058" height="11.3431" rx="5.67153" fill="#333333" fill-opacity="0.2"/>
<rect x="366.212" y="218.106" width="33.0839" height="11.3431" rx="5.67153" fill="#333333" fill-opacity="0.2"/>
<rect x="410.639" y="218.106" width="55.7701" height="11.3431" rx="5.67153" fill="#333333" fill-opacity="0.2"/>
<rect x="479.642" y="218.106" width="43.4818" height="11.3431" rx="5.67153" fill="#2F80ED" fill-opacity="0.5"/>
<path d="M137.933 252.135H527.85" stroke="#939393" stroke-opacity="0.1" stroke-linecap="round"/>
<path d="M137.933 280.493H527.85" stroke="#939393" stroke-opacity="0.1" stroke-linecap="round"/>
<path d="M137.933 308.85H527.85" stroke="#939393" stroke-opacity="0.1" stroke-linecap="round"/>
<path d="M137.933 337.208H527.85" stroke="#939393" stroke-opacity="0.1" stroke-linecap="round"/>
<path d="M138.405 360.367C140.453 359.106 145.211 356.113 147.858 354.223C151.166 351.859 154.475 345.243 158.256 340.989C162.037 336.735 169.126 332.009 174.325 332.009C179.524 332.009 186.613 324.92 188.031 322.084C189.449 319.248 194.648 310.268 197.484 307.432C200.32 304.597 205.991 300.343 210.245 300.343C214.498 300.343 225.841 294.199 228.677 289.945C231.513 285.692 235.294 276.239 243.801 276.239C252.309 276.239 257.507 281.911 260.343 289.945C263.179 297.98 267.433 309.323 272.632 311.213C277.83 313.104 287.283 311.213 293.9 307.432C300.517 303.651 310.914 297.035 318.476 300.343C326.038 303.651 330.292 315.467 333.128 328.228C335.964 340.989 338.799 354.223 351.088 354.223C363.376 354.223 371.411 344.297 382.281 344.297C393.152 344.297 407.803 354.223 421.037 354.223C434.27 354.223 441.832 346.661 446.559 340.989C451.285 335.317 457.902 336.735 464.046 334.372C470.19 332.009 478.697 318.303 488.622 316.412C498.548 314.522 507.528 324.447 513.199 328.228C517.736 331.253 524.542 333.585 527.378 334.372" stroke="#2F80ED" stroke-opacity="0.5" stroke-width="2" stroke-linecap="round"/>
<path d="M136.042 349.969C137.933 349.339 143.226 346.755 149.276 341.462C156.838 334.845 162.037 317.358 171.962 317.358C181.887 317.358 193.703 333.9 200.792 335.318C207.881 336.736 214.971 333.427 219.697 325.392C224.423 317.358 227.259 288.527 231.985 269.622C236.712 250.717 251.363 255.444 257.035 267.259C262.706 279.075 268.85 292.781 278.303 294.672C287.756 296.562 293.9 298.452 297.681 307.905C301.462 317.358 308.078 317.358 315.168 317.358C322.257 317.358 336.436 297.035 352.978 299.87C369.52 302.706 368.575 326.81 383.226 329.173C397.878 331.537 405.44 307.433 408.748 294.672C412.057 281.911 417.728 280.493 424.345 280.493C430.962 280.493 440.414 262.06 453.648 260.642C466.881 259.224 470.19 273.876 477.279 284.274C484.369 294.672 489.568 289.473 498.075 294.672C506.582 299.87 509.418 315.467 511.308 325.392C513.199 335.318 520.583 347.851 523.124 349.969C525.96 352.332 528.323 351.86 528.323 351.86" stroke="#544EF3" stroke-opacity="0.5" stroke-width="2" stroke-linecap="round"/>
<path d="M137.933 365.566H527.85" stroke="#939393" stroke-opacity="0.1" stroke-linecap="round"/>
<circle cx="152.111" cy="337.681" r="2.36314" fill="#544EF3" fill-opacity="0.5"/>
<circle cx="152.111" cy="349.969" r="2.36314" fill="#2F80ED" fill-opacity="0.5"/>
<circle cx="195.593" cy="309.323" r="2.36314" fill="#2F80ED" fill-opacity="0.5"/>
<circle cx="237.184" cy="278.129" r="2.36314" fill="#2F80ED" fill-opacity="0.5"/>
<circle cx="276.885" cy="311.213" r="2.36314" fill="#2F80ED" fill-opacity="0.5"/>
<circle cx="317.531" cy="299.87" r="2.36314" fill="#2F80ED" fill-opacity="0.5"/>
<circle cx="358.177" cy="354.695" r="2.36314" fill="#2F80ED" fill-opacity="0.5"/>
<circle cx="401.659" cy="348.078" r="2.36314" fill="#2F80ED" fill-opacity="0.5"/>
<circle cx="445.14" cy="342.407" r="2.36314" fill="#2F80ED" fill-opacity="0.5"/>
<circle cx="482.005" cy="319.721" r="2.36314" fill="#2F80ED" fill-opacity="0.5"/>
<circle cx="516.98" cy="330.118" r="2.36314" fill="#2F80ED" fill-opacity="0.5"/>
<circle cx="195.593" cy="332.954" r="2.36314" fill="#544EF3" fill-opacity="0.5"/>
<circle cx="253.254" cy="262.06" r="2.36314" fill="#544EF3" fill-opacity="0.5"/>
<circle cx="278.776" cy="294.199" r="2.36314" fill="#544EF3" fill-opacity="0.5"/>
<circle cx="317.531" cy="316.885" r="2.36314" fill="#544EF3" fill-opacity="0.5"/>
<circle cx="358.177" cy="302.706" r="2.36314" fill="#544EF3" fill-opacity="0.5"/>
<circle cx="401.659" cy="315.94" r="2.36314" fill="#544EF3" fill-opacity="0.5"/>
<circle cx="435.688" cy="271.513" r="2.36314" fill="#544EF3" fill-opacity="0.5"/>
<circle cx="477.279" cy="285.691" r="2.36314" fill="#544EF3" fill-opacity="0.5"/>
<circle cx="508.473" cy="319.721" r="2.36314" fill="#544EF3" fill-opacity="0.5"/>
<rect x="114.774" y="249.299" width="13.2336" height="4.72628" fill="#939393" fill-opacity="0.1"/>
<rect x="114.774" y="277.657" width="13.2336" height="4.72628" fill="#939393" fill-opacity="0.1"/>
<rect x="114.774" y="306.015" width="13.2336" height="4.72628" fill="#939393" fill-opacity="0.1"/>
<rect x="114.774" y="334.372" width="13.2336" height="4.72628" fill="#939393" fill-opacity="0.1"/>
<rect x="114.774" y="362.73" width="13.2336" height="4.72628" fill="#939393" fill-opacity="0.1"/>
<rect x="138.405" y="373.128" width="13.2336" height="4.72628" fill="#939393" fill-opacity="0.1"/>
<rect x="171.489" y="373.128" width="13.2336" height="4.72628" fill="#939393" fill-opacity="0.1"/>
<rect x="204.573" y="373.128" width="13.2336" height="4.72628" fill="#939393" fill-opacity="0.1"/>
<rect x="237.657" y="373.128" width="13.2336" height="4.72628" fill="#939393" fill-opacity="0.1"/>
<rect x="270.741" y="373.128" width="13.2336" height="4.72628" fill="#939393" fill-opacity="0.1"/>
<rect x="303.825" y="373.128" width="13.2336" height="4.72628" fill="#939393" fill-opacity="0.1"/>
<rect x="336.909" y="373.128" width="13.2336" height="4.72628" fill="#939393" fill-opacity="0.1"/>
<rect x="369.993" y="373.128" width="13.2336" height="4.72628" fill="#939393" fill-opacity="0.1"/>
<rect x="403.077" y="373.128" width="13.2336" height="4.72628" fill="#939393" fill-opacity="0.1"/>
<rect x="436.161" y="373.128" width="13.2336" height="4.72628" fill="#939393" fill-opacity="0.1"/>
<rect x="469.245" y="373.128" width="13.2336" height="4.72628" fill="#939393" fill-opacity="0.1"/>
<rect x="502.328" y="373.128" width="13.2336" height="4.72628" fill="#939393" fill-opacity="0.1"/>
<rect x="102.485" y="431.734" width="433.872" height="40.646" rx="10" fill="white"/>
<path d="M102.485 441.734C102.485 436.211 106.963 431.734 112.485 431.734H189.449V472.38H112.485C106.962 472.38 102.485 467.902 102.485 462.38V441.734Z" fill="#FCFBFF"/>
<rect x="139.351" y="441.186" width="25.5219" height="6.61679" rx="3.30839" fill="#333333" fill-opacity="0.2"/>
<rect x="207.409" y="441.186" width="88.854" height="6.61679" rx="3.30839" fill="#333333" fill-opacity="0.2"/>
<rect x="370.938" y="444.967" width="67.1131" height="4.72628" rx="2.36314" fill="#333333" fill-opacity="0.2"/>
<circle cx="124.226" cy="452.529" r="9.45255" fill="#544EF3" fill-opacity="0.5"/>
<path d="M127.257 452.096C127.591 452.289 127.591 452.77 127.257 452.962L123.086 455.371C122.752 455.563 122.336 455.323 122.336 454.938L122.336 450.121C122.336 449.736 122.752 449.495 123.086 449.688L127.257 452.096Z" fill="white"/>
<circle cx="145.022" cy="459.146" r="4.72628" fill="#939393" fill-opacity="0.1"/>
<circle cx="211.19" cy="459.146" r="4.72628" fill="#939393" fill-opacity="0.1"/>
<circle cx="298.153" cy="459.146" r="4.72628" fill="#939393" fill-opacity="0.1"/>
<rect x="153.529" y="457.255" width="27.4124" height="4.72628" rx="2.36314" fill="#939393" fill-opacity="0.1"/>
<rect x="221.587" y="457.255" width="47.2628" height="4.72628" rx="2.36314" fill="#544EF3" fill-opacity="0.5"/>
<rect x="308.551" y="457.255" width="47.2628" height="4.72628" rx="2.36314" fill="#939393" fill-opacity="0.1"/>
<rect x="370.938" y="461.036" width="76.5657" height="1.89051" rx="0.945255" fill="#939393" fill-opacity="0.1"/>
<rect x="370.938" y="461.036" width="26.4672" height="1.89051" rx="0.945255" fill="#2F80ED" fill-opacity="0.5"/>
<rect x="468.299" y="442.131" width="59.5511" height="20.7956" rx="4" fill="#EDECFF"/>
<rect x="488.15" y="449.693" width="34.0292" height="4.72628" rx="2.36314" fill="#544EF3" fill-opacity="0.5"/>
<circle cx="479.642" cy="452.529" r="4.72628" fill="#544EF3" fill-opacity="0.5"/>
<rect x="102.485" y="483.723" width="433.872" height="40.646" rx="10" fill="white"/>
<path d="M102.485 493.723C102.485 488.2 106.963 483.723 112.485 483.723H189.449V524.369H112.485C106.962 524.369 102.485 519.891 102.485 514.369V493.723Z" fill="#FCFBFF"/>
<rect x="139.351" y="493.175" width="25.5219" height="6.61679" rx="3.30839" fill="#333333" fill-opacity="0.2"/>
<rect x="207.409" y="493.175" width="88.854" height="6.61679" rx="3.30839" fill="#333333" fill-opacity="0.2"/>
<rect x="370.938" y="496.956" width="67.1131" height="4.72628" rx="2.36314" fill="#333333" fill-opacity="0.2"/>
<circle cx="124.226" cy="504.518" r="9.45255" fill="#544EF3" fill-opacity="0.5"/>
<path d="M127.257 504.085C127.591 504.278 127.591 504.759 127.257 504.951L123.086 507.36C122.752 507.552 122.336 507.312 122.336 506.927L122.336 502.11C122.336 501.725 122.752 501.484 123.086 501.677L127.257 504.085Z" fill="white"/>
<circle cx="145.022" cy="511.135" r="4.72628" fill="#939393" fill-opacity="0.1"/>
<circle cx="211.19" cy="511.135" r="4.72628" fill="#939393" fill-opacity="0.1"/>
<circle cx="298.153" cy="511.135" r="4.72628" fill="#939393" fill-opacity="0.1"/>
<rect x="153.529" y="509.245" width="27.4124" height="4.72628" rx="2.36314" fill="#939393" fill-opacity="0.1"/>
<rect x="221.587" y="509.245" width="47.2628" height="4.72628" rx="2.36314" fill="#544EF3" fill-opacity="0.5"/>
<rect x="308.551" y="509.245" width="47.2628" height="4.72628" rx="2.36314" fill="#939393" fill-opacity="0.1"/>
<rect x="370.938" y="513.026" width="76.5657" height="1.89051" rx="0.945255" fill="#939393" fill-opacity="0.1"/>
<rect x="370.938" y="513.026" width="26.4672" height="1.89051" rx="0.945255" fill="#2F80ED" fill-opacity="0.5"/>
<rect x="468.299" y="494.12" width="59.5511" height="20.7956" rx="4" fill="#EDECFF"/>
<rect x="488.15" y="501.682" width="34.0292" height="4.72628" rx="2.36314" fill="#544EF3" fill-opacity="0.5"/>
<circle cx="479.642" cy="504.518" r="4.72628" fill="#544EF3" fill-opacity="0.5"/>
</g>
<defs>
<filter id="filter0_d_0_9" x="0.645996" y="0" width="796.354" height="578" filterUnits="userSpaceOnUse" color-interpolation-filters="sRGB">
<feFlood flood-opacity="0" result="BackgroundImageFix"/>
<feColorMatrix in="SourceAlpha" type="matrix" values="0 0 0 0 0 0 0 0 0 0 0 0 0 0 0 0 0 0 127 0" result="hardAlpha"/>
<feOffset/>
<feGaussianBlur stdDeviation="15"/>
<feComposite in2="hardAlpha" operator="out"/>
<feColorMatrix type="matrix" values="0 0 0 0 0.506979 0 0 0 0 0.545268 0 0 0 0 0.775 0 0 0 0.25 0"/>
<feBlend mode="normal" in2="BackgroundImageFix" result="effect1_dropShadow_0_9"/>
<feBlend mode="normal" in="SourceGraphic" in2="effect1_dropShadow_0_9" result="shape"/>
</filter>
</defs>
</svg>
