<svg width="24" height="24" viewBox="0 0 24 24" fill="none" xmlns="http://www.w3.org/2000/svg">
<rect width="24" height="24" rx="12" fill="#0077B5"/>
<path d="M16.2956 17.6842H18.9475V12.4787C18.9475 9.90784 17.3484 9.03098 15.8687 9.03098C14.5004 9.03098 13.5709 9.91555 13.3143 10.4337V9.26754H10.7639V17.6842H13.4158V13.121C13.4158 11.9043 14.1872 11.3125 14.9741 11.3125C15.7184 11.3125 16.2956 11.7308 16.2956 13.0872V17.6842Z" fill="white"/>
<path d="M6.31592 6.57406C6.31592 7.45275 7.00043 8.09489 7.84479 8.09489C8.68928 8.09489 9.37379 7.45275 9.37379 6.57406C9.37379 5.69548 8.68928 5.05261 7.84479 5.05261C7.00043 5.05261 6.31592 5.69548 6.31592 6.57406Z" fill="white"/>
<path d="M6.5189 17.6777H9.17069V9.26106H6.5189V17.6777Z" fill="white"/>
</svg>
