<svg width="176" height="36" viewBox="0 0 176 36" fill="none" xmlns="http://www.w3.org/2000/svg">
<path fill-rule="evenodd" clip-rule="evenodd" d="M11.0326 20C11.0728 19.4719 11.0932 18.9384 11.0932 18.4C11.0932 17.5883 11.0467 16.7875 10.9562 16H21.8574L27.086 20H11.0326ZM8.74981 28C9.4081 26.7371 9.94057 25.3983 10.3306 24H32.3145L37.543 28H8.74981ZM5.30173 4C3.76631 2.40026 1.97757 1.04544 0 0H0.943396L6.17191 4H5.30173ZM10.0899 12C9.63608 10.5954 9.03692 9.25619 8.31014 8H11.4004L16.6289 12H10.0899ZM1.38196 36C3.12295 34.9008 4.68952 33.5505 6.03077 32H42.7715L48 36H1.38196Z" fill="url(#paint0_linear_0_463)"/>
<path fill-rule="evenodd" clip-rule="evenodd" d="M53 0H4L9.22706 4H47.6997C49.2347 2.40026 51.023 1.04544 53 0ZM44.6922 8H14.4541L19.6812 12H42.9129C43.3666 10.5954 43.9656 9.25619 44.6922 8ZM42.0468 16H24.9082L30.1353 20H41.9705C41.9303 19.4719 41.9098 18.9384 41.9098 18.4C41.9098 17.5883 41.9563 16.7875 42.0468 16ZM42.6723 24H35.3624L40.5894 28H44.2526C43.5945 26.7371 43.0622 25.3983 42.6723 24ZM46.9709 32H45.8165L51.0435 36H51.6184C49.8779 34.9008 48.3118 33.5505 46.9709 32Z" fill="#B81A20"/>
<path d="M74.6761 30C73.0506 30 71.594 29.7334 70.3064 29.2003C69.0187 28.6671 67.9843 27.8781 67.2032 26.8331C66.626 26.0394 66.2558 25.1226 66.0927 24.0828C66.0053 23.526 66.4656 23.0584 67.0291 23.0584H70.8593C71.3725 23.0584 71.7816 23.4559 71.9518 23.94C72.0988 24.3578 72.3208 24.7037 72.6179 24.9777C73.1034 25.4043 73.7367 25.6175 74.5177 25.6175C75.3199 25.6175 75.9532 25.4363 76.4176 25.0737C76.882 24.6898 77.1142 24.1674 77.1142 23.5063C77.1142 22.9518 76.9242 22.4933 76.5443 22.1307C76.1854 21.7682 75.7315 21.4696 75.1827 21.235C74.6549 21.0005 73.895 20.7339 72.9028 20.4353C71.4674 19.9875 70.2958 19.5396 69.3881 19.0918C68.4804 18.644 67.6993 17.9828 67.0449 17.1085C66.3905 16.2341 66.0633 15.0932 66.0633 13.6857C66.0633 11.5957 66.8127 9.9643 68.3115 8.79138C69.8103 7.59713 71.7629 7 74.1694 7C76.6181 7 78.5919 7.59713 80.0907 8.79138C81.3325 9.76323 82.0961 11.0572 82.3815 12.6732C82.4809 13.2364 82.0178 13.7177 81.4459 13.7177H77.5827C77.053 13.7177 76.6447 13.2876 76.4331 12.802C76.3003 12.4971 76.1052 12.2372 75.8476 12.0223C75.3621 11.5957 74.7394 11.3825 73.9794 11.3825C73.325 11.3825 72.7973 11.5637 72.3962 11.9263C71.9951 12.2675 71.7946 12.7687 71.7946 13.4298C71.7946 14.1548 72.1323 14.72 72.8079 15.1252C73.4834 15.5304 74.5388 15.9675 75.9743 16.4367C77.4097 16.9272 78.5708 17.3964 79.4574 17.8442C80.3651 18.2921 81.1462 18.9425 81.8006 19.7956C82.4549 20.6486 82.7821 21.7469 82.7821 23.0904C82.7821 24.37 82.4549 25.5322 81.8006 26.5772C81.1673 27.6222 80.2384 28.4539 79.0141 29.0723C77.7897 29.6908 76.3437 30 74.6761 30Z" fill="url(#paint1_linear_0_463)"/>
<path d="M99.5471 26.4916C99.4105 26.0841 99.0288 25.8095 98.599 25.8095H91.7418C91.312 25.8095 90.9302 26.0841 90.7936 26.4916L89.9211 29.094C89.7845 29.5015 89.4028 29.7761 88.973 29.7761H85.4448C84.7529 29.7761 84.2701 29.0903 84.5034 28.4389L91.8299 7.98271C91.9722 7.58515 92.349 7.31989 92.7713 7.31989H97.6328C98.055 7.31989 98.4318 7.58515 98.5742 7.98271L105.901 28.4389C106.134 29.0903 105.651 29.7761 104.959 29.7761H101.368C100.938 29.7761 100.556 29.5015 100.42 29.094L99.5471 26.4916ZM96.5354 21.5869C97.2187 21.5869 97.7007 20.917 97.4836 20.2692L96.124 16.2118C95.8186 15.3004 94.5288 15.3027 94.2266 16.2151L92.8826 20.2725C92.6682 20.9197 93.1501 21.5869 93.8319 21.5869H96.5354Z" fill="url(#paint2_linear_0_463)"/>
<path d="M125.135 14.5494C125.135 15.8503 124.839 17.0445 124.248 18.1321C123.657 19.1984 122.749 20.0621 121.525 20.7232C120.3 21.3843 118.781 21.7149 116.965 21.7149H114.609C114.056 21.7149 113.609 22.1626 113.609 22.7149V28.7761C113.609 29.3284 113.161 29.7761 112.609 29.7761H109.194C108.642 29.7761 108.194 29.3284 108.194 28.7761V8.31989C108.194 7.7676 108.642 7.31989 109.194 7.31989H116.965C118.738 7.31989 120.237 7.62911 121.461 8.24757C122.686 8.86602 123.604 9.71905 124.216 10.8067C124.828 11.8943 125.135 13.1419 125.135 14.5494ZM116.554 17.3644C117.588 17.3644 118.358 17.1191 118.865 16.6287C119.372 16.1382 119.625 15.4451 119.625 14.5494C119.625 13.6537 119.372 12.9606 118.865 12.4701C118.358 11.9796 117.588 11.7344 116.554 11.7344H114.609C114.056 11.7344 113.609 12.1821 113.609 12.7344V16.3644C113.609 16.9167 114.056 17.3644 114.609 17.3644H116.554Z" fill="url(#paint3_linear_0_463)"/>
<path d="M145.572 7.31989C146.124 7.31989 146.572 7.7676 146.572 8.31989V28.7761C146.572 29.3284 146.124 29.7761 145.572 29.7761H142.158C141.605 29.7761 141.158 29.3284 141.158 28.7761V21.5313C141.158 20.979 140.71 20.5313 140.158 20.5313H133.735C133.182 20.5313 132.735 20.979 132.735 21.5313V28.7761C132.735 29.3284 132.287 29.7761 131.735 29.7761H128.32C127.768 29.7761 127.32 29.3284 127.32 28.7761V8.31989C127.32 7.7676 127.768 7.31989 128.32 7.31989H131.735C132.287 7.31989 132.735 7.7676 132.735 8.31989V15.1168C132.735 15.6691 133.182 16.1168 133.735 16.1168H140.158C140.71 16.1168 141.158 15.6691 141.158 15.1168V8.31989C141.158 7.7676 141.605 7.31989 142.158 7.31989H145.572Z" fill="url(#paint4_linear_0_463)"/>
<path d="M154.262 7.31989C154.815 7.31989 155.262 7.7676 155.262 8.31989V28.7761C155.262 29.3284 154.815 29.7761 154.262 29.7761H150.848C150.295 29.7761 149.848 29.3284 149.848 28.7761V8.31989C149.848 7.7676 150.295 7.31989 150.848 7.31989H154.262Z" fill="url(#paint5_linear_0_463)"/>
<path d="M170.482 29.7761C170.116 29.7761 169.78 29.5762 169.605 29.2549L165.497 21.7236C165.355 21.4619 165.08 21.299 164.782 21.299C164.332 21.299 163.968 21.6637 163.968 22.1136V28.7761C163.968 29.3284 163.52 29.7761 162.968 29.7761H159.553C159.001 29.7761 158.553 29.3284 158.553 28.7761V8.31989C158.553 7.7676 159.001 7.31989 159.553 7.31989H167.641C169.393 7.31989 170.881 7.62911 172.105 8.24757C173.351 8.86602 174.28 9.71905 174.892 10.8067C175.504 11.873 175.81 13.0672 175.81 14.3894C175.81 15.8822 175.388 17.2151 174.543 18.388C173.933 19.2583 173.101 19.9407 172.048 20.4353C171.465 20.7094 171.179 21.4175 171.501 21.9758L175.135 28.2764C175.52 28.9431 175.038 29.7761 174.269 29.7761H170.482ZM163.968 16.4284C163.968 16.9807 164.415 17.4284 164.968 17.4284H167.324C168.316 17.4284 169.055 17.1831 169.54 16.6926C170.047 16.2021 170.3 15.509 170.3 14.6134C170.3 13.7603 170.047 13.0885 169.54 12.5981C169.055 12.1076 168.316 11.8623 167.324 11.8623H164.968C164.415 11.8623 163.968 12.31 163.968 12.8623V16.4284Z" fill="url(#paint6_linear_0_463)"/>
<defs>
<linearGradient id="paint0_linear_0_463" x1="24" y1="0" x2="24" y2="36" gradientUnits="userSpaceOnUse">
<stop stop-color="#264492"/>
<stop offset="1" stop-color="#3B5FBB"/>
</linearGradient>
<linearGradient id="paint1_linear_0_463" x1="121.033" y1="-5.41168" x2="121.033" y2="42.5716" gradientUnits="userSpaceOnUse">
<stop stop-color="#29448A"/>
<stop offset="1" stop-color="#3C6ADF"/>
</linearGradient>
<linearGradient id="paint2_linear_0_463" x1="121.033" y1="-5.41168" x2="121.033" y2="42.5716" gradientUnits="userSpaceOnUse">
<stop stop-color="#29448A"/>
<stop offset="1" stop-color="#3C6ADF"/>
</linearGradient>
<linearGradient id="paint3_linear_0_463" x1="121.033" y1="-5.41168" x2="121.033" y2="42.5716" gradientUnits="userSpaceOnUse">
<stop stop-color="#29448A"/>
<stop offset="1" stop-color="#3C6ADF"/>
</linearGradient>
<linearGradient id="paint4_linear_0_463" x1="121.033" y1="-5.41168" x2="121.033" y2="42.5716" gradientUnits="userSpaceOnUse">
<stop stop-color="#29448A"/>
<stop offset="1" stop-color="#3C6ADF"/>
</linearGradient>
<linearGradient id="paint5_linear_0_463" x1="121.033" y1="-5.41168" x2="121.033" y2="42.5716" gradientUnits="userSpaceOnUse">
<stop stop-color="#29448A"/>
<stop offset="1" stop-color="#3C6ADF"/>
</linearGradient>
<linearGradient id="paint6_linear_0_463" x1="121.033" y1="-5.41168" x2="121.033" y2="42.5716" gradientUnits="userSpaceOnUse">
<stop stop-color="#29448A"/>
<stop offset="1" stop-color="#3C6ADF"/>
</linearGradient>
</defs>
</svg>
