<svg width="105" height="105" viewBox="0 0 105 105" fill="none" xmlns="http://www.w3.org/2000/svg">
<rect x="17.4238" y="17.4241" width="69.6961" height="69.6961" rx="34.8481" fill="#A9A6F9"/>
<path d="M52.7211 47.7482C58.6646 47.7482 63.4828 46.1421 63.4828 44.1609C63.4828 42.1798 58.6646 40.5737 52.7211 40.5737C46.7776 40.5737 41.9595 42.1798 41.9595 44.1609C41.9595 46.1421 46.7776 47.7482 52.7211 47.7482Z" stroke="#F8F8FA" stroke-width="1.66667" stroke-linecap="round" stroke-linejoin="round"/>
<path d="M63.4818 52.5312C63.4818 54.5162 58.6988 56.1185 52.7202 56.1185C46.7415 56.1185 41.9585 54.5162 41.9585 52.5312" stroke="#F8F8FA" stroke-width="1.66667" stroke-linecap="round" stroke-linejoin="round"/>
<path d="M41.9585 44.1611V60.9015C41.9585 62.8864 46.7415 64.4887 52.7202 64.4887C58.6988 64.4887 63.4818 62.8864 63.4818 60.9015V44.1611" stroke="#F8F8FA" stroke-width="1.66667" stroke-linecap="round" stroke-linejoin="round"/>
</svg>
