<svg width="146" height="189" viewBox="0 0 146 189" fill="none" xmlns="http://www.w3.org/2000/svg">
<g clip-path="url(#clip0_0_342)">
<rect y="0.69104" width="146" height="188" rx="10" fill="#3459B8"/>
<circle cx="3.83936" cy="169.194" r="79" fill="#375FC6"/>
<circle cx="161.158" cy="6.11206" r="79" fill="#375FC6"/>
<circle opacity="0.5" cx="43.0713" cy="24.5074" r="14" fill="white"/>
<circle opacity="0.5" cx="26.438" cy="24.5074" r="14" fill="white"/>
<path d="M18.0795 76.691H17.0227C16.9602 76.3871 16.8509 76.12 16.6946 75.8899C16.5412 75.6598 16.3537 75.4666 16.1321 75.3104C15.9134 75.1513 15.6705 75.0319 15.4034 74.9524C15.1364 74.8729 14.858 74.8331 14.5682 74.8331C14.0398 74.8331 13.5611 74.9666 13.1321 75.2337C12.706 75.5007 12.3665 75.8942 12.1136 76.4141C11.8636 76.9339 11.7386 77.5717 11.7386 78.3274C11.7386 79.0831 11.8636 79.7209 12.1136 80.2408C12.3665 80.7606 12.706 81.1541 13.1321 81.4212C13.5611 81.6882 14.0398 81.8217 14.5682 81.8217C14.858 81.8217 15.1364 81.7819 15.4034 81.7024C15.6705 81.6229 15.9134 81.505 16.1321 81.3487C16.3537 81.1896 16.5412 80.995 16.6946 80.7649C16.8509 80.5319 16.9602 80.2649 17.0227 79.9638H18.0795C18 80.4098 17.8551 80.8089 17.6449 81.1612C17.4347 81.5135 17.1733 81.8132 16.8608 82.0604C16.5483 82.3047 16.1974 82.4908 15.8082 82.6186C15.4219 82.7464 15.0085 82.8104 14.5682 82.8104C13.8239 82.8104 13.1619 82.6285 12.5824 82.2649C12.0028 81.9013 11.5469 81.3842 11.2145 80.7138C10.8821 80.0433 10.7159 79.2479 10.7159 78.3274C10.7159 77.4069 10.8821 76.6115 11.2145 75.941C11.5469 75.2706 12.0028 74.7535 12.5824 74.3899C13.1619 74.0263 13.8239 73.8444 14.5682 73.8444C15.0085 73.8444 15.4219 73.9084 15.8082 74.0362C16.1974 74.1641 16.5483 74.3516 16.8608 74.5987C17.1733 74.843 17.4347 75.1413 17.6449 75.4936C17.8551 75.843 18 76.2422 18.0795 76.691ZM19.6509 82.691V76.1456H20.6225V77.1342H20.6907C20.81 76.8104 21.0259 76.5476 21.3384 76.3459C21.6509 76.1442 22.0032 76.0433 22.3952 76.0433C22.4691 76.0433 22.5614 76.0447 22.6722 76.0476C22.783 76.0504 22.8668 76.0547 22.9237 76.0604V77.0831C22.8896 77.0746 22.8114 77.0618 22.6893 77.0447C22.57 77.0248 22.4435 77.0149 22.31 77.0149C21.9918 77.0149 21.7077 77.0817 21.4577 77.2152C21.2106 77.3459 21.0146 77.5277 20.8697 77.7606C20.7276 77.9908 20.6566 78.2535 20.6566 78.549V82.691H19.6509ZM26.6609 82.8274C26.0302 82.8274 25.4862 82.6882 25.0288 82.4098C24.5742 82.1285 24.2234 81.7365 23.9762 81.2337C23.7319 80.728 23.6097 80.1399 23.6097 79.4694C23.6097 78.799 23.7319 78.2081 23.9762 77.6967C24.2234 77.1825 24.5671 76.7819 25.0075 76.495C25.4506 76.2052 25.9677 76.0604 26.5586 76.0604C26.8995 76.0604 27.2362 76.1172 27.5685 76.2308C27.9009 76.3444 28.2035 76.5291 28.4762 76.7848C28.7489 77.0376 28.9663 77.3729 29.1282 77.7905C29.2901 78.2081 29.3711 78.7223 29.3711 79.3331V79.7592H24.3256V78.8899H28.3484C28.3484 78.5206 28.2745 78.191 28.1268 77.9013C27.9819 77.6115 27.7745 77.3828 27.5046 77.2152C27.2376 77.0476 26.9222 76.9638 26.5586 76.9638C26.158 76.9638 25.8114 77.0632 25.5188 77.2621C25.229 77.4581 25.006 77.7138 24.8498 78.0291C24.6935 78.3444 24.6154 78.6825 24.6154 79.0433V79.6229C24.6154 80.1172 24.7006 80.5362 24.8711 80.88C25.0444 81.2209 25.2844 81.4808 25.5913 81.6598C25.8981 81.8359 26.2546 81.924 26.6609 81.924C26.9251 81.924 27.1637 81.8871 27.3768 81.8132C27.5927 81.7365 27.7788 81.6229 27.935 81.4723C28.0913 81.3189 28.212 81.1285 28.2972 80.9013L29.2688 81.174C29.1665 81.5035 28.9947 81.7933 28.7532 82.0433C28.5117 82.2905 28.2134 82.4837 27.8583 82.6229C27.5032 82.7592 27.104 82.8274 26.6609 82.8274ZM32.8271 82.8444C32.4123 82.8444 32.0359 82.7663 31.6978 82.6101C31.3597 82.451 31.0913 82.2223 30.8924 81.924C30.6935 81.6229 30.5941 81.2592 30.5941 80.8331C30.5941 80.4581 30.668 80.1541 30.8157 79.9212C30.9634 79.6854 31.1609 79.5007 31.408 79.3672C31.6552 79.2337 31.9279 79.1342 32.2262 79.0689C32.5273 79.0007 32.8299 78.9467 33.1339 78.9069C33.5316 78.8558 33.854 78.8175 34.1012 78.7919C34.3512 78.7635 34.533 78.7166 34.6467 78.6513C34.7631 78.5859 34.8214 78.4723 34.8214 78.3104V78.2763C34.8214 77.8558 34.7063 77.5291 34.4762 77.2962C34.2489 77.0632 33.9038 76.9467 33.4407 76.9467C32.9606 76.9467 32.5842 77.0518 32.3114 77.2621C32.0387 77.4723 31.8469 77.6967 31.7362 77.9354L30.7816 77.5944C30.9521 77.1967 31.1793 76.8871 31.4634 76.6655C31.7504 76.441 32.0629 76.2848 32.4009 76.1967C32.7418 76.1058 33.0771 76.0604 33.4066 76.0604C33.6168 76.0604 33.8583 76.0859 34.131 76.1371C34.4066 76.1854 34.6722 76.2862 34.9279 76.4396C35.1864 76.593 35.4009 76.8246 35.5714 77.1342C35.7418 77.4439 35.8271 77.8587 35.8271 78.3785V82.691H34.8214V81.8047H34.7702C34.7021 81.9467 34.5884 82.0987 34.4293 82.2606C34.2702 82.4226 34.0586 82.5604 33.7944 82.674C33.5302 82.7876 33.2077 82.8444 32.8271 82.8444ZM32.9805 81.941C33.3782 81.941 33.7134 81.8629 33.9862 81.7067C34.2617 81.5504 34.4691 81.3487 34.6083 81.1016C34.7504 80.8544 34.8214 80.5944 34.8214 80.3217V79.4013C34.7788 79.4524 34.685 79.4993 34.5401 79.5419C34.3981 79.5817 34.2333 79.6172 34.0458 79.6484C33.8612 79.6768 33.6808 79.7024 33.5046 79.7251C33.3313 79.745 33.1907 79.7621 33.0827 79.7763C32.8214 79.8104 32.5771 79.8658 32.3498 79.9425C32.1254 80.0163 31.9435 80.1285 31.8043 80.2791C31.668 80.4268 31.5998 80.6285 31.5998 80.8842C31.5998 81.2337 31.729 81.4979 31.9876 81.6768C32.2489 81.853 32.5799 81.941 32.9805 81.941ZM40.1342 82.8274C39.5888 82.8274 39.1072 82.6896 38.6896 82.4141C38.272 82.1356 37.9453 81.7436 37.7095 81.2379C37.4737 80.7294 37.3558 80.1285 37.3558 79.4354C37.3558 78.7479 37.4737 78.1513 37.7095 77.6456C37.9453 77.1399 38.2734 76.7493 38.6939 76.4737C39.1143 76.1981 39.6001 76.0604 40.1513 76.0604C40.5774 76.0604 40.9141 76.1314 41.1612 76.2734C41.4112 76.4126 41.6016 76.5717 41.7322 76.7507C41.8658 76.9268 41.9695 77.0717 42.0433 77.1854H42.1286V73.9638H43.1342V82.691H42.1626V81.6854H42.0433C41.9695 81.8047 41.8643 81.9552 41.728 82.1371C41.5916 82.316 41.397 82.4766 41.1442 82.6186C40.8913 82.7578 40.5547 82.8274 40.1342 82.8274ZM40.2706 81.924C40.674 81.924 41.0149 81.8189 41.2933 81.6087C41.5717 81.3956 41.7834 81.1016 41.9283 80.7266C42.0732 80.3487 42.1456 79.9126 42.1456 79.4183C42.1456 78.9297 42.0746 78.5021 41.9325 78.1356C41.7905 77.7663 41.5803 77.4794 41.3018 77.2748C41.0234 77.0675 40.6797 76.9638 40.2706 76.9638C39.8445 76.9638 39.4893 77.0731 39.2053 77.2919C38.924 77.5078 38.7124 77.8018 38.5703 78.174C38.4311 78.5433 38.3615 78.9581 38.3615 79.4183C38.3615 79.8842 38.4325 80.3075 38.5746 80.6882C38.7195 81.066 38.9325 81.3672 39.2138 81.5916C39.4979 81.8132 39.8501 81.924 40.2706 81.924ZM45.1158 82.691V76.1456H46.1214V82.691H45.1158ZM45.6271 75.0547C45.4311 75.0547 45.2621 74.9879 45.12 74.8544C44.9808 74.7209 44.9112 74.5604 44.9112 74.3729C44.9112 74.1854 44.9808 74.0248 45.12 73.8913C45.2621 73.7578 45.4311 73.691 45.6271 73.691C45.8232 73.691 45.9908 73.7578 46.13 73.8913C46.272 74.0248 46.343 74.1854 46.343 74.3729C46.343 74.5604 46.272 74.7209 46.13 74.8544C45.9908 74.9879 45.8232 75.0547 45.6271 75.0547ZM50.81 76.1456V76.9979H47.418V76.1456H50.81ZM48.4066 74.5774H49.4123V80.816C49.4123 81.1001 49.4535 81.3132 49.5359 81.4552C49.6211 81.5944 49.729 81.6882 49.8597 81.7365C49.9933 81.7819 50.1339 81.8047 50.2816 81.8047C50.3924 81.8047 50.4833 81.799 50.5543 81.7876C50.6254 81.7734 50.6822 81.7621 50.7248 81.7535L50.9293 82.6569C50.8612 82.6825 50.766 82.7081 50.6438 82.7337C50.5217 82.7621 50.3668 82.7763 50.1793 82.7763C49.8952 82.7763 49.6168 82.7152 49.3441 82.593C49.0742 82.4709 48.8498 82.2848 48.6708 82.0348C48.4947 81.7848 48.4066 81.4694 48.4066 81.0888V74.5774ZM62.8569 76.691H61.8001C61.7376 76.3871 61.6282 76.12 61.4719 75.8899C61.3185 75.6598 61.131 75.4666 60.9094 75.3104C60.6907 75.1513 60.4478 75.0319 60.1808 74.9524C59.9137 74.8729 59.6353 74.8331 59.3455 74.8331C58.8171 74.8331 58.3384 74.9666 57.9094 75.2337C57.4833 75.5007 57.1438 75.8942 56.891 76.4141C56.641 76.9339 56.516 77.5717 56.516 78.3274C56.516 79.0831 56.641 79.7209 56.891 80.2408C57.1438 80.7606 57.4833 81.1541 57.9094 81.4212C58.3384 81.6882 58.8171 81.8217 59.3455 81.8217C59.6353 81.8217 59.9137 81.7819 60.1808 81.7024C60.4478 81.6229 60.6907 81.505 60.9094 81.3487C61.131 81.1896 61.3185 80.995 61.4719 80.7649C61.6282 80.5319 61.7376 80.2649 61.8001 79.9638H62.8569C62.7773 80.4098 62.6325 80.8089 62.4222 81.1612C62.212 81.5135 61.9506 81.8132 61.6381 82.0604C61.3256 82.3047 60.9748 82.4908 60.5856 82.6186C60.1992 82.7464 59.7859 82.8104 59.3455 82.8104C58.6012 82.8104 57.9393 82.6285 57.3597 82.2649C56.7802 81.9013 56.3242 81.3842 55.9918 80.7138C55.6594 80.0433 55.4933 79.2479 55.4933 78.3274C55.4933 77.4069 55.6594 76.6115 55.9918 75.941C56.3242 75.2706 56.7802 74.7535 57.3597 74.3899C57.9393 74.0263 58.6012 73.8444 59.3455 73.8444C59.7859 73.8444 60.1992 73.9084 60.5856 74.0362C60.9748 74.1641 61.3256 74.3516 61.6381 74.5987C61.9506 74.843 62.212 75.1413 62.4222 75.4936C62.6325 75.843 62.7773 76.2422 62.8569 76.691ZM64.4283 82.691V76.1456H65.3999V77.1342H65.468C65.5874 76.8104 65.8033 76.5476 66.1158 76.3459C66.4283 76.1442 66.7805 76.0433 67.1726 76.0433C67.2464 76.0433 67.3388 76.0447 67.4496 76.0476C67.5604 76.0504 67.6442 76.0547 67.701 76.0604V77.0831C67.6669 77.0746 67.5888 77.0618 67.4666 77.0447C67.3473 77.0248 67.2209 77.0149 67.0874 77.0149C66.7692 77.0149 66.4851 77.0817 66.2351 77.2152C65.9879 77.3459 65.7919 77.5277 65.647 77.7606C65.505 77.9908 65.4339 78.2535 65.4339 78.549V82.691H64.4283ZM70.8192 82.8444C70.4045 82.8444 70.0281 82.7663 69.69 82.6101C69.3519 82.451 69.0835 82.2223 68.8846 81.924C68.6857 81.6229 68.5863 81.2592 68.5863 80.8331C68.5863 80.4581 68.6602 80.1541 68.8079 79.9212C68.9556 79.6854 69.1531 79.5007 69.4002 79.3672C69.6474 79.2337 69.9201 79.1342 70.2184 79.0689C70.5195 79.0007 70.8221 78.9467 71.1261 78.9069C71.5238 78.8558 71.8462 78.8175 72.0934 78.7919C72.3434 78.7635 72.5252 78.7166 72.6388 78.6513C72.7553 78.5859 72.8136 78.4723 72.8136 78.3104V78.2763C72.8136 77.8558 72.6985 77.5291 72.4684 77.2962C72.2411 77.0632 71.896 76.9467 71.4329 76.9467C70.9528 76.9467 70.5763 77.0518 70.3036 77.2621C70.0309 77.4723 69.8391 77.6967 69.7283 77.9354L68.7738 77.5944C68.9442 77.1967 69.1715 76.8871 69.4556 76.6655C69.7425 76.441 70.055 76.2848 70.3931 76.1967C70.734 76.1058 71.0692 76.0604 71.3988 76.0604C71.609 76.0604 71.8505 76.0859 72.1232 76.1371C72.3988 76.1854 72.6644 76.2862 72.9201 76.4396C73.1786 76.593 73.3931 76.8246 73.5636 77.1342C73.734 77.4439 73.8192 77.8587 73.8192 78.3785V82.691H72.8136V81.8047H72.7624C72.6942 81.9467 72.5806 82.0987 72.4215 82.2606C72.2624 82.4226 72.0508 82.5604 71.7866 82.674C71.5224 82.7876 71.1999 82.8444 70.8192 82.8444ZM70.9727 81.941C71.3704 81.941 71.7056 81.8629 71.9783 81.7067C72.2539 81.5504 72.4613 81.3487 72.6005 81.1016C72.7425 80.8544 72.8136 80.5944 72.8136 80.3217V79.4013C72.771 79.4524 72.6772 79.4993 72.5323 79.5419C72.3903 79.5817 72.2255 79.6172 72.038 79.6484C71.8533 79.6768 71.6729 79.7024 71.4968 79.7251C71.3235 79.745 71.1829 79.7621 71.0749 79.7763C70.8136 79.8104 70.5692 79.8658 70.342 79.9425C70.1175 80.0163 69.9357 80.1285 69.7965 80.2791C69.6602 80.4268 69.592 80.6285 69.592 80.8842C69.592 81.2337 69.7212 81.4979 69.9798 81.6768C70.2411 81.853 70.5721 81.941 70.9727 81.941ZM78.1264 82.8274C77.581 82.8274 77.0994 82.6896 76.6818 82.4141C76.2642 82.1356 75.9375 81.7436 75.7017 81.2379C75.4659 80.7294 75.348 80.1285 75.348 79.4354C75.348 78.7479 75.4659 78.1513 75.7017 77.6456C75.9375 77.1399 76.2656 76.7493 76.6861 76.4737C77.1065 76.1981 77.5923 76.0604 78.1435 76.0604C78.5696 76.0604 78.9063 76.1314 79.1534 76.2734C79.4034 76.4126 79.5938 76.5717 79.7244 76.7507C79.858 76.9268 79.9616 77.0717 80.0355 77.1854H80.1207V73.9638H81.1264V82.691H80.1548V81.6854H80.0355C79.9616 81.8047 79.8565 81.9552 79.7202 82.1371C79.5838 82.316 79.3892 82.4766 79.1364 82.6186C78.8835 82.7578 78.5469 82.8274 78.1264 82.8274ZM78.2628 81.924C78.6662 81.924 79.0071 81.8189 79.2855 81.6087C79.5639 81.3956 79.7756 81.1016 79.9205 80.7266C80.0653 80.3487 80.1378 79.9126 80.1378 79.4183C80.1378 78.9297 80.0668 78.5021 79.9247 78.1356C79.7827 77.7663 79.5724 77.4794 79.294 77.2748C79.0156 77.0675 78.6719 76.9638 78.2628 76.9638C77.8366 76.9638 77.4815 77.0731 77.1974 77.2919C76.9162 77.5078 76.7045 77.8018 76.5625 78.174C76.4233 78.5433 76.3537 78.9581 76.3537 79.4183C76.3537 79.8842 76.4247 80.3075 76.5668 80.6882C76.7116 81.066 76.9247 81.3672 77.206 81.5916C77.4901 81.8132 77.8423 81.924 78.2628 81.924Z" fill="#E6E6E6"/>
<circle cx="11.9995" cy="97.691" r="2" fill="#D9D9D9"/>
<circle cx="22.9995" cy="97.691" r="2" fill="#D9D9D9"/>
<circle cx="33.9995" cy="97.691" r="2" fill="#D9D9D9"/>
<circle cx="44.999" cy="97.6912" r="2" fill="#D9D9D9"/>
<path d="M61.9711 92.9638V101.691H60.9143V94.0717H60.8631L58.7325 95.4865V94.4126L60.9143 92.9638H61.9711ZM64.481 101.691V100.924L67.3617 97.7706C67.6998 97.4013 67.9782 97.0802 68.197 96.8075C68.4157 96.5319 68.5776 96.2734 68.6828 96.0319C68.7907 95.7876 68.8447 95.5319 68.8447 95.2649C68.8447 94.9581 68.7708 94.6925 68.6231 94.468C68.4782 94.2436 68.2793 94.0703 68.0265 93.9481C67.7737 93.826 67.4896 93.7649 67.1742 93.7649C66.839 93.7649 66.5464 93.8345 66.2964 93.9737C66.0492 94.1101 65.8575 94.3018 65.7211 94.549C65.5876 94.7962 65.5208 95.0859 65.5208 95.4183H64.5151C64.5151 94.9069 64.633 94.4581 64.8688 94.0717C65.1046 93.6854 65.4256 93.3842 65.8319 93.1683C66.241 92.9524 66.6998 92.8444 67.2083 92.8444C67.7197 92.8444 68.1728 92.9524 68.5677 93.1683C68.9626 93.3842 69.2722 93.6754 69.4967 94.0419C69.7211 94.4084 69.8333 94.816 69.8333 95.2649C69.8333 95.5859 69.7751 95.8998 69.6586 96.2067C69.545 96.5106 69.3461 96.8501 69.062 97.2251C68.7808 97.5973 68.3901 98.0518 67.8901 98.5888L65.9299 100.685V100.754H69.9867V101.691H64.481ZM74.6955 101.81C74.133 101.81 73.6316 101.714 73.1913 101.521C72.7538 101.327 72.4058 101.059 72.1472 100.715C71.8916 100.369 71.7524 99.9666 71.7296 99.5092H72.8035C72.8262 99.7905 72.9228 100.033 73.0933 100.238C73.2637 100.44 73.4867 100.596 73.7623 100.707C74.0379 100.817 74.3433 100.873 74.6785 100.873C75.0535 100.873 75.3859 100.808 75.6756 100.677C75.9654 100.546 76.1927 100.364 76.3575 100.131C76.5222 99.8984 76.6046 99.6285 76.6046 99.3217C76.6046 99.0007 76.5251 98.718 76.366 98.4737C76.2069 98.2266 75.9739 98.0334 75.6671 97.8942C75.3603 97.755 74.9853 97.6854 74.5421 97.6854H73.8433V96.7479H74.5421C74.8887 96.7479 75.1927 96.6854 75.4541 96.5604C75.7183 96.4354 75.9242 96.2592 76.072 96.0319C76.2225 95.8047 76.2978 95.5376 76.2978 95.2308C76.2978 94.9354 76.2325 94.6783 76.1018 94.4595C75.9711 94.2408 75.7864 94.0703 75.5478 93.9481C75.312 93.826 75.0336 93.7649 74.7126 93.7649C74.4114 93.7649 74.1274 93.8203 73.8603 93.9311C73.5961 94.0391 73.3802 94.1967 73.2126 94.4041C73.045 94.6087 72.9541 94.8558 72.9399 95.1456H71.9171C71.9342 94.6882 72.072 94.2876 72.3305 93.9439C72.589 93.5973 72.9271 93.3274 73.3447 93.1342C73.7651 92.941 74.2268 92.8444 74.7296 92.8444C75.2694 92.8444 75.7325 92.9538 76.1188 93.1726C76.5052 93.3885 76.8021 93.674 77.0095 94.0291C77.2168 94.3842 77.3205 94.7677 77.3205 95.1797C77.3205 95.6712 77.1913 96.0902 76.9328 96.4368C76.6771 96.7834 76.3291 97.0234 75.8887 97.1569V97.2251C76.4399 97.316 76.8703 97.5504 77.1799 97.9283C77.4896 98.3033 77.6444 98.7677 77.6444 99.3217C77.6444 99.7962 77.5151 100.222 77.2566 100.6C77.0009 100.975 76.6515 101.271 76.2083 101.486C75.7651 101.702 75.2609 101.81 74.6955 101.81ZM79.1828 99.9013V99.0319L83.018 92.9638H83.6487V94.3104H83.2225L80.3248 98.8956V98.9638H85.4896V99.9013H79.1828ZM83.2907 101.691V99.6371V99.2322V92.9638H84.2964V101.691H83.2907Z" fill="#F0F0EF"/>
<path d="M105.75 159.81C105.108 159.81 104.562 159.636 104.11 159.286C103.658 158.934 103.313 158.424 103.074 157.756C102.836 157.086 102.716 156.276 102.716 155.327C102.716 154.384 102.836 153.579 103.074 152.911C103.316 152.241 103.662 151.729 104.114 151.377C104.569 151.022 105.114 150.844 105.75 150.844C106.387 150.844 106.931 151.022 107.383 151.377C107.837 151.729 108.184 152.241 108.422 152.911C108.664 153.579 108.785 154.384 108.785 155.327C108.785 156.276 108.665 157.086 108.427 157.756C108.188 158.424 107.843 158.934 107.391 159.286C106.939 159.636 106.393 159.81 105.75 159.81ZM105.75 158.873C106.387 158.873 106.881 158.566 107.233 157.952C107.586 157.339 107.762 156.464 107.762 155.327C107.762 154.572 107.681 153.928 107.519 153.397C107.36 152.866 107.13 152.461 106.829 152.182C106.53 151.904 106.171 151.765 105.75 151.765C105.12 151.765 104.627 152.076 104.272 152.698C103.917 153.317 103.739 154.194 103.739 155.327C103.739 156.083 103.819 156.725 103.978 157.253C104.137 157.782 104.366 158.184 104.664 158.459C104.965 158.735 105.327 158.873 105.75 158.873ZM113.182 150.844C113.54 150.847 113.898 150.915 114.256 151.049C114.614 151.182 114.941 151.404 115.236 151.714C115.532 152.02 115.769 152.439 115.948 152.971C116.127 153.502 116.216 154.168 116.216 154.969C116.216 155.745 116.143 156.434 115.995 157.036C115.85 157.636 115.64 158.141 115.364 158.553C115.091 158.965 114.759 159.278 114.367 159.491C113.978 159.704 113.537 159.81 113.046 159.81C112.557 159.81 112.121 159.714 111.738 159.52C111.357 159.324 111.045 159.053 110.8 158.707C110.559 158.357 110.404 157.952 110.336 157.492H111.375C111.469 157.893 111.655 158.224 111.934 158.485C112.215 158.743 112.586 158.873 113.046 158.873C113.719 158.873 114.25 158.579 114.64 157.991C115.032 157.403 115.228 156.572 115.228 155.498H115.16C115 155.736 114.812 155.942 114.593 156.116C114.374 156.289 114.131 156.422 113.864 156.516C113.597 156.61 113.313 156.657 113.012 156.657C112.512 156.657 112.053 156.533 111.635 156.286C111.221 156.036 110.888 155.694 110.638 155.259C110.391 154.822 110.268 154.322 110.268 153.759C110.268 153.225 110.387 152.736 110.625 152.293C110.867 151.847 111.205 151.492 111.64 151.228C112.077 150.964 112.591 150.836 113.182 150.844ZM113.182 151.782C112.824 151.782 112.502 151.871 112.215 152.05C111.931 152.226 111.705 152.465 111.537 152.766C111.373 153.064 111.29 153.395 111.29 153.759C111.29 154.123 111.37 154.454 111.529 154.752C111.691 155.047 111.911 155.283 112.189 155.459C112.471 155.633 112.79 155.719 113.148 155.719C113.418 155.719 113.67 155.667 113.902 155.562C114.135 155.454 114.339 155.307 114.512 155.123C114.688 154.935 114.826 154.724 114.925 154.488C115.025 154.249 115.074 154.001 115.074 153.742C115.074 153.401 114.992 153.082 114.827 152.783C114.665 152.485 114.441 152.243 114.154 152.059C113.87 151.874 113.546 151.782 113.182 151.782ZM120.994 150.555L118.182 161.003H117.261L120.074 150.555H120.994ZM122.17 159.691V158.924L125.05 155.77C125.388 155.401 125.667 155.08 125.885 154.807C126.104 154.532 126.266 154.273 126.371 154.032C126.479 153.788 126.533 153.532 126.533 153.265C126.533 152.958 126.459 152.692 126.312 152.468C126.167 152.243 125.968 152.07 125.715 151.948C125.462 151.826 125.178 151.765 124.863 151.765C124.527 151.765 124.235 151.834 123.985 151.974C123.738 152.11 123.546 152.302 123.41 152.549C123.276 152.796 123.209 153.086 123.209 153.418H122.204C122.204 152.907 122.322 152.458 122.557 152.072C122.793 151.685 123.114 151.384 123.52 151.168C123.929 150.952 124.388 150.844 124.897 150.844C125.408 150.844 125.861 150.952 126.256 151.168C126.651 151.384 126.961 151.675 127.185 152.042C127.41 152.408 127.522 152.816 127.522 153.265C127.522 153.586 127.464 153.9 127.347 154.207C127.233 154.511 127.035 154.85 126.75 155.225C126.469 155.597 126.079 156.052 125.579 156.589L123.618 158.685V158.753H127.675V159.691H122.17ZM132.162 159.81C131.662 159.81 131.212 159.711 130.812 159.512C130.411 159.313 130.09 159.04 129.848 158.694C129.607 158.347 129.475 157.952 129.452 157.509H130.475C130.515 157.904 130.694 158.231 131.012 158.489C131.333 158.745 131.716 158.873 132.162 158.873C132.52 158.873 132.839 158.789 133.117 158.621C133.398 158.454 133.618 158.224 133.777 157.931C133.939 157.636 134.02 157.302 134.02 156.93C134.02 156.549 133.937 156.209 133.769 155.911C133.604 155.61 133.377 155.373 133.087 155.199C132.797 155.026 132.466 154.938 132.094 154.935C131.827 154.932 131.553 154.974 131.272 155.059C130.991 155.141 130.759 155.248 130.577 155.378L129.589 155.259L130.117 150.964H134.651V151.901H131.003L130.697 154.475H130.748C130.927 154.333 131.151 154.215 131.421 154.121C131.691 154.028 131.972 153.981 132.265 153.981C132.799 153.981 133.275 154.109 133.692 154.364C134.113 154.617 134.442 154.964 134.681 155.404C134.922 155.844 135.043 156.347 135.043 156.913C135.043 157.469 134.918 157.966 134.668 158.404C134.421 158.839 134.08 159.182 133.645 159.435C133.211 159.685 132.716 159.81 132.162 159.81Z" fill="#F8F8FA"/>
<rect opacity="0.2" x="10.0005" y="143.691" width="34" height="22" rx="4" fill="white"/>
</g>
<defs>
<clipPath id="clip0_0_342">
<rect y="0.69104" width="146" height="188" rx="10" fill="white"/>
</clipPath>
</defs>
</svg>
