<svg width="138" height="70" viewBox="0 0 138 70" fill="none" xmlns="http://www.w3.org/2000/svg">
<rect width="138" height="70" rx="10" fill="white"/>
<path d="M14.1193 52V50.7273L18.0568 46.6477C18.4773 46.2045 18.8239 45.8163 19.0966 45.483C19.3731 45.1458 19.5795 44.8258 19.7159 44.5227C19.8523 44.2197 19.9205 43.8977 19.9205 43.5568C19.9205 43.1705 19.8295 42.8371 19.6477 42.5568C19.4659 42.2727 19.2178 42.0549 18.9034 41.9034C18.589 41.7481 18.2348 41.6705 17.8409 41.6705C17.4242 41.6705 17.0606 41.7557 16.75 41.9261C16.4394 42.0966 16.2008 42.3371 16.0341 42.6477C15.8674 42.9583 15.7841 43.322 15.7841 43.7386H14.108C14.108 43.0303 14.2708 42.411 14.5966 41.8807C14.9223 41.3504 15.3693 40.9394 15.9375 40.6477C16.5057 40.3523 17.1515 40.2045 17.875 40.2045C18.6061 40.2045 19.25 40.3504 19.8068 40.642C20.3674 40.9299 20.8049 41.3239 21.1193 41.8239C21.4337 42.3201 21.5909 42.8807 21.5909 43.5057C21.5909 43.9375 21.5095 44.3598 21.3466 44.7727C21.1875 45.1856 20.9091 45.6458 20.5114 46.1534C20.1136 46.6572 19.5606 47.2689 18.8523 47.9886L16.5398 50.4091V50.4943H21.7784V52H14.1193ZM23.4375 49.7273V48.3068L28.4659 40.3636H29.5852V42.4545H28.875L25.2784 48.1477V48.2386H32.1705V49.7273H23.4375ZM28.9545 52V49.2955L28.9659 48.6477V40.3636H30.6307V52H28.9545ZM34.8551 52.108C34.5445 52.108 34.2775 51.9981 34.054 51.7784C33.8305 51.5549 33.7188 51.286 33.7188 50.9716C33.7188 50.661 33.8305 50.3958 34.054 50.1761C34.2775 49.9527 34.5445 49.8409 34.8551 49.8409C35.1657 49.8409 35.4328 49.9527 35.6562 50.1761C35.8797 50.3958 35.9915 50.661 35.9915 50.9716C35.9915 51.1799 35.9384 51.3712 35.8324 51.5455C35.7301 51.7159 35.5938 51.8523 35.4233 51.9545C35.2528 52.0568 35.0634 52.108 34.8551 52.108ZM41.8977 52.1591C41.1856 52.1591 40.5455 52.0227 39.9773 51.75C39.4129 51.4735 38.9621 51.0947 38.625 50.6136C38.2879 50.1326 38.108 49.5833 38.0852 48.9659H39.7898C39.8314 49.4659 40.053 49.8769 40.4545 50.1989C40.8561 50.5208 41.3371 50.6818 41.8977 50.6818C42.3447 50.6818 42.7405 50.5795 43.0852 50.375C43.4337 50.1667 43.7064 49.8807 43.9034 49.517C44.1042 49.1534 44.2045 48.7386 44.2045 48.2727C44.2045 47.7992 44.1023 47.3769 43.8977 47.0057C43.6932 46.6345 43.411 46.3428 43.0511 46.1307C42.6951 45.9186 42.286 45.8106 41.8239 45.8068C41.4716 45.8068 41.1174 45.8674 40.7614 45.9886C40.4053 46.1098 40.1174 46.2689 39.8977 46.4659L38.2898 46.2273L38.9432 40.3636H45.3409V41.8693H40.4034L40.0341 45.125H40.1023C40.3295 44.9053 40.6307 44.7216 41.0057 44.5739C41.3845 44.4261 41.7898 44.3523 42.2216 44.3523C42.9299 44.3523 43.5606 44.5208 44.1136 44.858C44.6705 45.1951 45.108 45.6553 45.4261 46.2386C45.7481 46.8182 45.9072 47.4848 45.9034 48.2386C45.9072 48.9924 45.7367 49.6648 45.392 50.2557C45.0511 50.8466 44.5777 51.3125 43.9716 51.6534C43.3693 51.9905 42.678 52.1591 41.8977 52.1591ZM52.0298 52.1932C51.1321 52.1894 50.3651 51.9527 49.7287 51.483C49.0923 51.0133 48.6056 50.3295 48.2685 49.4318C47.9313 48.5341 47.7628 47.4527 47.7628 46.1875C47.7628 44.9261 47.9313 43.8485 48.2685 42.9545C48.6094 42.0606 49.098 41.3788 49.7344 40.9091C50.3745 40.4394 51.1397 40.2045 52.0298 40.2045C52.92 40.2045 53.6832 40.4413 54.3196 40.9148C54.956 41.3845 55.4427 42.0663 55.7798 42.9602C56.1207 43.8504 56.2912 44.9261 56.2912 46.1875C56.2912 47.4564 56.1226 48.5398 55.7855 49.4375C55.4484 50.3314 54.9616 51.0152 54.3253 51.4886C53.6889 51.9583 52.9238 52.1932 52.0298 52.1932ZM52.0298 50.6761C52.8177 50.6761 53.4332 50.2917 53.8764 49.5227C54.3234 48.7538 54.5469 47.642 54.5469 46.1875C54.5469 45.2216 54.4446 44.4053 54.2401 43.7386C54.0393 43.0682 53.7495 42.5606 53.3707 42.2159C52.9957 41.8674 52.5488 41.6932 52.0298 41.6932C51.2457 41.6932 50.6302 42.0795 50.1832 42.8523C49.7363 43.625 49.5109 44.7367 49.5071 46.1875C49.5071 47.1572 49.6075 47.9773 49.8082 48.6477C50.0128 49.3144 50.3026 49.8201 50.6776 50.1648C51.0526 50.5057 51.5033 50.6761 52.0298 50.6761ZM62.358 52.1932C61.4602 52.1894 60.6932 51.9527 60.0568 51.483C59.4205 51.0133 58.9337 50.3295 58.5966 49.4318C58.2595 48.5341 58.0909 47.4527 58.0909 46.1875C58.0909 44.9261 58.2595 43.8485 58.5966 42.9545C58.9375 42.0606 59.4261 41.3788 60.0625 40.9091C60.7027 40.4394 61.4678 40.2045 62.358 40.2045C63.2481 40.2045 64.0114 40.4413 64.6477 40.9148C65.2841 41.3845 65.7708 42.0663 66.108 42.9602C66.4489 43.8504 66.6193 44.9261 66.6193 46.1875C66.6193 47.4564 66.4508 48.5398 66.1136 49.4375C65.7765 50.3314 65.2898 51.0152 64.6534 51.4886C64.017 51.9583 63.2519 52.1932 62.358 52.1932ZM62.358 50.6761C63.1458 50.6761 63.7614 50.2917 64.2045 49.5227C64.6515 48.7538 64.875 47.642 64.875 46.1875C64.875 45.2216 64.7727 44.4053 64.5682 43.7386C64.3674 43.0682 64.0777 42.5606 63.6989 42.2159C63.3239 41.8674 62.8769 41.6932 62.358 41.6932C61.5739 41.6932 60.9583 42.0795 60.5114 42.8523C60.0644 43.625 59.839 44.7367 59.8352 46.1875C59.8352 47.1572 59.9356 47.9773 60.1364 48.6477C60.3409 49.3144 60.6307 49.8201 61.0057 50.1648C61.3807 50.5057 61.8314 50.6761 62.358 50.6761ZM80.1875 44.4432L79.6477 45.6136H72.1761L72.6023 44.4432H80.1875ZM79.1705 46.75L78.6193 47.9318H72.1761L72.6023 46.75H79.1705ZM81.5739 41.358L80.9034 42.7955C80.6913 42.6136 80.4602 42.4489 80.2102 42.3011C79.9602 42.1534 79.6913 42.036 79.4034 41.9489C79.1155 41.858 78.8068 41.8125 78.4773 41.8125C77.8712 41.8125 77.3314 41.9754 76.858 42.3011C76.3845 42.6269 76.0114 43.1155 75.7386 43.767C75.4697 44.4148 75.3352 45.2216 75.3352 46.1875C75.3352 47.1534 75.4697 47.9602 75.7386 48.608C76.0114 49.2557 76.3845 49.7424 76.858 50.0682C77.3314 50.3902 77.8712 50.5511 78.4773 50.5511C78.8106 50.5511 79.1212 50.5076 79.4091 50.4205C79.7008 50.3333 79.9659 50.2197 80.2045 50.0795C80.447 49.9356 80.6648 49.7841 80.858 49.625L81.5455 51.0568C81.1439 51.4205 80.678 51.6951 80.1477 51.8807C79.6174 52.0663 79.0606 52.1591 78.4773 52.1591C77.5265 52.1591 76.6837 51.9186 75.9489 51.4375C75.2178 50.9564 74.6439 50.2708 74.2273 49.3807C73.8106 48.4867 73.6023 47.4223 73.6023 46.1875C73.6023 44.9489 73.8106 43.8826 74.2273 42.9886C74.6439 42.0947 75.2178 41.4072 75.9489 40.9261C76.6837 40.4451 77.5265 40.2045 78.4773 40.2045C79.0833 40.2045 79.6477 40.3049 80.1705 40.5057C80.6932 40.7027 81.161 40.9867 81.5739 41.358Z" fill="black"/>
<path d="M19.0227 19C18.929 18.7131 18.8054 18.456 18.652 18.2287C18.5014 17.9986 18.321 17.8026 18.1108 17.6406C17.9034 17.4787 17.6676 17.3551 17.4034 17.2699C17.1392 17.1847 16.8494 17.142 16.5341 17.142C16.017 17.142 15.5469 17.2756 15.1236 17.5426C14.7003 17.8097 14.3636 18.2031 14.1136 18.723C13.8636 19.2429 13.7386 19.8807 13.7386 20.6364C13.7386 21.392 13.8651 22.0298 14.1179 22.5497C14.3707 23.0696 14.7131 23.4631 15.1449 23.7301C15.5767 23.9972 16.0625 24.1307 16.6023 24.1307C17.1023 24.1307 17.5426 24.0241 17.9233 23.8111C18.3068 23.5952 18.6051 23.2912 18.8182 22.8991C19.0341 22.5043 19.142 22.0398 19.142 21.5057L19.4659 21.5739H16.8409V20.6364H20.1648V21.5739C20.1648 22.2926 20.0114 22.9176 19.7045 23.4489C19.4006 23.9801 18.9801 24.392 18.4432 24.6847C17.9091 24.9744 17.2955 25.1193 16.6023 25.1193C15.8295 25.1193 15.1506 24.9375 14.5653 24.5739C13.983 24.2102 13.5284 23.6932 13.2017 23.0227C12.8778 22.3523 12.7159 21.5568 12.7159 20.6364C12.7159 19.946 12.8082 19.3253 12.9929 18.7741C13.1804 18.2202 13.4446 17.7486 13.7855 17.3594C14.1264 16.9702 14.5298 16.6719 14.9957 16.4645C15.4616 16.2571 15.9744 16.1534 16.5341 16.1534C16.9943 16.1534 17.4233 16.223 17.821 16.3622C18.2216 16.4986 18.5781 16.6932 18.8906 16.946C19.206 17.196 19.4688 17.4957 19.679 17.8452C19.8892 18.1918 20.0341 18.5767 20.1136 19H19.0227ZM24.5827 25.1364C23.9521 25.1364 23.408 24.9972 22.9506 24.7188C22.4961 24.4375 22.1452 24.0455 21.8981 23.5426C21.6538 23.0369 21.5316 22.4489 21.5316 21.7784C21.5316 21.108 21.6538 20.517 21.8981 20.0057C22.1452 19.4915 22.489 19.0909 22.9293 18.804C23.3725 18.5142 23.8896 18.3693 24.4805 18.3693C24.8214 18.3693 25.158 18.4261 25.4904 18.5398C25.8228 18.6534 26.1254 18.8381 26.3981 19.0938C26.6708 19.3466 26.8881 19.6818 27.0501 20.0994C27.212 20.517 27.293 21.0312 27.293 21.642V22.0682H22.2475V21.1989H26.2702C26.2702 20.8295 26.1964 20.5 26.0487 20.2102C25.9038 19.9205 25.6964 19.6918 25.4265 19.5241C25.1594 19.3565 24.8441 19.2727 24.4805 19.2727C24.0799 19.2727 23.7333 19.3722 23.4407 19.571C23.1509 19.767 22.9279 20.0227 22.7717 20.3381C22.6154 20.6534 22.5373 20.9915 22.5373 21.3523V21.9318C22.5373 22.4261 22.6225 22.8452 22.793 23.1889C22.9663 23.5298 23.2063 23.7898 23.5131 23.9688C23.82 24.1449 24.1765 24.233 24.5827 24.233C24.8469 24.233 25.0856 24.196 25.2987 24.1222C25.5146 24.0455 25.7006 23.9318 25.8569 23.7812C26.0131 23.6278 26.1339 23.4375 26.2191 23.2102L27.1907 23.483C27.0884 23.8125 26.9165 24.1023 26.6751 24.3523C26.4336 24.5994 26.1353 24.7926 25.7802 24.9318C25.4251 25.0682 25.0259 25.1364 24.5827 25.1364ZM33.4592 19.9205L32.5558 20.1761C32.4989 20.0256 32.4151 19.8793 32.3043 19.7372C32.1964 19.5923 32.0487 19.473 31.8612 19.3793C31.6737 19.2855 31.4336 19.2386 31.141 19.2386C30.7404 19.2386 30.4066 19.331 30.1396 19.5156C29.8754 19.6974 29.7433 19.929 29.7433 20.2102C29.7433 20.4602 29.8342 20.6577 30.016 20.8026C30.1978 20.9474 30.4819 21.0682 30.8683 21.1648L31.8398 21.4034C32.4251 21.5455 32.8612 21.7628 33.1481 22.0554C33.435 22.3452 33.5785 22.7187 33.5785 23.1761C33.5785 23.5511 33.4705 23.8864 33.2546 24.1818C33.0415 24.4773 32.7433 24.7102 32.3597 24.8807C31.9762 25.0511 31.5302 25.1364 31.0217 25.1364C30.354 25.1364 29.8015 24.9915 29.364 24.7017C28.9265 24.4119 28.6495 23.9886 28.533 23.4318L29.4876 23.1932C29.5785 23.5455 29.7504 23.8097 30.0032 23.9858C30.2589 24.1619 30.5927 24.25 31.0046 24.25C31.4734 24.25 31.8455 24.1506 32.1211 23.9517C32.3995 23.75 32.5387 23.5085 32.5387 23.2273C32.5387 23 32.4592 22.8097 32.3001 22.6562C32.141 22.5 31.8967 22.3835 31.5671 22.3068L30.4762 22.0511C29.8768 21.9091 29.4364 21.6889 29.1552 21.3906C28.8768 21.0895 28.7376 20.7131 28.7376 20.2614C28.7376 19.892 28.8413 19.5653 29.0487 19.2812C29.2589 18.9972 29.5444 18.7741 29.9052 18.6122C30.2688 18.4503 30.6808 18.3693 31.141 18.3693C31.7887 18.3693 32.2972 18.5114 32.6665 18.7955C33.0387 19.0795 33.3029 19.4545 33.4592 19.9205ZM37.0185 25.1534C36.6037 25.1534 36.2273 25.0753 35.8892 24.919C35.5511 24.7599 35.2827 24.5312 35.0838 24.233C34.8849 23.9318 34.7855 23.5682 34.7855 23.142C34.7855 22.767 34.8594 22.4631 35.0071 22.2301C35.1548 21.9943 35.3523 21.8097 35.5994 21.6761C35.8466 21.5426 36.1193 21.4432 36.4176 21.3778C36.7188 21.3097 37.0213 21.2557 37.3253 21.2159C37.723 21.1648 38.0455 21.1264 38.2926 21.1009C38.5426 21.0724 38.7244 21.0256 38.8381 20.9602C38.9545 20.8949 39.0128 20.7812 39.0128 20.6193V20.5852C39.0128 20.1648 38.8977 19.8381 38.6676 19.6051C38.4403 19.3722 38.0952 19.2557 37.6321 19.2557C37.152 19.2557 36.7756 19.3608 36.5028 19.571C36.2301 19.7812 36.0384 20.0057 35.9276 20.2443L34.973 19.9034C35.1435 19.5057 35.3707 19.196 35.6548 18.9744C35.9418 18.75 36.2543 18.5937 36.5923 18.5057C36.9332 18.4148 37.2685 18.3693 37.598 18.3693C37.8082 18.3693 38.0497 18.3949 38.3224 18.446C38.598 18.4943 38.8636 18.5952 39.1193 18.7486C39.3778 18.902 39.5923 19.1335 39.7628 19.4432C39.9332 19.7528 40.0185 20.1676 40.0185 20.6875V25H39.0128V24.1136H38.9616C38.8935 24.2557 38.7798 24.4077 38.6207 24.5696C38.4616 24.7315 38.25 24.8693 37.9858 24.983C37.7216 25.0966 37.3991 25.1534 37.0185 25.1534ZM37.1719 24.25C37.5696 24.25 37.9048 24.1719 38.1776 24.0156C38.4531 23.8594 38.6605 23.6577 38.7997 23.4105C38.9418 23.1634 39.0128 22.9034 39.0128 22.6307V21.7102C38.9702 21.7614 38.8764 21.8082 38.7315 21.8509C38.5895 21.8906 38.4247 21.9261 38.2372 21.9574C38.0526 21.9858 37.8722 22.0114 37.696 22.0341C37.5227 22.054 37.3821 22.071 37.2741 22.0852C37.0128 22.1193 36.7685 22.1747 36.5412 22.2514C36.3168 22.3253 36.1349 22.4375 35.9957 22.5881C35.8594 22.7358 35.7912 22.9375 35.7912 23.1932C35.7912 23.5426 35.9205 23.8068 36.179 23.9858C36.4403 24.1619 36.7713 24.25 37.1719 24.25ZM41.854 25V18.4545H42.8256V19.4773H42.9109C43.0472 19.1278 43.2674 18.8565 43.5714 18.6634C43.8754 18.4673 44.2404 18.3693 44.6665 18.3693C45.0984 18.3693 45.4577 18.4673 45.7447 18.6634C46.0344 18.8565 46.2603 19.1278 46.4222 19.4773H46.4904C46.658 19.1392 46.9094 18.8707 47.2447 18.6719C47.5799 18.4702 47.9819 18.3693 48.4506 18.3693C49.0359 18.3693 49.5146 18.5526 49.8867 18.919C50.2589 19.2827 50.445 19.8494 50.445 20.6193V25H49.4393V20.6193C49.4393 20.1364 49.3072 19.7912 49.043 19.5838C48.7788 19.3764 48.4677 19.2727 48.1097 19.2727C47.6495 19.2727 47.293 19.4119 47.0401 19.6903C46.7873 19.9659 46.6609 20.3153 46.6609 20.7386V25H45.6381V20.517C45.6381 20.1449 45.5174 19.8452 45.2759 19.6179C45.0344 19.3878 44.7234 19.2727 44.3427 19.2727C44.0813 19.2727 43.837 19.3423 43.6097 19.4815C43.3853 19.6207 43.2035 19.8139 43.0643 20.0611C42.9279 20.3054 42.8597 20.5881 42.8597 20.9091V25H41.854ZM55.1303 18.4545V19.3068H51.7383V18.4545H55.1303ZM52.7269 16.8864H53.7326V23.125C53.7326 23.4091 53.7738 23.6222 53.8562 23.7642C53.9414 23.9034 54.0494 23.9972 54.18 24.0455C54.3136 24.0909 54.4542 24.1136 54.6019 24.1136C54.7127 24.1136 54.8036 24.108 54.8746 24.0966C54.9457 24.0824 55.0025 24.071 55.0451 24.0625L55.2496 24.9659C55.1815 24.9915 55.0863 25.017 54.9641 25.0426C54.842 25.071 54.6871 25.0852 54.4996 25.0852C54.2156 25.0852 53.9371 25.0241 53.6644 24.902C53.3945 24.7798 53.1701 24.5938 52.9911 24.3438C52.815 24.0938 52.7269 23.7784 52.7269 23.3977V16.8864ZM60.7681 22.3239V18.4545H61.7738V25H60.7681V23.892H60.6999C60.5465 24.2244 60.3079 24.5071 59.984 24.7401C59.6602 24.9702 59.2511 25.0852 58.7567 25.0852C58.3477 25.0852 57.984 24.9957 57.6658 24.8168C57.3477 24.6349 57.0977 24.3622 56.9158 23.9986C56.734 23.6321 56.6431 23.1705 56.6431 22.6136V18.4545H57.6488V22.5455C57.6488 23.0227 57.7823 23.4034 58.0494 23.6875C58.3192 23.9716 58.663 24.1136 59.0806 24.1136C59.3306 24.1136 59.5849 24.0497 59.8434 23.9219C60.1048 23.794 60.3235 23.598 60.4996 23.3338C60.6786 23.0696 60.7681 22.733 60.7681 22.3239ZM63.6158 25V18.4545H64.5874V19.4773H64.6726C64.8089 19.1278 65.0291 18.8565 65.3331 18.6634C65.6371 18.4673 66.0021 18.3693 66.4283 18.3693C66.8601 18.3693 67.2195 18.4673 67.5064 18.6634C67.7962 18.8565 68.022 19.1278 68.1839 19.4773H68.2521C68.4197 19.1392 68.6712 18.8707 69.0064 18.6719C69.3416 18.4702 69.7436 18.3693 70.2124 18.3693C70.7976 18.3693 71.2763 18.5526 71.6484 18.919C72.0206 19.2827 72.2067 19.8494 72.2067 20.6193V25H71.201V20.6193C71.201 20.1364 71.0689 19.7912 70.8047 19.5838C70.5405 19.3764 70.2294 19.2727 69.8714 19.2727C69.4112 19.2727 69.0547 19.4119 68.8018 19.6903C68.549 19.9659 68.4226 20.3153 68.4226 20.7386V25H67.3999V20.517C67.3999 20.1449 67.2791 19.8452 67.0376 19.6179C66.7962 19.3878 66.4851 19.2727 66.1044 19.2727C65.843 19.2727 65.5987 19.3423 65.3714 19.4815C65.147 19.6207 64.9652 19.8139 64.826 20.0611C64.6896 20.3054 64.6214 20.5881 64.6214 20.9091V25H63.6158ZM78.6818 19.9205L77.7784 20.1761C77.7216 20.0256 77.6378 19.8793 77.527 19.7372C77.419 19.5923 77.2713 19.473 77.0838 19.3793C76.8963 19.2855 76.6562 19.2386 76.3636 19.2386C75.9631 19.2386 75.6293 19.331 75.3622 19.5156C75.098 19.6974 74.9659 19.929 74.9659 20.2102C74.9659 20.4602 75.0568 20.6577 75.2386 20.8026C75.4205 20.9474 75.7045 21.0682 76.0909 21.1648L77.0625 21.4034C77.6477 21.5455 78.0838 21.7628 78.3707 22.0554C78.6577 22.3452 78.8011 22.7187 78.8011 23.1761C78.8011 23.5511 78.6932 23.8864 78.4773 24.1818C78.2642 24.4773 77.9659 24.7102 77.5824 24.8807C77.1989 25.0511 76.7528 25.1364 76.2443 25.1364C75.5767 25.1364 75.0241 24.9915 74.5866 24.7017C74.1491 24.4119 73.8722 23.9886 73.7557 23.4318L74.7102 23.1932C74.8011 23.5455 74.973 23.8097 75.2259 23.9858C75.4815 24.1619 75.8153 24.25 76.2273 24.25C76.696 24.25 77.0682 24.1506 77.3438 23.9517C77.6222 23.75 77.7614 23.5085 77.7614 23.2273C77.7614 23 77.6818 22.8097 77.5227 22.6562C77.3636 22.5 77.1193 22.3835 76.7898 22.3068L75.6989 22.0511C75.0994 21.9091 74.6591 21.6889 74.3778 21.3906C74.0994 21.0895 73.9602 20.7131 73.9602 20.2614C73.9602 19.892 74.0639 19.5653 74.2713 19.2812C74.4815 18.9972 74.767 18.7741 75.1278 18.6122C75.4915 18.4503 75.9034 18.3693 76.3636 18.3693C77.0114 18.3693 77.5199 18.5114 77.8892 18.7955C78.2614 19.0795 78.5256 19.4545 78.6818 19.9205ZM82.2411 25.1534C81.8263 25.1534 81.4499 25.0753 81.1119 24.919C80.7738 24.7599 80.5053 24.5312 80.3065 24.233C80.1076 23.9318 80.0082 23.5682 80.0082 23.142C80.0082 22.767 80.082 22.4631 80.2298 22.2301C80.3775 21.9943 80.5749 21.8097 80.8221 21.6761C81.0692 21.5426 81.342 21.4432 81.6403 21.3778C81.9414 21.3097 82.244 21.2557 82.5479 21.2159C82.9457 21.1648 83.2681 21.1264 83.5153 21.1009C83.7653 21.0724 83.9471 21.0256 84.0607 20.9602C84.1772 20.8949 84.2354 20.7812 84.2354 20.6193V20.5852C84.2354 20.1648 84.1204 19.8381 83.8903 19.6051C83.663 19.3722 83.3178 19.2557 82.8548 19.2557C82.3746 19.2557 81.9982 19.3608 81.7255 19.571C81.4528 19.7812 81.261 20.0057 81.1502 20.2443L80.1957 19.9034C80.3661 19.5057 80.5934 19.196 80.8775 18.9744C81.1644 18.75 81.4769 18.5937 81.815 18.5057C82.1559 18.4148 82.4911 18.3693 82.8207 18.3693C83.0309 18.3693 83.2724 18.3949 83.5451 18.446C83.8207 18.4943 84.0863 18.5952 84.342 18.7486C84.6005 18.902 84.815 19.1335 84.9854 19.4432C85.1559 19.7528 85.2411 20.1676 85.2411 20.6875V25H84.2354V24.1136H84.1843C84.1161 24.2557 84.0025 24.4077 83.8434 24.5696C83.6843 24.7315 83.4727 24.8693 83.2085 24.983C82.9442 25.0966 82.6218 25.1534 82.2411 25.1534ZM82.3945 24.25C82.7923 24.25 83.1275 24.1719 83.4002 24.0156C83.6758 23.8594 83.8832 23.6577 84.0224 23.4105C84.1644 23.1634 84.2354 22.9034 84.2354 22.6307V21.7102C84.1928 21.7614 84.0991 21.8082 83.9542 21.8509C83.8121 21.8906 83.6474 21.9261 83.4599 21.9574C83.2752 21.9858 83.0948 22.0114 82.9187 22.0341C82.7454 22.054 82.6048 22.071 82.4968 22.0852C82.2354 22.1193 81.9911 22.1747 81.7638 22.2514C81.5394 22.3253 81.3576 22.4375 81.2184 22.5881C81.082 22.7358 81.0138 22.9375 81.0138 23.1932C81.0138 23.5426 81.1431 23.8068 81.4016 23.9858C81.663 24.1619 81.994 24.25 82.3945 24.25ZM89.9233 18.4545V19.3068H86.5312V18.4545H89.9233ZM87.5199 16.8864H88.5256V23.125C88.5256 23.4091 88.5668 23.6222 88.6491 23.7642C88.7344 23.9034 88.8423 23.9972 88.973 24.0455C89.1065 24.0909 89.2472 24.1136 89.3949 24.1136C89.5057 24.1136 89.5966 24.108 89.6676 24.0966C89.7386 24.0824 89.7955 24.071 89.8381 24.0625L90.0426 24.9659C89.9744 24.9915 89.8793 25.017 89.7571 25.0426C89.6349 25.071 89.4801 25.0852 89.2926 25.0852C89.0085 25.0852 88.7301 25.0241 88.4574 24.902C88.1875 24.7798 87.9631 24.5938 87.7841 24.3438C87.608 24.0938 87.5199 23.7784 87.5199 23.3977V16.8864ZM91.2486 25V24.233L94.9645 19.4602V19.392H91.3679V18.4545H96.2599V19.2557L92.6463 23.9943V24.0625H96.3793V25H91.2486Z" fill="#A9A7B6"/>
<path d="M121 52.6667V44.3334" stroke="#2F80ED" stroke-width="1.66667" stroke-linecap="round" stroke-linejoin="round"/>
<path d="M116 52.6667V39.3334" stroke="#2F80ED" stroke-width="1.66667" stroke-linecap="round" stroke-linejoin="round"/>
<path d="M111 52.6666V47.6666" stroke="#2F80ED" stroke-width="1.66667" stroke-linecap="round" stroke-linejoin="round"/>
</svg>
