<svg width="366" height="120" viewBox="0 0 366 120" fill="none" xmlns="http://www.w3.org/2000/svg">
<rect width="365.026" height="119.759" rx="18.2059" fill="white"/>
<path d="M148.87 52.1001C148.616 52.1001 148.403 52.0134 148.229 51.8398C148.056 51.6662 147.969 51.4526 147.969 51.1989V38.8426C147.969 38.5889 148.056 38.3753 148.229 38.2018C148.403 38.0148 148.616 37.9214 148.87 37.9214C149.124 37.9214 149.337 38.0148 149.511 38.2018C149.698 38.3753 149.791 38.5889 149.791 38.8426V51.1989C149.791 51.4526 149.698 51.6662 149.511 51.8398C149.337 52.0134 149.124 52.1001 148.87 52.1001ZM154.025 52.1001C153.771 52.1001 153.557 52.0134 153.384 51.8398C153.21 51.6662 153.124 51.4526 153.124 51.1989V38.2018C153.124 37.9481 153.21 37.7345 153.384 37.5609C153.557 37.374 153.771 37.2805 154.025 37.2805C154.278 37.2805 154.492 37.374 154.666 37.5609C154.853 37.7345 154.946 37.9481 154.946 38.2018V43.4287C155.453 42.8679 156.001 42.4207 156.588 42.0869C157.176 41.7531 157.87 41.5862 158.671 41.5862C159.405 41.5862 160.039 41.7598 160.573 42.1069C161.121 42.454 161.535 42.928 161.815 43.5288C162.109 44.1296 162.256 44.7905 162.256 45.5114V51.1989C162.256 51.4526 162.162 51.6662 161.975 51.8398C161.802 52.0134 161.588 52.1001 161.334 52.1001C161.081 52.1001 160.867 52.0134 160.694 51.8398C160.52 51.6662 160.433 51.4526 160.433 51.1989V45.7117C160.433 44.0829 159.699 43.2685 158.23 43.2685C157.563 43.2685 156.962 43.442 156.428 43.7891C155.907 44.1363 155.413 44.6036 154.946 45.191V51.1989C154.946 51.4526 154.853 51.6662 154.666 51.8398C154.492 52.0134 154.278 52.1001 154.025 52.1001ZM166.228 52.1001C165.975 52.1001 165.761 52.0134 165.588 51.8398C165.414 51.6662 165.327 51.4526 165.327 51.1989V42.6076C165.327 42.3539 165.414 42.1403 165.588 41.9667C165.761 41.7798 165.975 41.6864 166.228 41.6864C166.482 41.6864 166.696 41.7798 166.869 41.9667C167.056 42.1403 167.15 42.3539 167.15 42.6076V43.4687C168.084 42.2137 169.132 41.5862 170.294 41.5862H170.394C170.648 41.5862 170.854 41.673 171.015 41.8466C171.188 42.0201 171.275 42.2338 171.275 42.4874C171.275 42.7411 171.188 42.948 171.015 43.1082C170.841 43.2685 170.621 43.3486 170.354 43.3486H170.254C169.613 43.3486 169.025 43.5088 168.491 43.8292C167.957 44.1363 167.51 44.5635 167.15 45.1109V51.1989C167.15 51.4526 167.056 51.6662 166.869 51.8398C166.696 52.0134 166.482 52.1001 166.228 52.1001ZM177.266 52.2003C175.637 52.2003 174.362 51.7397 173.441 50.8184C172.533 49.8839 172.079 48.5755 172.079 46.8932C172.079 45.9453 172.253 45.0708 172.6 44.2698C172.947 43.4687 173.481 42.8212 174.202 42.3272C174.923 41.8332 175.811 41.5862 176.866 41.5862C177.854 41.5862 178.708 41.8199 179.429 42.2872C180.15 42.7411 180.697 43.3552 181.071 44.1296C181.445 44.8906 181.632 45.725 181.632 46.6329C181.632 46.8866 181.545 47.1002 181.372 47.2738C181.211 47.4473 180.991 47.5341 180.711 47.5341H173.922C174.029 48.4687 174.376 49.1963 174.963 49.717C175.551 50.2377 176.372 50.498 177.426 50.498C177.987 50.498 178.475 50.4446 178.888 50.3378C179.316 50.231 179.73 50.0775 180.13 49.8772C180.237 49.8238 180.357 49.7971 180.491 49.7971C180.704 49.7971 180.891 49.8705 181.051 50.0174C181.211 50.1642 181.292 50.3512 181.292 50.5781C181.292 50.8718 181.118 51.1188 180.771 51.3191C180.25 51.6128 179.736 51.8331 179.229 51.98C178.722 52.1268 178.067 52.2003 177.266 52.2003ZM179.83 46.0521C179.79 45.3979 179.616 44.8505 179.309 44.41C179.015 43.9694 178.648 43.649 178.207 43.4487C177.767 43.2351 177.32 43.1283 176.866 43.1283C176.412 43.1283 175.965 43.2351 175.524 43.4487C175.083 43.649 174.716 43.9694 174.422 44.41C174.129 44.8505 173.962 45.3979 173.922 46.0521H179.83ZM189.566 52.1001C189.299 52.1001 189.079 52.0134 188.905 51.8398C188.745 51.6662 188.665 51.4526 188.665 51.1989C188.665 51.0921 188.698 50.9586 188.765 50.7984L193.872 38.7425C193.978 38.5022 194.125 38.3086 194.312 38.1617C194.512 38.0015 194.753 37.9214 195.033 37.9214H195.233C195.514 37.9214 195.747 38.0015 195.934 38.1617C196.135 38.3086 196.288 38.5022 196.395 38.7425L201.502 50.7984C201.568 50.9586 201.602 51.0921 201.602 51.1989C201.602 51.4526 201.515 51.6662 201.342 51.8398C201.181 52.0134 200.968 52.1001 200.701 52.1001C200.514 52.1001 200.34 52.0534 200.18 51.9599C200.033 51.8531 199.92 51.713 199.84 51.5394L198.538 48.4153H191.729L190.427 51.5394C190.347 51.713 190.227 51.8531 190.067 51.9599C189.92 52.0534 189.753 52.1001 189.566 52.1001ZM192.43 46.7531H197.837L195.133 40.2445L192.43 46.7531ZM204.971 52.1001C204.717 52.1001 204.504 52.0134 204.33 51.8398C204.157 51.6662 204.07 51.4526 204.07 51.1989V42.6076C204.07 42.3539 204.157 42.1403 204.33 41.9667C204.504 41.7798 204.717 41.6864 204.971 41.6864C205.225 41.6864 205.438 41.7798 205.612 41.9667C205.799 42.1403 205.892 42.3539 205.892 42.6076V43.4287C206.4 42.8679 206.947 42.4207 207.534 42.0869C208.122 41.7531 208.816 41.5862 209.617 41.5862C210.351 41.5862 210.986 41.7598 211.52 42.1069C212.067 42.454 212.481 42.928 212.761 43.5288C213.055 44.1296 213.202 44.7905 213.202 45.5114V51.1989C213.202 51.4526 213.108 51.6662 212.922 51.8398C212.748 52.0134 212.534 52.1001 212.281 52.1001C212.027 52.1001 211.813 52.0134 211.64 51.8398C211.466 51.6662 211.379 51.4526 211.379 51.1989V45.7117C211.379 44.0829 210.645 43.2685 209.177 43.2685C208.509 43.2685 207.908 43.442 207.374 43.7891C206.853 44.1363 206.359 44.6036 205.892 45.191V51.1989C205.892 51.4526 205.799 51.6662 205.612 51.8398C205.438 52.0134 205.225 52.1001 204.971 52.1001ZM217.681 52.1001C217.428 52.1001 217.214 52.0134 217.041 51.8398C216.867 51.6662 216.78 51.4526 216.78 51.1989V43.3486H215.599C215.385 43.3486 215.198 43.2751 215.038 43.1283C214.891 42.9681 214.818 42.7811 214.818 42.5675C214.818 42.3406 214.891 42.1537 215.038 42.0068C215.198 41.8599 215.385 41.7865 215.599 41.7865H216.78V40.625C216.78 39.8239 216.92 39.1697 217.201 38.6624C217.494 38.1417 217.868 37.7679 218.322 37.5409C218.79 37.3006 219.277 37.1804 219.784 37.1804C220.412 37.1804 220.992 37.3139 221.526 37.5809C221.66 37.6477 221.767 37.7478 221.847 37.8813C221.94 38.0015 221.987 38.135 221.987 38.2819C221.987 38.4821 221.914 38.6624 221.767 38.8226C221.62 38.9694 221.446 39.0429 221.246 39.0429C221.099 39.0429 220.946 39.0228 220.785 38.9828C220.465 38.9427 220.285 38.9227 220.245 38.9227C219.697 38.9227 219.284 39.0495 219.003 39.3032C218.736 39.5569 218.603 40.0175 218.603 40.685V41.7865H221.106C221.333 41.7865 221.52 41.8599 221.667 42.0068C221.814 42.1537 221.887 42.3406 221.887 42.5675C221.887 42.7811 221.814 42.9681 221.667 43.1283C221.52 43.2751 221.333 43.3486 221.106 43.3486H218.603V51.1989C218.603 51.4526 218.509 51.6662 218.322 51.8398C218.149 52.0134 217.935 52.1001 217.681 52.1001ZM224.567 52.1001C224.314 52.1001 224.1 52.0134 223.926 51.8398C223.753 51.6662 223.666 51.4526 223.666 51.1989V42.6076C223.666 42.3539 223.753 42.1403 223.926 41.9667C224.1 41.7798 224.314 41.6864 224.567 41.6864C224.821 41.6864 225.034 41.7798 225.208 41.9667C225.395 42.1403 225.488 42.3539 225.488 42.6076V43.4687C226.423 42.2137 227.471 41.5862 228.633 41.5862H228.733C228.986 41.5862 229.193 41.673 229.354 41.8466C229.527 42.0201 229.614 42.2338 229.614 42.4874C229.614 42.7411 229.527 42.948 229.354 43.1082C229.18 43.2685 228.96 43.3486 228.693 43.3486H228.593C227.952 43.3486 227.364 43.5088 226.83 43.8292C226.296 44.1363 225.849 44.5635 225.488 45.1109V51.1989C225.488 51.4526 225.395 51.6662 225.208 51.8398C225.034 52.0134 224.821 52.1001 224.567 52.1001ZM233.936 52.2003C233.348 52.2003 232.801 52.0801 232.294 51.8398C231.8 51.5995 231.406 51.2523 231.112 50.7984C230.818 50.3311 230.672 49.7971 230.672 49.1963C230.672 48.2083 231.059 47.4206 231.833 46.8332C232.621 46.2457 233.769 45.952 235.278 45.952H237.701V45.7918C237.701 44.9106 237.481 44.2765 237.04 43.8893C236.613 43.5021 235.938 43.3085 235.017 43.3085C234.51 43.3085 234.056 43.3486 233.655 43.4287C233.268 43.5088 232.834 43.6289 232.354 43.7891C232.247 43.8158 232.16 43.8292 232.093 43.8292C231.893 43.8292 231.72 43.7558 231.573 43.6089C231.426 43.462 231.352 43.2818 231.352 43.0682C231.352 42.7077 231.526 42.454 231.873 42.3072C233.008 41.8266 234.163 41.5862 235.338 41.5862C236.259 41.5862 237.033 41.7731 237.661 42.147C238.302 42.5208 238.769 43.0081 239.063 43.6089C239.37 44.1964 239.523 44.8372 239.523 45.5314V51.1989C239.523 51.4526 239.43 51.6662 239.243 51.8398C239.069 52.0134 238.856 52.1001 238.602 52.1001C238.348 52.1001 238.135 52.0134 237.961 51.8398C237.788 51.6662 237.701 51.4526 237.701 51.1989V50.6783C236.713 51.6929 235.458 52.2003 233.936 52.2003ZM234.617 50.5981C235.204 50.5981 235.772 50.458 236.319 50.1776C236.866 49.8839 237.327 49.5234 237.701 49.0962V47.4139H235.518C233.502 47.4139 232.494 47.9413 232.494 48.996C232.494 49.4767 232.654 49.8638 232.975 50.1576C233.308 50.4513 233.856 50.5981 234.617 50.5981ZM247.344 56.8064C246.57 56.8064 245.789 56.7062 245.001 56.506C244.213 56.3057 243.566 56.0587 243.058 55.765C242.818 55.6181 242.698 55.3845 242.698 55.0641C242.698 54.8504 242.771 54.6568 242.918 54.4833C243.078 54.3231 243.272 54.243 243.499 54.243C243.606 54.243 243.726 54.2697 243.859 54.3231C244.874 54.8304 245.976 55.0841 247.164 55.0841C249.206 55.0841 250.228 53.996 250.228 51.8198V50.478C249.28 51.4927 248.138 52 246.803 52C246.016 52 245.248 51.8064 244.5 51.4192C243.766 51.0187 243.159 50.4313 242.678 49.6569C242.197 48.8692 241.957 47.9146 241.957 46.7931C241.957 45.6716 242.197 44.7237 242.678 43.9494C243.159 43.1617 243.766 42.5742 244.5 42.187C245.248 41.7865 246.016 41.5862 246.803 41.5862C248.138 41.5862 249.28 42.0936 250.228 43.1082V42.6076C250.228 42.3539 250.315 42.1403 250.488 41.9667C250.662 41.7798 250.875 41.6864 251.129 41.6864C251.383 41.6864 251.596 41.7798 251.77 41.9667C251.957 42.1403 252.05 42.3539 252.05 42.6076V51.5594C252.05 53.2416 251.643 54.5367 250.829 55.4446C250.014 56.3524 248.853 56.8064 247.344 56.8064ZM247.184 50.3378C247.811 50.3378 248.365 50.2043 248.846 49.9373C249.327 49.6703 249.787 49.3098 250.228 48.8558V44.7304C249.787 44.2765 249.327 43.916 248.846 43.649C248.365 43.3819 247.811 43.2484 247.184 43.2484C246.182 43.2484 245.361 43.5555 244.721 44.1696C244.093 44.7704 243.779 45.6449 243.779 46.7931C243.779 47.9413 244.093 48.8225 244.721 49.4366C245.361 50.0374 246.182 50.3378 247.184 50.3378ZM259.778 52.2003C258.149 52.2003 256.874 51.7397 255.953 50.8184C255.045 49.8839 254.591 48.5755 254.591 46.8932C254.591 45.9453 254.764 45.0708 255.111 44.2698C255.459 43.4687 255.993 42.8212 256.714 42.3272C257.435 41.8332 258.322 41.5862 259.377 41.5862C260.365 41.5862 261.22 41.8199 261.941 42.2872C262.661 42.7411 263.209 43.3552 263.583 44.1296C263.957 44.8906 264.143 45.725 264.143 46.6329C264.143 46.8866 264.057 47.1002 263.883 47.2738C263.723 47.4473 263.503 47.5341 263.222 47.5341H256.433C256.54 48.4687 256.887 49.1963 257.475 49.717C258.062 50.2377 258.883 50.498 259.938 50.498C260.499 50.498 260.986 50.4446 261.4 50.3378C261.827 50.231 262.241 50.0775 262.641 49.8772C262.748 49.8238 262.868 49.7971 263.002 49.7971C263.216 49.7971 263.402 49.8705 263.563 50.0174C263.723 50.1642 263.803 50.3512 263.803 50.5781C263.803 50.8718 263.629 51.1188 263.282 51.3191C262.762 51.6128 262.248 51.8331 261.74 51.98C261.233 52.1268 260.579 52.2003 259.778 52.2003ZM262.341 46.0521C262.301 45.3979 262.127 44.8505 261.82 44.41C261.527 43.9694 261.159 43.649 260.719 43.4487C260.278 43.2351 259.831 43.1283 259.377 43.1283C258.923 43.1283 258.476 43.2351 258.035 43.4487C257.595 43.649 257.228 43.9694 256.934 44.41C256.64 44.8505 256.473 45.3979 256.433 46.0521H262.341ZM274.801 52.1001C274.534 52.1001 274.294 52.02 274.08 51.8598C273.866 51.6996 273.72 51.4993 273.639 51.259L270.796 42.928C270.756 42.8078 270.736 42.6944 270.736 42.5876C270.736 42.3339 270.822 42.1203 270.996 41.9467C271.169 41.7731 271.383 41.6864 271.637 41.6864C271.824 41.6864 271.991 41.7398 272.137 41.8466C272.298 41.94 272.404 42.0669 272.458 42.2271L274.801 49.9373L277.124 42.4073C277.191 42.1937 277.311 42.0201 277.484 41.8866C277.671 41.7531 277.878 41.6864 278.105 41.6864C278.332 41.6864 278.533 41.7531 278.706 41.8866C278.893 42.0201 279.02 42.1937 279.087 42.4073L281.41 49.9373L283.753 42.2271C283.806 42.0669 283.906 41.94 284.053 41.8466C284.213 41.7398 284.387 41.6864 284.574 41.6864C284.828 41.6864 285.041 41.7731 285.215 41.9467C285.388 42.1203 285.475 42.3339 285.475 42.5876C285.475 42.6944 285.455 42.8078 285.415 42.928L282.571 51.259C282.491 51.4993 282.344 51.6996 282.131 51.8598C281.917 52.02 281.677 52.1001 281.41 52.1001C281.143 52.1001 280.902 52.02 280.689 51.8598C280.475 51.6996 280.322 51.4927 280.228 51.239L278.105 44.6102L275.983 51.239C275.889 51.4927 275.736 51.6996 275.522 51.8598C275.308 52.02 275.068 52.1001 274.801 52.1001ZM291.102 52.2003C290.368 52.2003 289.727 52.0267 289.18 51.6796C288.646 51.3325 288.232 50.8585 287.938 50.2577C287.658 49.6569 287.518 48.996 287.518 48.2751V42.5876C287.518 42.3339 287.604 42.1203 287.778 41.9467C287.965 41.7731 288.185 41.6864 288.439 41.6864C288.692 41.6864 288.906 41.7731 289.08 41.9467C289.253 42.1203 289.34 42.3339 289.34 42.5876V48.0748C289.34 49.7036 290.074 50.518 291.543 50.518C292.21 50.518 292.805 50.3445 293.325 49.9974C293.859 49.6502 294.36 49.1829 294.827 48.5955V42.5876C294.827 42.3339 294.914 42.1203 295.088 41.9467C295.275 41.7731 295.495 41.6864 295.748 41.6864C296.002 41.6864 296.216 41.7731 296.389 41.9467C296.563 42.1203 296.65 42.3339 296.65 42.5876V51.1789C296.65 51.4326 296.563 51.6529 296.389 51.8398C296.216 52.0134 296.002 52.1001 295.748 52.1001C295.495 52.1001 295.275 52.0134 295.088 51.8398C294.914 51.6529 294.827 51.4326 294.827 51.1789V50.3578C294.32 50.9186 293.773 51.3658 293.185 51.6996C292.598 52.0334 291.903 52.2003 291.102 52.2003ZM300.723 52.1001C300.469 52.1001 300.255 52.0134 300.082 51.8398C299.908 51.6662 299.821 51.4526 299.821 51.1989V42.6076C299.821 42.3539 299.908 42.1403 300.082 41.9667C300.255 41.7798 300.469 41.6864 300.723 41.6864C300.976 41.6864 301.19 41.7798 301.363 41.9667C301.55 42.1403 301.644 42.3539 301.644 42.6076V43.4687C302.578 42.2137 303.626 41.5862 304.788 41.5862H304.888C305.142 41.5862 305.349 41.673 305.509 41.8466C305.682 42.0201 305.769 42.2338 305.769 42.4874C305.769 42.7411 305.682 42.948 305.509 43.1082C305.335 43.2685 305.115 43.3486 304.848 43.3486H304.748C304.107 43.3486 303.52 43.5088 302.986 43.8292C302.452 44.1363 302.004 44.5635 301.644 45.1109V51.1989C301.644 51.4526 301.55 51.6662 301.363 51.8398C301.19 52.0134 300.976 52.1001 300.723 52.1001ZM311.42 52.2003C310.592 52.2003 309.805 51.9933 309.057 51.5794C308.323 51.1522 307.722 50.5381 307.254 49.737C306.801 48.9226 306.574 47.9747 306.574 46.8932C306.574 45.8118 306.801 44.8706 307.254 44.0695C307.722 43.2551 308.323 42.641 309.057 42.2271C309.805 41.7999 310.592 41.5862 311.42 41.5862C312.728 41.5862 313.87 42.0936 314.845 43.1082V38.2018C314.845 37.9347 314.931 37.7145 315.105 37.5409C315.292 37.3673 315.512 37.2805 315.766 37.2805C316.019 37.2805 316.233 37.374 316.407 37.5609C316.58 37.7345 316.667 37.9481 316.667 38.2018V51.1989C316.667 51.4526 316.58 51.6662 316.407 51.8398C316.233 52.0134 316.019 52.1001 315.766 52.1001C315.512 52.1001 315.292 52.0134 315.105 51.8398C314.931 51.6662 314.845 51.4526 314.845 51.1989V50.6783C313.87 51.6929 312.728 52.2003 311.42 52.2003ZM311.68 50.498C312.294 50.498 312.869 50.3645 313.403 50.0975C313.95 49.8171 314.431 49.45 314.845 48.996V44.7905C314.431 44.3365 313.95 43.9761 313.403 43.709C312.869 43.4287 312.294 43.2885 311.68 43.2885C310.692 43.2885 309.898 43.6022 309.297 44.2297C308.696 44.8572 308.396 45.7451 308.396 46.8932C308.396 48.0414 308.696 48.9293 309.297 49.5568C309.898 50.1843 310.692 50.498 311.68 50.498ZM324.394 52.2003C322.765 52.2003 321.49 51.7397 320.569 50.8184C319.661 49.8839 319.207 48.5755 319.207 46.8932C319.207 45.9453 319.381 45.0708 319.728 44.2698C320.075 43.4687 320.609 42.8212 321.33 42.3272C322.051 41.8332 322.939 41.5862 323.994 41.5862C324.982 41.5862 325.836 41.8199 326.557 42.2872C327.278 42.7411 327.826 43.3552 328.199 44.1296C328.573 44.8906 328.76 45.725 328.76 46.6329C328.76 46.8866 328.673 47.1002 328.5 47.2738C328.34 47.4473 328.119 47.5341 327.839 47.5341H321.05C321.157 48.4687 321.504 49.1963 322.091 49.717C322.679 50.2377 323.5 50.498 324.555 50.498C325.115 50.498 325.603 50.4446 326.016 50.3378C326.444 50.231 326.858 50.0775 327.258 49.8772C327.365 49.8238 327.485 49.7971 327.619 49.7971C327.832 49.7971 328.019 49.8705 328.179 50.0174C328.34 50.1642 328.42 50.3512 328.42 50.5781C328.42 50.8718 328.246 51.1188 327.899 51.3191C327.378 51.6128 326.864 51.8331 326.357 51.98C325.85 52.1268 325.195 52.2003 324.394 52.2003ZM326.958 46.0521C326.918 45.3979 326.744 44.8505 326.437 44.41C326.143 43.9694 325.776 43.649 325.336 43.4487C324.895 43.2351 324.448 43.1283 323.994 43.1283C323.54 43.1283 323.093 43.2351 322.652 43.4487C322.211 43.649 321.844 43.9694 321.551 44.41C321.257 44.8505 321.09 45.3979 321.05 46.0521H326.958ZM151.233 78.1001C150.993 78.1001 150.773 78.0334 150.572 77.8999C150.372 77.753 150.225 77.5728 150.132 77.3592L146.647 69.0281C146.58 68.8679 146.547 68.7277 146.547 68.6076C146.547 68.3539 146.634 68.1403 146.807 67.9667C146.981 67.7798 147.195 67.6864 147.448 67.6864C147.622 67.6864 147.782 67.7398 147.929 67.8466C148.089 67.94 148.203 68.0602 148.269 68.2071L151.333 75.9773L154.397 68.2071C154.464 68.0602 154.571 67.94 154.718 67.8466C154.878 67.7398 155.045 67.6864 155.219 67.6864C155.472 67.6864 155.686 67.7798 155.859 67.9667C156.033 68.1403 156.12 68.3539 156.12 68.6076C156.12 68.7277 156.086 68.8679 156.02 69.0281L152.535 77.3592C152.442 77.5728 152.295 77.753 152.094 77.8999C151.894 78.0334 151.674 78.1001 151.434 78.1001H151.233ZM162.657 78.2003C161.028 78.2003 159.753 77.7397 158.832 76.8184C157.924 75.8839 157.47 74.5755 157.47 72.8932C157.47 71.9453 157.644 71.0708 157.991 70.2698C158.338 69.4687 158.872 68.8212 159.593 68.3272C160.314 67.8332 161.202 67.5862 162.257 67.5862C163.245 67.5862 164.099 67.8199 164.82 68.2872C165.541 68.7411 166.088 69.3552 166.462 70.1296C166.836 70.8906 167.023 71.725 167.023 72.6329C167.023 72.8866 166.936 73.1002 166.763 73.2738C166.602 73.4473 166.382 73.5341 166.102 73.5341H159.313C159.419 74.4687 159.767 75.1963 160.354 75.717C160.941 76.2377 161.763 76.498 162.817 76.498C163.378 76.498 163.865 76.4446 164.279 76.3378C164.706 76.231 165.12 76.0775 165.521 75.8772C165.628 75.8238 165.748 75.7971 165.881 75.7971C166.095 75.7971 166.282 75.8705 166.442 76.0174C166.602 76.1642 166.682 76.3512 166.682 76.5781C166.682 76.8718 166.509 77.1188 166.162 77.3191C165.641 77.6128 165.127 77.8331 164.62 77.98C164.112 78.1268 163.458 78.2003 162.657 78.2003ZM165.22 72.0521C165.18 71.3979 165.007 70.8505 164.7 70.41C164.406 69.9694 164.039 69.649 163.598 69.4487C163.158 69.2351 162.711 69.1283 162.257 69.1283C161.803 69.1283 161.355 69.2351 160.915 69.4487C160.474 69.649 160.107 69.9694 159.813 70.41C159.52 70.8505 159.353 71.3979 159.313 72.0521H165.22ZM170.335 78.1001C170.082 78.1001 169.868 78.0134 169.695 77.8398C169.521 77.6662 169.434 77.4526 169.434 77.1989V68.6076C169.434 68.3539 169.521 68.1403 169.695 67.9667C169.868 67.7798 170.082 67.6864 170.335 67.6864C170.589 67.6864 170.803 67.7798 170.976 67.9667C171.163 68.1403 171.257 68.3539 171.257 68.6076V69.4687C172.191 68.2137 173.239 67.5862 174.401 67.5862H174.501C174.755 67.5862 174.961 67.673 175.122 67.8466C175.295 68.0201 175.382 68.2338 175.382 68.4874C175.382 68.7411 175.295 68.948 175.122 69.1082C174.948 69.2685 174.728 69.3486 174.461 69.3486H174.361C173.72 69.3486 173.132 69.5088 172.598 69.8292C172.064 70.1363 171.617 70.5635 171.257 71.1109V77.1989C171.257 77.4526 171.163 77.6662 170.976 77.8398C170.803 78.0134 170.589 78.1001 170.335 78.1001ZM180.405 78.2003C179.07 78.2003 177.855 77.8999 176.76 77.2991C176.533 77.1389 176.42 76.9186 176.42 76.6382C176.42 76.4246 176.493 76.2377 176.64 76.0775C176.787 75.9172 176.974 75.8371 177.201 75.8371C177.321 75.8371 177.441 75.8638 177.561 75.9172C177.988 76.1042 178.416 76.251 178.843 76.3578C179.27 76.4646 179.751 76.518 180.285 76.518C181.767 76.518 182.508 76.0441 182.508 75.0962C182.508 74.7891 182.334 74.5554 181.987 74.3952C181.653 74.235 181.099 74.0548 180.325 73.8545C179.537 73.6676 178.883 73.474 178.362 73.2738C177.855 73.0735 177.414 72.7731 177.04 72.3726C176.68 71.9587 176.5 71.418 176.5 70.7504C176.5 69.8158 176.834 69.0548 177.501 68.4674C178.182 67.88 179.15 67.5862 180.405 67.5862C181.433 67.5862 182.401 67.7531 183.309 68.0869C183.496 68.1403 183.636 68.2404 183.729 68.3873C183.836 68.5342 183.89 68.6877 183.89 68.8479C183.89 69.0615 183.809 69.2484 183.649 69.4086C183.502 69.5689 183.315 69.649 183.088 69.649C183.022 69.649 182.935 69.6356 182.828 69.6089C182.054 69.3686 181.293 69.2484 180.545 69.2484C179.824 69.2484 179.257 69.3819 178.843 69.649C178.442 69.9026 178.242 70.2364 178.242 70.6503C178.242 71.0508 178.429 71.3445 178.803 71.5314C179.177 71.7184 179.757 71.8986 180.545 72.0722C181.333 72.2724 181.974 72.4727 182.468 72.673C182.962 72.8599 183.382 73.1603 183.729 73.5741C184.09 73.988 184.27 74.5421 184.27 75.2363C184.27 76.0908 183.93 76.7984 183.249 77.3592C182.581 77.9199 181.633 78.2003 180.405 78.2003ZM191.289 78.2003C189.66 78.2003 188.385 77.7397 187.464 76.8184C186.556 75.8839 186.102 74.5755 186.102 72.8932C186.102 71.9453 186.275 71.0708 186.623 70.2698C186.97 69.4687 187.504 68.8212 188.225 68.3272C188.946 67.8332 189.833 67.5862 190.888 67.5862C191.876 67.5862 192.731 67.8199 193.452 68.2872C194.173 68.7411 194.72 69.3552 195.094 70.1296C195.468 70.8906 195.654 71.725 195.654 72.6329C195.654 72.8866 195.568 73.1002 195.394 73.2738C195.234 73.4473 195.014 73.5341 194.733 73.5341H187.944C188.051 74.4687 188.398 75.1963 188.986 75.717C189.573 76.2377 190.394 76.498 191.449 76.498C192.01 76.498 192.497 76.4446 192.911 76.3378C193.338 76.231 193.752 76.0775 194.152 75.8772C194.259 75.8238 194.379 75.7971 194.513 75.7971C194.727 75.7971 194.913 75.8705 195.074 76.0174C195.234 76.1642 195.314 76.3512 195.314 76.5781C195.314 76.8718 195.14 77.1188 194.793 77.3191C194.273 77.6128 193.759 77.8331 193.251 77.98C192.744 78.1268 192.09 78.2003 191.289 78.2003ZM193.852 72.0521C193.812 71.3979 193.638 70.8505 193.331 70.41C193.038 69.9694 192.671 69.649 192.23 69.4487C191.789 69.2351 191.342 69.1283 190.888 69.1283C190.434 69.1283 189.987 69.2351 189.546 69.4487C189.106 69.649 188.739 69.9694 188.445 70.41C188.151 70.8505 187.984 71.3979 187.944 72.0521H193.852ZM198.967 78.1001C198.713 78.1001 198.5 78.0134 198.326 77.8398C198.153 77.6662 198.066 77.4526 198.066 77.1989V68.6076C198.066 68.3539 198.153 68.1403 198.326 67.9667C198.5 67.7798 198.713 67.6864 198.967 67.6864C199.221 67.6864 199.434 67.7798 199.608 67.9667C199.795 68.1403 199.888 68.3539 199.888 68.6076V69.4287C200.396 68.8679 200.943 68.4207 201.53 68.0869C202.118 67.7531 202.812 67.5862 203.613 67.5862C204.347 67.5862 204.982 67.7598 205.516 68.1069C206.063 68.454 206.477 68.928 206.757 69.5288C207.051 70.1296 207.198 70.7905 207.198 71.5114V77.1989C207.198 77.4526 207.104 77.6662 206.917 77.8398C206.744 78.0134 206.53 78.1001 206.277 78.1001C206.023 78.1001 205.809 78.0134 205.636 77.8398C205.462 77.6662 205.375 77.4526 205.375 77.1989V71.7117C205.375 70.0829 204.641 69.2685 203.173 69.2685C202.505 69.2685 201.904 69.442 201.37 69.7891C200.849 70.1363 200.355 70.6036 199.888 71.191V77.1989C199.888 77.4526 199.795 77.6662 199.608 77.8398C199.434 78.0134 199.221 78.1001 198.967 78.1001ZM214.495 78.2003C213.667 78.2003 212.88 77.9933 212.132 77.5794C211.398 77.1522 210.797 76.5381 210.329 75.737C209.876 74.9226 209.649 73.9747 209.649 72.8932C209.649 71.8118 209.876 70.8706 210.329 70.0695C210.797 69.2551 211.398 68.641 212.132 68.2271C212.88 67.7999 213.667 67.5862 214.495 67.5862C215.803 67.5862 216.945 68.0936 217.92 69.1082V64.2018C217.92 63.9347 218.006 63.7145 218.18 63.5409C218.367 63.3673 218.587 63.2805 218.841 63.2805C219.094 63.2805 219.308 63.374 219.482 63.5609C219.655 63.7345 219.742 63.9481 219.742 64.2018V77.1989C219.742 77.4526 219.655 77.6662 219.482 77.8398C219.308 78.0134 219.094 78.1001 218.841 78.1001C218.587 78.1001 218.367 78.0134 218.18 77.8398C218.006 77.6662 217.92 77.4526 217.92 77.1989V76.6783C216.945 77.6929 215.803 78.2003 214.495 78.2003ZM214.755 76.498C215.369 76.498 215.944 76.3645 216.478 76.0975C217.025 75.8171 217.506 75.45 217.92 74.996V70.7905C217.506 70.3365 217.025 69.9761 216.478 69.709C215.944 69.4287 215.369 69.2885 214.755 69.2885C213.767 69.2885 212.973 69.6022 212.372 70.2297C211.771 70.8572 211.471 71.7451 211.471 72.8932C211.471 74.0414 211.771 74.9293 212.372 75.5568C212.973 76.1843 213.767 76.498 214.755 76.498ZM227.469 78.2003C225.841 78.2003 224.565 77.7397 223.644 76.8184C222.736 75.8839 222.282 74.5755 222.282 72.8932C222.282 71.9453 222.456 71.0708 222.803 70.2698C223.15 69.4687 223.684 68.8212 224.405 68.3272C225.126 67.8332 226.014 67.5862 227.069 67.5862C228.057 67.5862 228.911 67.8199 229.632 68.2872C230.353 68.7411 230.901 69.3552 231.274 70.1296C231.648 70.8906 231.835 71.725 231.835 72.6329C231.835 72.8866 231.748 73.1002 231.575 73.2738C231.415 73.4473 231.194 73.5341 230.914 73.5341H224.125C224.232 74.4687 224.579 75.1963 225.166 75.717C225.754 76.2377 226.575 76.498 227.63 76.498C228.19 76.498 228.678 76.4446 229.091 76.3378C229.519 76.231 229.933 76.0775 230.333 75.8772C230.44 75.8238 230.56 75.7971 230.694 75.7971C230.907 75.7971 231.094 75.8705 231.254 76.0174C231.415 76.1642 231.495 76.3512 231.495 76.5781C231.495 76.8718 231.321 77.1188 230.974 77.3191C230.453 77.6128 229.939 77.8331 229.432 77.98C228.925 78.1268 228.27 78.2003 227.469 78.2003ZM230.033 72.0521C229.993 71.3979 229.819 70.8505 229.512 70.41C229.218 69.9694 228.851 69.649 228.411 69.4487C227.97 69.2351 227.523 69.1283 227.069 69.1283C226.615 69.1283 226.168 69.2351 225.727 69.4487C225.286 69.649 224.919 69.9694 224.626 70.41C224.332 70.8505 224.165 71.3979 224.125 72.0521H230.033ZM237.771 78.2003C235.822 78.2003 234.847 77.3191 234.847 75.5568V69.3486H233.425C233.319 69.3486 233.225 69.3152 233.145 69.2484C233.078 69.1683 233.045 69.0749 233.045 68.9681C233.045 68.8346 233.105 68.7211 233.225 68.6276L235.949 65.9641C236.069 65.8439 236.182 65.7839 236.289 65.7839C236.396 65.7839 236.483 65.8239 236.549 65.904C236.63 65.9841 236.67 66.0776 236.67 66.1844V67.7865H238.933C239.16 67.7865 239.346 67.8599 239.493 68.0068C239.64 68.1537 239.714 68.3406 239.714 68.5675C239.714 68.7811 239.64 68.9681 239.493 69.1283C239.346 69.2751 239.16 69.3486 238.933 69.3486H236.67V75.3966C236.67 75.9172 236.79 76.251 237.03 76.3979C237.284 76.5314 237.598 76.5981 237.971 76.5981C238.238 76.5981 238.505 76.5581 238.772 76.478C238.826 76.4646 238.879 76.4513 238.933 76.4379C238.999 76.4246 239.079 76.4179 239.173 76.4179C239.36 76.4179 239.527 76.4913 239.674 76.6382C239.82 76.7717 239.894 76.9386 239.894 77.1389C239.894 77.4459 239.74 77.6796 239.433 77.8398C238.913 78.0801 238.359 78.2003 237.771 78.2003Z" fill="#2F80ED"/>
<circle cx="69.9396" cy="63.2159" r="29.7003" fill="#C5DDFF"/>
<g clip-path="url(#clip0_0_330)">
<path d="M101.774 40.8713L60.0442 43.9752C58.2862 44.1059 56.7781 45.2003 56.1083 46.831C55.4387 48.4619 55.7425 50.3003 56.9013 51.6288L66.0527 62.1211L81.0885 54.5295C81.7804 54.1802 82.6246 54.4578 82.974 55.1498C83.3233 55.8417 83.0456 56.6859 82.3537 57.0353L67.3179 64.6269L70.3275 78.2202C70.7085 79.9415 72.0075 81.2775 73.7174 81.7068C75.4306 82.1369 77.2052 81.5698 78.3522 80.2352L105.625 48.4991C106.867 47.0542 107.105 45.1001 106.246 43.3994C105.388 41.6986 103.674 40.7298 101.774 40.8713Z" fill="#2F80ED"/>
</g>
<line x1="37.5502" y1="70.1155" x2="57.3488" y2="60.1191" stroke="#2F80ED" stroke-width="2.73088" stroke-linecap="round"/>
<line x1="46.9833" y1="71.7924" x2="59.9399" y2="65.2505" stroke="#A9A6F9" stroke-width="2.73088" stroke-linecap="round"/>
<line x1="55.561" y1="73.9009" x2="62.5309" y2="70.3818" stroke="#2F80ED" stroke-width="2.73088" stroke-linecap="round"/>
<defs>
<clipPath id="clip0_0_330">
<rect width="47.9037" height="47.9037" fill="white" transform="translate(52.689 43.6091) rotate(-26.7895)"/>
</clipPath>
</defs>
</svg>
