<svg width="17" height="13" viewBox="0 0 17 13" fill="none" xmlns="http://www.w3.org/2000/svg">
<g clip-path="url(#clip0_0_293)">
<path fill-rule="evenodd" clip-rule="evenodd" d="M8.26916 1.55602C8.18314 1.48077 8.08294 1.42347 7.97445 1.38752C7.86596 1.35156 7.75138 1.33766 7.63744 1.34664C7.5235 1.35563 7.4125 1.3873 7.31099 1.43981C7.20947 1.49232 7.11948 1.56461 7.04631 1.65241C6.97315 1.74021 6.91827 1.84176 6.88493 1.95108C6.85159 2.0604 6.84045 2.17529 6.85216 2.28898C6.86387 2.40267 6.8982 2.51287 6.95314 2.6131C7.00807 2.71332 7.08249 2.80155 7.17202 2.87259L10.9692 6.03716H1.19259C0.965264 6.03716 0.747246 6.12747 0.586501 6.28822C0.425755 6.44896 0.335449 6.66698 0.335449 6.89431C0.335449 7.12164 0.425755 7.33965 0.586501 7.5004C0.747246 7.66114 0.965264 7.75145 1.19259 7.75145H10.8132L7.17202 10.7857C6.9972 10.9312 6.88735 11.1402 6.86661 11.3667C6.84587 11.5932 6.91596 11.8186 7.06145 11.9935C7.20694 12.1683 7.41592 12.2781 7.64241 12.2989C7.8689 12.3196 8.09435 12.2495 8.26916 12.104L13.8063 7.48745C13.9028 7.40701 13.9804 7.30635 14.0336 7.19259C14.0869 7.07884 14.1145 6.95477 14.1145 6.82916C14.1145 6.70356 14.0869 6.57949 14.0336 6.46574C13.9804 6.35198 13.9028 6.25132 13.8063 6.17088L8.26916 1.55602Z" fill="white"/>
</g>
<defs>
<clipPath id="clip0_0_293">
<rect width="16" height="12" fill="white" transform="translate(0.0498047 0.5)"/>
</clipPath>
</defs>
</svg>
