<svg width="52" height="52" viewBox="0 0 52 52" fill="none" xmlns="http://www.w3.org/2000/svg">
<rect width="51.6334" height="51.6334" rx="25.8167" fill="#2F80ED"/>
<path d="M24.6029 15.5666L19.1442 17.6232C17.8862 18.0936 16.8579 19.5813 16.8579 20.9159V29.0438C16.8579 30.3346 17.7112 32.0302 18.7504 32.8069L23.4543 36.3184C24.9967 37.478 27.5346 37.478 29.0771 36.3184L33.781 32.8069C34.8202 32.0302 35.6735 30.3346 35.6735 29.0438V20.9159C35.6735 19.5704 34.6452 18.0826 33.3871 17.6122L27.9285 15.5666C26.9986 15.2275 25.5109 15.2275 24.6029 15.5666Z" fill="#2F80ED" stroke="white" stroke-width="1.5" stroke-linecap="round" stroke-linejoin="round"/>
<path d="M23.0273 26.1119L24.7886 27.8731L29.4925 23.1692" fill="#2F80ED"/>
<path d="M23.0273 26.1119L24.7886 27.8731L29.4925 23.1692" stroke="white" stroke-width="1.5" stroke-linecap="round" stroke-linejoin="round"/>
</svg>
