<svg width="129" height="48" viewBox="0 0 129 48" fill="none" xmlns="http://www.w3.org/2000/svg">
<rect width="128.773" height="47.7269" rx="23.8635" fill="#2F80ED"/>
<path d="M43.2199 30.7665C42.6225 30.7665 42.1092 30.6918 41.6799 30.5425C41.2599 30.3838 40.9099 30.1831 40.6299 29.9405C40.3499 29.6885 40.1259 29.4271 39.9579 29.1565C39.7899 28.8858 39.6639 28.6291 39.5799 28.3865C39.4959 28.1345 39.4399 27.9338 39.4119 27.7845C39.3932 27.6258 39.3839 27.5465 39.3839 27.5465H40.7839C40.7839 27.5465 40.7979 27.6118 40.8259 27.7425C40.8539 27.8731 40.9099 28.0365 40.9939 28.2325C41.0872 28.4285 41.2225 28.6291 41.3999 28.8345C41.5772 29.0305 41.8152 29.1938 42.1139 29.3245C42.4125 29.4551 42.7905 29.5205 43.2479 29.5205C43.9385 29.5205 44.4845 29.3571 44.8859 29.0305C45.2872 28.6945 45.4879 28.2605 45.4879 27.7285C45.4879 27.2711 45.3339 26.9165 45.0259 26.6645C44.7272 26.4125 44.2979 26.2165 43.7379 26.0765L42.3659 25.7405C41.8805 25.6191 41.4279 25.4511 41.0079 25.2365C40.5972 25.0125 40.2659 24.7231 40.0139 24.3685C39.7712 24.0045 39.6499 23.5518 39.6499 23.0105C39.6499 22.4038 39.7992 21.8858 40.0979 21.4565C40.3965 21.0271 40.8025 20.7005 41.3159 20.4765C41.8292 20.2431 42.4125 20.1265 43.0659 20.1265C43.7005 20.1265 44.2279 20.2245 44.6479 20.4205C45.0679 20.6165 45.4039 20.8591 45.6559 21.1485C45.9079 21.4285 46.0945 21.7131 46.2159 22.0025C46.3372 22.2825 46.4165 22.5205 46.4539 22.7165C46.4912 22.9125 46.5099 23.0105 46.5099 23.0105H45.1659C45.1659 23.0105 45.1472 22.9265 45.1099 22.7585C45.0725 22.5905 44.9839 22.3991 44.8439 22.1845C44.7039 21.9605 44.4892 21.7645 44.1999 21.5965C43.9105 21.4285 43.5185 21.3445 43.0239 21.3445C42.3519 21.3445 41.8432 21.5031 41.4979 21.8205C41.1619 22.1378 40.9939 22.5018 40.9939 22.9125C40.9939 23.2858 41.1292 23.5891 41.3999 23.8225C41.6705 24.0465 42.0439 24.2191 42.5199 24.3405L44.0039 24.7045C44.5359 24.8351 45.0165 25.0265 45.4459 25.2785C45.8752 25.5211 46.2159 25.8385 46.4679 26.2305C46.7199 26.6131 46.8459 27.0845 46.8459 27.6445C46.8459 28.2045 46.7059 28.7225 46.4259 29.1985C46.1552 29.6745 45.7492 30.0571 45.2079 30.3465C44.6759 30.6265 44.0132 30.7665 43.2199 30.7665ZM53.4711 30.6265L57.1251 20.2665H58.8471L62.5151 30.6265H61.0591L60.1911 28.1485H55.7951L54.9271 30.6265H53.4711ZM56.2151 26.9165H59.7711L57.9931 21.8345L56.2151 26.9165ZM69.8697 30.6265V20.2665H71.2417V29.4225H76.5757V30.6265H69.8697ZM84.2061 30.6265V20.2665H90.7861V21.4705H85.5781V24.7465H90.1421V25.9505H85.5781V29.4225H90.8561V30.6265H84.2061Z" fill="white"/>
</svg>
