<svg width="90" height="77" viewBox="0 0 90 77" fill="none" xmlns="http://www.w3.org/2000/svg">
<circle cx="41.9396" cy="41.2159" r="29.7003" fill="#C5DDFF"/>
<g clip-path="url(#clip0_201_3)">
<path d="M73.774 18.8713L32.0442 21.9752C30.2862 22.1059 28.7781 23.2003 28.1083 24.831C27.4387 26.4619 27.7425 28.3003 28.9013 29.6288L38.0527 40.1211L53.0885 32.5295C53.7804 32.1802 54.6246 32.4578 54.974 33.1498C55.3233 33.8417 55.0456 34.6859 54.3537 35.0353L39.3179 42.6269L42.3275 56.2202C42.7085 57.9415 44.0075 59.2775 45.7174 59.7068C47.4306 60.1369 49.2052 59.5698 50.3522 58.2352L77.6255 26.4991C78.8672 25.0542 79.1051 23.1001 78.2464 21.3994C77.3877 19.6986 75.674 18.7298 73.774 18.8713Z" fill="#2F80ED"/>
</g>
<line x1="9.55024" y1="48.1155" x2="29.3488" y2="38.1191" stroke="#2F80ED" stroke-width="2.73088" stroke-linecap="round"/>
<line x1="18.9833" y1="49.7924" x2="31.9399" y2="43.2505" stroke="#A9A6F9" stroke-width="2.73088" stroke-linecap="round"/>
<line x1="27.561" y1="51.9009" x2="34.5309" y2="48.3818" stroke="#2F80ED" stroke-width="2.73088" stroke-linecap="round"/>
<defs>
<clipPath id="clip0_201_3">
<rect width="47.9037" height="47.9037" fill="white" transform="translate(24.689 21.6091) rotate(-26.7895)"/>
</clipPath>
</defs>
</svg>
