<svg width="71" height="71" viewBox="0 0 71 71" fill="none" xmlns="http://www.w3.org/2000/svg">
<rect width="70.4947" height="70.4947" rx="35.2473" fill="#2F80ED"/>
<path d="M45.5266 22.0293L24.9656 22.0293C23.3434 22.0293 22.0283 23.3443 22.0283 24.9665L22.0283 45.5275C22.0283 47.1497 23.3434 48.4648 24.9656 48.4648H45.5266C47.1488 48.4648 48.4638 47.1497 48.4638 45.5275V24.9665C48.4638 23.3443 47.1488 22.0293 45.5266 22.0293Z" stroke="white" stroke-width="1.66667" stroke-linecap="round" stroke-linejoin="round"/>
<path d="M30.1063 32.3098C31.3229 32.3098 32.3092 31.3235 32.3092 30.1069C32.3092 28.8902 31.3229 27.9039 30.1063 27.9039C28.8896 27.9039 27.9033 28.8902 27.9033 30.1069C27.9033 31.3235 28.8896 32.3098 30.1063 32.3098Z" stroke="white" stroke-width="1.66667" stroke-linecap="round" stroke-linejoin="round"/>
<path d="M48.4645 39.653L41.1213 32.3098L24.9663 48.4648" stroke="white" stroke-width="1.66667" stroke-linecap="round" stroke-linejoin="round"/>
</svg>
