<svg width="320" height="86" viewBox="0 0 320 86" fill="none" xmlns="http://www.w3.org/2000/svg">
<g filter="url(#filter0_d_0_455)">
<rect x="9" y="5" width="302" height="68" rx="10" fill="white"/>
</g>
<path d="M83.1761 32.9091H84.7614V41.5767C84.7614 42.4716 84.5504 43.2706 84.1286 43.9737C83.7109 44.6726 83.1207 45.2244 82.358 45.6293C81.5952 46.0298 80.7003 46.2301 79.6733 46.2301C78.6463 46.2301 77.7514 46.0298 76.9886 45.6293C76.2259 45.2244 75.6335 44.6726 75.2116 43.9737C74.794 43.2706 74.5852 42.4716 74.5852 41.5767V32.9091H76.1705V41.4489C76.1705 42.0881 76.3111 42.657 76.5923 43.1555C76.8736 43.6499 77.2741 44.0398 77.794 44.3253C78.3182 44.6065 78.9446 44.7472 79.6733 44.7472C80.402 44.7472 81.0284 44.6065 81.5526 44.3253C82.0767 44.0398 82.4773 43.6499 82.7543 43.1555C83.0355 42.657 83.1761 42.0881 83.1761 41.4489V32.9091ZM77.8324 31.2727C77.5639 31.2727 77.3253 31.1705 77.1165 30.9659C76.9119 30.7571 76.8097 30.5185 76.8097 30.25C76.8097 29.956 76.9119 29.7131 77.1165 29.5213C77.3253 29.3253 77.5639 29.2273 77.8324 29.2273C78.1264 29.2273 78.3693 29.3253 78.5611 29.5213C78.7571 29.7131 78.8551 29.956 78.8551 30.25C78.8551 30.5185 78.7571 30.7571 78.5611 30.9659C78.3693 31.1705 78.1264 31.2727 77.8324 31.2727ZM81.5142 31.2727C81.2457 31.2727 81.0071 31.1705 80.7983 30.9659C80.5938 30.7571 80.4915 30.5185 80.4915 30.25C80.4915 29.956 80.5938 29.7131 80.7983 29.5213C81.0071 29.3253 81.2457 29.2273 81.5142 29.2273C81.8082 29.2273 82.0511 29.3253 82.2429 29.5213C82.4389 29.7131 82.5369 29.956 82.5369 30.25C82.5369 30.5185 82.4389 30.7571 82.2429 30.9659C82.0511 31.1705 81.8082 31.2727 81.5142 31.2727ZM87.387 46V32.9091H88.8955V37.7415H89.0234C89.1342 37.571 89.2876 37.3537 89.4836 37.0895C89.6839 36.821 89.9694 36.5824 90.3401 36.3736C90.7151 36.1605 91.2223 36.054 91.8615 36.054C92.6882 36.054 93.4169 36.2607 94.0475 36.674C94.6782 37.0874 95.1704 37.6733 95.5241 38.4318C95.8778 39.1903 96.0546 40.0852 96.0546 41.1165C96.0546 42.1562 95.8778 43.0575 95.5241 43.8203C95.1704 44.5788 94.6803 45.1669 94.0539 45.5845C93.4275 45.9979 92.7052 46.2045 91.887 46.2045C91.2563 46.2045 90.7514 46.1001 90.3721 45.8913C89.9928 45.6783 89.7009 45.4375 89.4964 45.169C89.2919 44.8963 89.1342 44.6705 89.0234 44.4915H88.8444V46H87.387ZM88.87 41.0909C88.87 41.8324 88.9786 42.4865 89.196 43.0533C89.4133 43.6158 89.7308 44.0568 90.1484 44.3764C90.566 44.6918 91.0774 44.8494 91.6825 44.8494C92.3132 44.8494 92.8394 44.6832 93.2613 44.3509C93.6875 44.0142 94.0071 43.5625 94.2201 42.9957C94.4375 42.4247 94.5461 41.7898 94.5461 41.0909C94.5461 40.4006 94.4396 39.7784 94.2265 39.2244C94.0177 38.6662 93.7002 38.2251 93.2741 37.9013C92.8522 37.5732 92.3217 37.4091 91.6825 37.4091C91.0688 37.4091 90.5532 37.5646 90.1356 37.8757C89.718 38.1825 89.4026 38.6129 89.1896 39.1669C88.9765 39.7166 88.87 40.358 88.87 41.0909ZM101.939 46.2045C100.993 46.2045 100.177 45.9957 99.4905 45.5781C98.8087 45.1562 98.2824 44.5682 97.9117 43.8139C97.5452 43.0554 97.3619 42.1733 97.3619 41.1676C97.3619 40.1619 97.5452 39.2756 97.9117 38.5085C98.2824 37.7372 98.798 37.1364 99.4585 36.706C100.123 36.2713 100.899 36.054 101.785 36.054C102.297 36.054 102.802 36.1392 103.3 36.3097C103.799 36.4801 104.253 36.7571 104.662 37.1406C105.071 37.5199 105.397 38.0227 105.64 38.6491C105.883 39.2756 106.004 40.0469 106.004 40.9631V41.6023H98.4358V40.2983H104.47C104.47 39.7443 104.359 39.25 104.138 38.8153C103.92 38.3807 103.609 38.0376 103.204 37.7862C102.804 37.5348 102.331 37.4091 101.785 37.4091C101.184 37.4091 100.664 37.5582 100.226 37.8565C99.7909 38.1506 99.4564 38.5341 99.222 39.0071C98.9876 39.4801 98.8705 39.9872 98.8705 40.5284V41.3977C98.8705 42.1392 98.9983 42.7678 99.254 43.2834C99.5139 43.7947 99.874 44.1847 100.334 44.4531C100.794 44.7173 101.329 44.8494 101.939 44.8494C102.335 44.8494 102.693 44.794 103.013 44.6832C103.336 44.5682 103.615 44.3977 103.85 44.1719C104.084 43.9418 104.265 43.6562 104.393 43.3153L105.851 43.7244C105.697 44.2188 105.439 44.6534 105.077 45.0284C104.715 45.3991 104.267 45.6889 103.735 45.8977C103.202 46.1023 102.603 46.2045 101.939 46.2045ZM107.759 46V36.1818H109.216V37.6648H109.318C109.497 37.179 109.821 36.7848 110.29 36.4822C110.759 36.1797 111.287 36.0284 111.875 36.0284C111.986 36.0284 112.124 36.0305 112.291 36.0348C112.457 36.0391 112.583 36.0455 112.668 36.054V37.5881C112.617 37.5753 112.499 37.5561 112.316 37.5305C112.137 37.5007 111.948 37.4858 111.747 37.4858C111.27 37.4858 110.844 37.5859 110.469 37.7862C110.098 37.9822 109.804 38.255 109.587 38.6044C109.374 38.9496 109.267 39.3437 109.267 39.7869V46H107.759ZM116.299 46L113.307 36.1818H114.892L117.015 43.6989H117.117L119.213 36.1818H120.824L122.895 43.6733H122.997L125.12 36.1818H126.705L123.713 46H122.23L120.083 38.4574H119.929L117.782 46H116.299ZM131.942 46.2045C130.996 46.2045 130.18 45.9957 129.494 45.5781C128.812 45.1562 128.285 44.5682 127.915 43.8139C127.548 43.0554 127.365 42.1733 127.365 41.1676C127.365 40.1619 127.548 39.2756 127.915 38.5085C128.285 37.7372 128.801 37.1364 129.462 36.706C130.126 36.2713 130.902 36.054 131.788 36.054C132.3 36.054 132.805 36.1392 133.303 36.3097C133.802 36.4801 134.256 36.7571 134.665 37.1406C135.074 37.5199 135.4 38.0227 135.643 38.6491C135.886 39.2756 136.007 40.0469 136.007 40.9631V41.6023H128.439V40.2983H134.473C134.473 39.7443 134.362 39.25 134.141 38.8153C133.923 38.3807 133.612 38.0376 133.207 37.7862C132.807 37.5348 132.334 37.4091 131.788 37.4091C131.187 37.4091 130.668 37.5582 130.229 37.8565C129.794 38.1506 129.459 38.5341 129.225 39.0071C128.991 39.4801 128.874 39.9872 128.874 40.5284V41.3977C128.874 42.1392 129.001 42.7678 129.257 43.2834C129.517 43.7947 129.877 44.1847 130.337 44.4531C130.798 44.7173 131.332 44.8494 131.942 44.8494C132.338 44.8494 132.696 44.794 133.016 44.6832C133.339 44.5682 133.619 44.3977 133.853 44.1719C134.087 43.9418 134.268 43.6562 134.396 43.3153L135.854 43.7244C135.7 44.2188 135.442 44.6534 135.08 45.0284C134.718 45.3991 134.271 45.6889 133.738 45.8977C133.205 46.1023 132.606 46.2045 131.942 46.2045ZM137.762 46V36.1818H139.27V46H137.762ZM138.529 34.5455C138.235 34.5455 137.981 34.4453 137.768 34.245C137.559 34.0447 137.455 33.804 137.455 33.5227C137.455 33.2415 137.559 33.0007 137.768 32.8004C137.981 32.6001 138.235 32.5 138.529 32.5C138.823 32.5 139.074 32.6001 139.283 32.8004C139.496 33.0007 139.603 33.2415 139.603 33.5227C139.603 33.804 139.496 34.0447 139.283 34.245C139.074 34.4453 138.823 34.5455 138.529 34.5455ZM148.448 38.3807L147.093 38.7642C147.007 38.5384 146.882 38.3189 146.716 38.1058C146.554 37.8885 146.332 37.7095 146.051 37.5689C145.77 37.4283 145.409 37.358 144.971 37.358C144.37 37.358 143.869 37.4964 143.468 37.7734C143.072 38.0462 142.874 38.3935 142.874 38.8153C142.874 39.1903 143.01 39.4865 143.283 39.7038C143.556 39.9212 143.982 40.1023 144.561 40.2472L146.019 40.6051C146.897 40.8182 147.551 41.1442 147.981 41.5831C148.412 42.0178 148.627 42.5781 148.627 43.2642C148.627 43.8267 148.465 44.3295 148.141 44.7727C147.821 45.2159 147.374 45.5653 146.799 45.821C146.223 46.0767 145.554 46.2045 144.792 46.2045C143.79 46.2045 142.961 45.9872 142.305 45.5526C141.649 45.1179 141.233 44.483 141.059 43.6477L142.49 43.2898C142.627 43.8182 142.885 44.2145 143.264 44.4787C143.647 44.7429 144.148 44.875 144.766 44.875C145.469 44.875 146.027 44.7259 146.441 44.4276C146.858 44.125 147.067 43.7628 147.067 43.3409C147.067 43 146.948 42.7145 146.709 42.4844C146.471 42.25 146.104 42.0753 145.61 41.9602L143.973 41.5767C143.074 41.3636 142.414 41.0334 141.992 40.5859C141.574 40.1342 141.365 39.5696 141.365 38.892C141.365 38.3381 141.521 37.848 141.832 37.4219C142.147 36.9957 142.576 36.6612 143.117 36.4183C143.662 36.1754 144.28 36.054 144.971 36.054C145.942 36.054 146.705 36.267 147.259 36.6932C147.817 37.1193 148.213 37.6818 148.448 38.3807ZM156.545 41.9858V36.1818H158.054V46H156.545V44.3381H156.443C156.213 44.8366 155.855 45.2607 155.369 45.6101C154.883 45.9553 154.269 46.1278 153.528 46.1278C152.914 46.1278 152.369 45.9936 151.892 45.7251C151.414 45.4524 151.039 45.0433 150.767 44.4979C150.494 43.9482 150.358 43.2557 150.358 42.4205V36.1818H151.866V42.3182C151.866 43.0341 152.066 43.6051 152.467 44.0312C152.872 44.4574 153.387 44.6705 154.014 44.6705C154.389 44.6705 154.77 44.5746 155.158 44.3828C155.55 44.1911 155.878 43.897 156.142 43.5007C156.411 43.1044 156.545 42.5994 156.545 41.9858ZM161.785 40.0938V46H160.277V36.1818H161.734V37.7159H161.862C162.092 37.2173 162.441 36.8168 162.91 36.5142C163.379 36.2074 163.984 36.054 164.725 36.054C165.39 36.054 165.972 36.1903 166.47 36.4631C166.969 36.7315 167.357 37.1406 167.634 37.6903C167.911 38.2358 168.049 38.9261 168.049 39.7614V46H166.541V39.8636C166.541 39.0923 166.34 38.4915 165.94 38.0611C165.539 37.6264 164.99 37.4091 164.291 37.4091C163.809 37.4091 163.379 37.5135 163 37.7223C162.625 37.9311 162.328 38.2358 162.111 38.6364C161.894 39.0369 161.785 39.5227 161.785 40.0938ZM174.229 49.8864C173.5 49.8864 172.874 49.7926 172.35 49.6051C171.825 49.4219 171.389 49.179 171.039 48.8764C170.694 48.5781 170.419 48.2585 170.215 47.9176L171.416 47.0739C171.553 47.2528 171.725 47.4574 171.934 47.6875C172.143 47.9219 172.428 48.1243 172.791 48.2947C173.157 48.4695 173.637 48.5568 174.229 48.5568C175.022 48.5568 175.676 48.3651 176.191 47.9815C176.707 47.598 176.965 46.9972 176.965 46.179V44.1847H176.837C176.726 44.3636 176.568 44.5852 176.364 44.8494C176.164 45.1094 175.874 45.3416 175.495 45.5462C175.12 45.7464 174.612 45.8466 173.973 45.8466C173.181 45.8466 172.469 45.6591 171.838 45.2841C171.212 44.9091 170.715 44.3636 170.349 43.6477C169.987 42.9318 169.806 42.0625 169.806 41.0398C169.806 40.0341 169.982 39.1584 170.336 38.4126C170.69 37.6626 171.182 37.0831 171.813 36.674C172.443 36.2607 173.172 36.054 173.999 36.054C174.638 36.054 175.145 36.1605 175.52 36.3736C175.899 36.5824 176.189 36.821 176.389 37.0895C176.594 37.3537 176.752 37.571 176.862 37.7415H177.016V36.1818H178.473V46.2812C178.473 47.125 178.281 47.8111 177.898 48.3395C177.519 48.8722 177.007 49.2621 176.364 49.5092C175.725 49.7607 175.013 49.8864 174.229 49.8864ZM174.178 44.4915C174.783 44.4915 175.294 44.353 175.712 44.076C176.129 43.799 176.447 43.4006 176.664 42.8807C176.882 42.3608 176.99 41.7386 176.99 41.0142C176.99 40.3068 176.884 39.6825 176.671 39.1413C176.458 38.6001 176.142 38.1761 175.725 37.8693C175.307 37.5625 174.791 37.4091 174.178 37.4091C173.539 37.4091 173.006 37.571 172.58 37.8949C172.158 38.2187 171.84 38.6534 171.627 39.1989C171.419 39.7443 171.314 40.3494 171.314 41.0142C171.314 41.696 171.421 42.299 171.634 42.8232C171.851 43.343 172.171 43.7521 172.593 44.0504C173.019 44.3445 173.547 44.4915 174.178 44.4915ZM189.334 46.2045C188.388 46.2045 187.571 45.9957 186.885 45.5781C186.204 45.1562 185.677 44.5682 185.307 43.8139C184.94 43.0554 184.757 42.1733 184.757 41.1676C184.757 40.1619 184.94 39.2756 185.307 38.5085C185.677 37.7372 186.193 37.1364 186.853 36.706C187.518 36.2713 188.294 36.054 189.18 36.054C189.692 36.054 190.196 36.1392 190.695 36.3097C191.194 36.4801 191.647 36.7571 192.057 37.1406C192.466 37.5199 192.792 38.0227 193.035 38.6491C193.277 39.2756 193.399 40.0469 193.399 40.9631V41.6023H185.831V40.2983H191.865C191.865 39.7443 191.754 39.25 191.532 38.8153C191.315 38.3807 191.004 38.0376 190.599 37.7862C190.199 37.5348 189.726 37.4091 189.18 37.4091C188.579 37.4091 188.059 37.5582 187.62 37.8565C187.186 38.1506 186.851 38.5341 186.617 39.0071C186.383 39.4801 186.265 39.9872 186.265 40.5284V41.3977C186.265 42.1392 186.393 42.7678 186.649 43.2834C186.909 43.7947 187.269 44.1847 187.729 44.4531C188.189 44.7173 188.724 44.8494 189.334 44.8494C189.73 44.8494 190.088 44.794 190.407 44.6832C190.731 44.5682 191.01 44.3977 191.245 44.1719C191.479 43.9418 191.66 43.6562 191.788 43.3153L193.245 43.7244C193.092 44.2188 192.834 44.6534 192.472 45.0284C192.11 45.3991 191.662 45.6889 191.13 45.8977C190.597 46.1023 189.998 46.2045 189.334 46.2045ZM195.154 46V36.1818H196.611V37.6648H196.713C196.892 37.179 197.216 36.7848 197.685 36.4822C198.154 36.1797 198.682 36.0284 199.27 36.0284C199.381 36.0284 199.519 36.0305 199.686 36.0348C199.852 36.0391 199.978 36.0455 200.063 36.054V37.5881C200.012 37.5753 199.894 37.5561 199.711 37.5305C199.532 37.5007 199.343 37.4858 199.142 37.4858C198.665 37.4858 198.239 37.5859 197.864 37.7862C197.493 37.9822 197.199 38.255 196.982 38.6044C196.769 38.9496 196.662 39.3437 196.662 39.7869V46H195.154ZM206.298 36.1818V37.4602H201.006V36.1818H206.298ZM202.591 46V34.8267C202.591 34.2642 202.723 33.7955 202.987 33.4205C203.251 33.0455 203.594 32.7642 204.016 32.5767C204.438 32.3892 204.884 32.2955 205.352 32.2955C205.723 32.2955 206.026 32.3253 206.26 32.3849C206.494 32.4446 206.669 32.5 206.784 32.5511L206.349 33.8551C206.273 33.8295 206.166 33.7976 206.03 33.7592C205.898 33.7209 205.723 33.7017 205.506 33.7017C205.007 33.7017 204.647 33.8274 204.425 34.0788C204.208 34.3303 204.099 34.6989 204.099 35.1847V46H202.591ZM211.457 46.2045C210.57 46.2045 209.793 45.9936 209.124 45.5717C208.459 45.1499 207.939 44.5597 207.564 43.8011C207.193 43.0426 207.008 42.1562 207.008 41.142C207.008 40.1193 207.193 39.2266 207.564 38.4638C207.939 37.701 208.459 37.1087 209.124 36.6868C209.793 36.2649 210.57 36.054 211.457 36.054C212.343 36.054 213.119 36.2649 213.784 36.6868C214.453 37.1087 214.972 37.701 215.343 38.4638C215.718 39.2266 215.906 40.1193 215.906 41.142C215.906 42.1562 215.718 43.0426 215.343 43.8011C214.972 44.5597 214.453 45.1499 213.784 45.5717C213.119 45.9936 212.343 46.2045 211.457 46.2045ZM211.457 44.8494C212.13 44.8494 212.684 44.6768 213.119 44.3317C213.553 43.9865 213.875 43.5327 214.084 42.9702C214.293 42.4077 214.397 41.7983 214.397 41.142C214.397 40.4858 214.293 39.8743 214.084 39.3075C213.875 38.7408 213.553 38.2827 213.119 37.9332C212.684 37.5838 212.13 37.4091 211.457 37.4091C210.784 37.4091 210.23 37.5838 209.795 37.9332C209.36 38.2827 209.038 38.7408 208.83 39.3075C208.621 39.8743 208.516 40.4858 208.516 41.142C208.516 41.7983 208.621 42.4077 208.83 42.9702C209.038 43.5327 209.36 43.9865 209.795 44.3317C210.23 44.6768 210.784 44.8494 211.457 44.8494ZM219.177 32.9091V46H217.668V32.9091H219.177ZM225.363 49.8864C224.634 49.8864 224.008 49.7926 223.484 49.6051C222.96 49.4219 222.523 49.179 222.173 48.8764C221.828 48.5781 221.553 48.2585 221.349 47.9176L222.55 47.0739C222.687 47.2528 222.859 47.4574 223.068 47.6875C223.277 47.9219 223.563 48.1243 223.925 48.2947C224.291 48.4695 224.771 48.5568 225.363 48.5568C226.156 48.5568 226.81 48.3651 227.325 47.9815C227.841 47.598 228.099 46.9972 228.099 46.179V44.1847H227.971C227.86 44.3636 227.702 44.5852 227.498 44.8494C227.298 45.1094 227.008 45.3416 226.629 45.5462C226.254 45.7464 225.746 45.8466 225.107 45.8466C224.315 45.8466 223.603 45.6591 222.972 45.2841C222.346 44.9091 221.849 44.3636 221.483 43.6477C221.121 42.9318 220.94 42.0625 220.94 41.0398C220.94 40.0341 221.117 39.1584 221.47 38.4126C221.824 37.6626 222.316 37.0831 222.947 36.674C223.577 36.2607 224.306 36.054 225.133 36.054C225.772 36.054 226.279 36.1605 226.654 36.3736C227.033 36.5824 227.323 36.821 227.523 37.0895C227.728 37.3537 227.886 37.571 227.996 37.7415H228.15V36.1818H229.607V46.2812C229.607 47.125 229.416 47.8111 229.032 48.3395C228.653 48.8722 228.141 49.2621 227.498 49.5092C226.859 49.7607 226.147 49.8864 225.363 49.8864ZM225.312 44.4915C225.917 44.4915 226.428 44.353 226.846 44.076C227.264 43.799 227.581 43.4006 227.798 42.8807C228.016 42.3608 228.124 41.7386 228.124 41.0142C228.124 40.3068 228.018 39.6825 227.805 39.1413C227.592 38.6001 227.276 38.1761 226.859 37.8693C226.441 37.5625 225.925 37.4091 225.312 37.4091C224.673 37.4091 224.14 37.571 223.714 37.8949C223.292 38.2187 222.974 38.6534 222.761 39.1989C222.553 39.7443 222.448 40.3494 222.448 41.0142C222.448 41.696 222.555 42.299 222.768 42.8232C222.985 43.343 223.305 43.7521 223.727 44.0504C224.153 44.3445 224.681 44.4915 225.312 44.4915ZM231.829 46V36.1818H233.286V37.6648H233.388C233.567 37.179 233.891 36.7848 234.36 36.4822C234.829 36.1797 235.357 36.0284 235.945 36.0284C236.056 36.0284 236.194 36.0305 236.361 36.0348C236.527 36.0391 236.653 36.0455 236.738 36.054V37.5881C236.687 37.5753 236.569 37.5561 236.386 37.5305C236.207 37.5007 236.018 37.4858 235.817 37.4858C235.34 37.4858 234.914 37.5859 234.539 37.7862C234.168 37.9822 233.874 38.255 233.657 38.6044C233.444 38.9496 233.337 39.3437 233.337 39.7869V46H231.829ZM241.804 46.2045C240.858 46.2045 240.041 45.9957 239.355 45.5781C238.674 45.1562 238.147 44.5682 237.777 43.8139C237.41 43.0554 237.227 42.1733 237.227 41.1676C237.227 40.1619 237.41 39.2756 237.777 38.5085C238.147 37.7372 238.663 37.1364 239.323 36.706C239.988 36.2713 240.764 36.054 241.65 36.054C242.162 36.054 242.666 36.1392 243.165 36.3097C243.664 36.4801 244.117 36.7571 244.527 37.1406C244.936 37.5199 245.262 38.0227 245.505 38.6491C245.747 39.2756 245.869 40.0469 245.869 40.9631V41.6023H238.301V40.2983H244.335C244.335 39.7443 244.224 39.25 244.002 38.8153C243.785 38.3807 243.474 38.0376 243.069 37.7862C242.669 37.5348 242.196 37.4091 241.65 37.4091C241.049 37.4091 240.529 37.5582 240.091 37.8565C239.656 38.1506 239.321 38.5341 239.087 39.0071C238.853 39.4801 238.735 39.9872 238.735 40.5284V41.3977C238.735 42.1392 238.863 42.7678 239.119 43.2834C239.379 43.7947 239.739 44.1847 240.199 44.4531C240.659 44.7173 241.194 44.8494 241.804 44.8494C242.2 44.8494 242.558 44.794 242.877 44.6832C243.201 44.5682 243.48 44.3977 243.715 44.1719C243.949 43.9418 244.13 43.6562 244.258 43.3153L245.716 43.7244C245.562 44.2188 245.304 44.6534 244.942 45.0284C244.58 45.3991 244.132 45.6889 243.6 45.8977C243.067 46.1023 242.468 46.2045 241.804 46.2045ZM247.624 46V36.1818H249.132V46H247.624ZM248.391 34.5455C248.097 34.5455 247.843 34.4453 247.63 34.245C247.421 34.0447 247.317 33.804 247.317 33.5227C247.317 33.2415 247.421 33.0007 247.63 32.8004C247.843 32.6001 248.097 32.5 248.391 32.5C248.685 32.5 248.936 32.6001 249.145 32.8004C249.358 33.0007 249.465 33.2415 249.465 33.5227C249.465 33.804 249.358 34.0447 249.145 34.245C248.936 34.4453 248.685 34.5455 248.391 34.5455ZM255.344 46.2045C254.423 46.2045 253.631 45.9872 252.966 45.5526C252.301 45.1179 251.79 44.5192 251.432 43.7564C251.074 42.9936 250.895 42.1222 250.895 41.142C250.895 40.1449 251.078 39.2649 251.445 38.5021C251.815 37.7351 252.331 37.1364 252.992 36.706C253.656 36.2713 254.432 36.054 255.318 36.054C256.009 36.054 256.631 36.1818 257.185 36.4375C257.739 36.6932 258.192 37.0511 258.546 37.5114C258.9 37.9716 259.119 38.5085 259.205 39.1222H257.696C257.581 38.6747 257.325 38.2784 256.929 37.9332C256.537 37.5838 256.009 37.4091 255.344 37.4091C254.756 37.4091 254.24 37.5625 253.797 37.8693C253.358 38.1719 253.015 38.6001 252.768 39.1541C252.525 39.7038 252.403 40.3494 252.403 41.0909C252.403 41.8494 252.523 42.5099 252.761 43.0724C253.004 43.6349 253.345 44.0717 253.784 44.3828C254.227 44.6939 254.747 44.8494 255.344 44.8494C255.736 44.8494 256.092 44.7812 256.411 44.6449C256.731 44.5085 257.001 44.3125 257.223 44.0568C257.445 43.8011 257.602 43.4943 257.696 43.1364H259.205C259.119 43.7159 258.908 44.2379 258.572 44.7024C258.239 45.1626 257.798 45.5291 257.249 45.8018C256.703 46.0703 256.068 46.2045 255.344 46.2045ZM262.378 40.0938V46H260.87V32.9091H262.378V37.7159H262.506C262.736 37.2088 263.081 36.8061 263.542 36.5078C264.006 36.2053 264.624 36.054 265.395 36.054C266.064 36.054 266.65 36.1882 267.153 36.4567C267.656 36.7209 268.046 37.1278 268.323 37.6776C268.604 38.223 268.745 38.9176 268.745 39.7614V46H267.236V39.8636C267.236 39.0838 267.034 38.4808 266.629 38.0547C266.228 37.6243 265.672 37.4091 264.961 37.4091C264.466 37.4091 264.023 37.5135 263.631 37.7223C263.243 37.9311 262.937 38.2358 262.711 38.6364C262.489 39.0369 262.378 39.5227 262.378 40.0938Z" fill="#191A15"/>
<path fill-rule="evenodd" clip-rule="evenodd" d="M36.8332 38C36.8332 32.9374 40.9372 28.8333 45.9998 28.8333C51.0624 28.8333 55.1665 32.9374 55.1665 38C55.1665 43.0626 51.0624 47.1667 45.9998 47.1667C40.9372 47.1667 36.8332 43.0626 36.8332 38ZM45.9998 27.1667C40.0168 27.1667 35.1665 32.0169 35.1665 38C35.1665 43.9831 40.0168 48.8333 45.9998 48.8333C51.9829 48.8333 56.8332 43.9831 56.8332 38C56.8332 32.0169 51.9829 27.1667 45.9998 27.1667ZM45.93 41.6944L51.7195 35.6944L50.2802 34.3056L45.1146 39.659L41.6135 36.9377L40.3861 38.5168L44.5967 41.7895L45.3061 42.341L45.93 41.6944Z" fill="#2B9B5B"/>
<defs>
<filter id="filter0_d_0_455" x="0" y="0" width="320" height="86" filterUnits="userSpaceOnUse" color-interpolation-filters="sRGB">
<feFlood flood-opacity="0" result="BackgroundImageFix"/>
<feColorMatrix in="SourceAlpha" type="matrix" values="0 0 0 0 0 0 0 0 0 0 0 0 0 0 0 0 0 0 127 0" result="hardAlpha"/>
<feOffset dy="4"/>
<feGaussianBlur stdDeviation="4.5"/>
<feComposite in2="hardAlpha" operator="out"/>
<feColorMatrix type="matrix" values="0 0 0 0 0 0 0 0 0 0 0 0 0 0 0 0 0 0 0.05 0"/>
<feBlend mode="normal" in2="BackgroundImageFix" result="effect1_dropShadow_0_455"/>
<feBlend mode="normal" in="SourceGraphic" in2="effect1_dropShadow_0_455" result="shape"/>
</filter>
</defs>
</svg>
